<svg width="49" height="49" viewBox="0 0 49 49" fill="none" xmlns="http://www.w3.org/2000/svg">
<path d="M24.1785 45.3569C35.875 45.3569 45.3569 35.875 45.3569 24.1785C45.3569 12.4819 35.875 3 24.1785 3C12.4819 3 3 12.4819 3 24.1785C3 35.875 12.4819 45.3569 24.1785 45.3569Z" stroke="#F0B27C" stroke-width="5.35118" stroke-linecap="round" stroke-linejoin="round"/>
<path d="M16.6155 37L15.3825 33.9362L23.1168 25.3798C23.5403 24.9314 23.9886 24.4084 24.4619 23.8105C24.9601 23.2127 25.4334 22.6024 25.8817 21.9797C26.355 21.3321 26.7286 20.7093 27.0027 20.1115C27.2767 19.4888 27.4137 18.9283 27.4137 18.4301C27.4137 17.8572 27.2891 17.359 27.04 16.9356C26.7909 16.4872 26.4297 16.1385 25.9565 15.8894C25.4832 15.6403 24.8978 15.5157 24.2004 15.5157C23.5527 15.5157 22.9424 15.6901 22.3695 16.0388C21.7966 16.3627 21.2611 16.8484 20.7629 17.496C20.2647 18.1437 19.8288 18.9283 19.4551 19.85L15.2704 17.496C15.7686 16.0513 16.4785 14.7934 17.4001 13.7223C18.3218 12.6512 19.4178 11.8167 20.6881 11.2189C21.9585 10.6211 23.3161 10.3221 24.7608 10.3221C26.2803 10.3471 27.6503 10.6709 28.8708 11.2936C30.0914 11.9163 31.0504 12.7882 31.7479 13.9091C32.4453 15.03 32.7941 16.3253 32.7941 17.7949C32.7941 18.3429 32.7318 18.9034 32.6072 19.4763C32.5076 20.0492 32.3208 20.647 32.0468 21.2698C31.7977 21.8925 31.4614 22.5526 31.038 23.2501C30.6394 23.9226 30.1412 24.645 29.5434 25.4172C28.9705 26.1645 28.3104 26.9491 27.5631 27.7711L21.6222 34.2351L20.875 31.9559H33.8776V37H16.6155Z" fill="#F0B17C"/>
</svg>
