<svg width="49" height="49" viewBox="0 0 49 49" fill="none" xmlns="http://www.w3.org/2000/svg">
<path d="M24.1785 45.3569C35.875 45.3569 45.3569 35.875 45.3569 24.1785C45.3569 12.4819 35.875 3 24.1785 3C12.4819 3 3 12.4819 3 24.1785C3 35.875 12.4819 45.3569 24.1785 45.3569Z" stroke="#F0B27C" stroke-width="5.35118" stroke-linecap="round" stroke-linejoin="round"/>
<path d="M24.2751 37.3736C22.2574 37.3736 20.4889 36.9377 18.9694 36.0659C17.4748 35.1941 16.0924 33.6995 14.822 31.5822L18.932 28.9668C19.505 29.8386 20.0779 30.5485 20.6508 31.0965C21.2486 31.6445 21.8713 32.0431 22.519 32.2921C23.1666 32.5412 23.8392 32.6658 24.5366 32.6658C25.2839 32.6658 25.9814 32.4914 26.629 32.1427C27.2767 31.794 27.7873 31.3082 28.1609 30.6855C28.5595 30.0379 28.7588 29.303 28.7588 28.481C28.7588 27.6341 28.5968 26.9242 28.273 26.3513C27.9492 25.7784 27.4759 25.3425 26.8532 25.0435C26.2305 24.7446 25.4956 24.5952 24.6487 24.5952C24.2751 24.5952 23.8641 24.6325 23.4157 24.7073C22.9673 24.782 22.5065 24.9065 22.0332 25.0809C21.56 25.2304 21.0493 25.4172 20.5013 25.6414L19.1936 22.2039L26.1059 14.6564L27.5257 15.6652L16.5407 15.5157V10.6958H32.271L33.2798 12.7508L24.6487 22.0918L23.341 20.5599C23.5403 20.4602 23.8641 20.373 24.3124 20.2983C24.7857 20.1987 25.2216 20.1489 25.6202 20.1489C26.766 20.1489 27.8371 20.3606 28.8335 20.7841C29.8299 21.2075 30.7141 21.7929 31.4863 22.5402C32.2585 23.2874 32.8563 24.1593 33.2798 25.1556C33.7282 26.152 33.9523 27.2231 33.9523 28.3689C33.9523 30.0877 33.5164 31.632 32.6446 33.0021C31.7977 34.3472 30.6394 35.4183 29.1698 36.2154C27.725 36.9875 26.0935 37.3736 24.2751 37.3736Z" fill="#F0B17C"/>
</svg>
