<svg width="49" height="49" viewBox="0 0 49 49" fill="none" xmlns="http://www.w3.org/2000/svg">
<path d="M24.1785 45.3569C35.875 45.3569 45.3569 35.875 45.3569 24.1785C45.3569 12.4819 35.875 3 24.1785 3C12.4819 3 3 12.4819 3 24.1785C3 35.875 12.4819 45.3569 24.1785 45.3569Z" stroke="#F0B27C" stroke-width="5.35118" stroke-linecap="round" stroke-linejoin="round"/>
<path d="M24.2377 37.2615C22.3446 37.2615 20.6259 36.8755 19.0815 36.1033C17.562 35.3062 16.2917 34.1603 15.2704 32.6658L18.2969 29.303C19.368 30.4987 20.3394 31.3207 21.2112 31.769C22.0831 32.1925 23.0421 32.4042 24.0883 32.4042C24.9601 32.4042 25.7447 32.2174 26.4422 31.8438C27.1397 31.4701 27.6877 30.9595 28.0862 30.3119C28.4848 29.6642 28.684 28.9418 28.684 28.1447C28.684 27.3227 28.4848 26.5879 28.0862 25.9403C27.6877 25.2926 27.1521 24.782 26.4796 24.4084C25.8319 24.0098 25.0846 23.8105 24.2377 23.8105C23.6897 23.8105 23.1791 23.8603 22.7058 23.96C22.2325 24.0347 21.7094 24.1966 21.1365 24.4457C20.5636 24.6699 19.8661 25.0062 19.0441 25.4545L16.5034 22.0918L18.11 10.6958H32.8314V15.5157H20.9497L22.3322 13.8717L21.0991 22.1665L19.3057 21.3071C19.6793 20.9584 20.19 20.6346 20.8376 20.3357C21.5102 20.0368 22.2325 19.7877 23.0047 19.5884C23.8018 19.3891 24.574 19.2895 25.3213 19.2895C26.9653 19.2895 28.4225 19.6631 29.6929 20.4104C30.9881 21.1577 32.0094 22.2039 32.7567 23.549C33.5289 24.8692 33.915 26.3886 33.915 28.1074C33.915 29.8261 33.4915 31.383 32.6446 32.7779C31.7977 34.1479 30.6394 35.2439 29.1698 36.0659C27.7001 36.863 26.0561 37.2615 24.2377 37.2615Z" fill="#F0B17C"/>
</svg>
