<svg width="49" height="49" viewBox="0 0 49 49" fill="none" xmlns="http://www.w3.org/2000/svg">
<path d="M24.1785 45.3569C35.875 45.3569 45.3569 35.875 45.3569 24.1785C45.3569 12.4819 35.875 3 24.1785 3C12.4819 3 3 12.4819 3 24.1785C3 35.875 12.4819 45.3569 24.1785 45.3569Z" stroke="#F0B27C" stroke-width="5.35118" stroke-linecap="round" stroke-linejoin="round"/>
<path d="M24.8355 37C23.5154 37 22.2699 36.7634 21.0991 36.2901C19.9533 35.8168 18.9445 35.1567 18.0727 34.3098C17.2258 33.4629 16.5532 32.4665 16.055 31.3207C15.5817 30.1749 15.3451 28.9418 15.3451 27.6217C15.3451 26.7996 15.4447 25.9652 15.644 25.1183C15.8433 24.2464 16.1173 23.3497 16.466 22.4281C16.8397 21.5064 17.288 20.5474 17.8111 19.551C18.3342 18.5547 18.9196 17.5209 19.5672 16.4498L23.1542 10.4342H28.3851L28.5346 10.8079L23.7894 18.4675C23.1168 19.5635 22.519 20.6097 21.9959 21.6061C21.4977 22.6024 21.0493 23.5614 20.6508 24.4831C20.2771 25.4047 19.9284 26.3388 19.6046 27.2854L18.521 24.2963C18.8449 23.4493 19.2808 22.6896 19.8288 22.0171C20.3768 21.3196 20.9995 20.7342 21.697 20.261C22.3944 19.7628 23.1293 19.3891 23.9014 19.14C24.6736 18.866 25.4334 18.729 26.1806 18.729C27.6503 18.729 28.9954 19.1276 30.2159 19.9247C31.4614 20.6969 32.4453 21.7306 33.1677 23.0259C33.915 24.3212 34.2886 25.741 34.2886 27.2854C34.2886 29.1536 33.8776 30.8225 33.0556 32.2921C32.2585 33.7369 31.1376 34.8827 29.6929 35.7296C28.273 36.5765 26.6539 37 24.8355 37ZM24.9103 32.2548C25.7572 32.2548 26.5045 32.068 27.1521 31.6943C27.8247 31.2958 28.3478 30.7478 28.7214 30.0503C29.095 29.3528 29.2819 28.5557 29.2819 27.659C29.2819 26.8868 29.0826 26.1645 28.684 25.4919C28.3104 24.7944 27.7873 24.234 27.1147 23.8105C26.4671 23.3871 25.7447 23.1753 24.9476 23.1753C24.0758 23.1753 23.2912 23.3871 22.5937 23.8105C21.9212 24.2091 21.3856 24.7446 20.9871 25.4172C20.6134 26.0648 20.4266 26.7996 20.4266 27.6217C20.4266 28.5184 20.6134 29.3155 20.9871 30.0129C21.3856 30.6855 21.9212 31.2335 22.5937 31.657C23.2663 32.0555 24.0384 32.2548 24.9103 32.2548Z" fill="#F0B17C"/>
</svg>
