<svg width="473" height="863" viewBox="0 0 473 863" fill="none" xmlns="http://www.w3.org/2000/svg">
<g filter="url(#filter0_d_78_9)">
<path d="M238.568 0.24707C239.66 0.343645 239.66 0.343645 240.846 0.633368C241.225 1.33353 241.225 1.33353 241.605 2.17856C242.352 2.71213 243.111 3.22731 243.882 3.72375C244.974 4.68166 245.348 5.43771 245.478 6.93184C245.513 8.90641 245.51 10.2236 244.262 11.836C244.011 12.2184 243.761 12.6009 243.503 12.9949C243.806 13.0562 244.109 13.1174 244.422 13.1805C249.629 14.3063 254.425 15.8278 257.499 20.4794C259.223 23.4478 259.901 26.1838 259.065 29.6057C258.258 30.7163 258.258 30.7163 257.547 31.5372C257.683 32.9062 257.95 33.1033 259.032 34.0542C259.499 34.4094 259.969 34.7614 260.441 35.1105C262.014 36.3087 263.417 37.4173 264.616 39.0217C265.899 40.65 267.406 41.0994 269.289 41.8133C272.182 43.1578 274.333 45.8086 276.345 48.2536C276.892 48.93 276.892 48.93 277.523 49.5152C278.631 50.7168 278.548 52.2288 278.531 53.7825C278.307 55.7107 277.468 57.2958 276.05 58.5781C275.219 59.5446 275.269 60.1845 275.297 61.4351C275.493 63.6443 275.996 65.8045 276.454 67.9699C276.553 68.4547 276.652 68.9395 276.754 69.4389C277.045 70.8435 277.35 72.244 277.663 73.6437C277.753 74.0518 277.842 74.46 277.934 74.8805C278.427 76.9476 278.837 78.3122 280.487 79.7279C282.907 81.9878 283.767 84.0032 284.552 87.2381C284.874 88.3205 285.3 89.1776 285.848 90.1579C286.944 92.2368 287.068 94.2669 287.308 96.5862C287.577 98.2587 288.146 99.4543 288.964 100.911C289.64 102.265 289.931 103.669 290.238 105.148C290.508 106.157 290.508 106.157 291.386 106.844C292.087 107.638 292.087 107.638 292.117 108.679C291.558 110.421 290.681 111.847 289.715 113.384C289.533 113.679 289.352 113.975 289.165 114.279C288.443 115.451 287.721 116.62 286.97 117.772C286.796 118.043 286.622 118.314 286.442 118.593C286.285 118.833 286.128 119.073 285.966 119.32C285.397 120.487 285.742 121.47 286.014 122.704C286.335 124.976 286.194 126.57 284.946 128.522C283.231 130.783 280.953 133.005 278.423 134.292C278.423 139.902 278.423 145.511 278.423 151.29C280.427 152.054 282.431 152.819 284.496 153.607C286.674 155.381 287.651 156.798 288.052 159.615C288.116 160.685 288.132 161.746 288.13 162.818C288.138 163.403 288.138 163.403 288.146 163.999C288.162 165.235 288.168 166.471 288.173 167.707C288.184 168.943 288.197 170.179 288.212 171.415C288.22 172.181 288.226 172.947 288.229 173.712C288.069 178.209 288.069 178.209 289.983 182.035C290.866 182.856 291.774 183.64 292.711 184.397C292.881 184.562 293.051 184.727 293.226 184.898C293.226 185.152 293.226 185.407 293.226 185.67C293.476 185.67 293.727 185.67 293.985 185.67C294.611 186.413 295.191 187.156 295.764 187.94C295.934 188.169 296.104 188.398 296.28 188.634C297.487 190.266 298.652 191.926 299.791 193.609C300.482 194.62 301.193 195.614 301.908 196.607C302.431 197.339 302.953 198.071 303.474 198.804C303.762 199.208 304.049 199.611 304.346 200.026C307.363 204.31 309.304 208.336 310.373 213.506C310.782 215.398 311.159 216.74 312.583 218.119C316.11 220.286 320.496 221.869 324.611 220.992C325.921 220.164 326.708 219.137 327.386 217.733C327.673 215.655 327.18 214.529 326.248 212.711C326.129 211.649 326.129 211.649 326.248 210.779C327.213 209.797 327.611 209.881 328.952 209.862C331.306 209.912 333.093 210.433 334.8 212.13C335.571 213.044 336.219 214.027 336.876 215.029C337.816 215.255 337.816 215.255 338.916 215.343C342.004 215.804 345.221 216.889 347.219 219.471C347.9 220.857 348.097 221.618 347.883 223.141C347.196 223.84 346.247 223.606 345.33 223.639C340.882 223.673 340.882 223.673 337.211 225.899C336.631 226.565 336.057 227.238 335.491 227.915C333.05 230.704 330.26 232.975 326.498 233.25C325.782 233.256 325.065 233.224 324.35 233.185C324.385 233.89 324.385 233.89 324.421 234.609C324.432 236.136 324.038 236.926 323.211 238.207C323.71 239.729 324.668 240.289 325.892 241.2C327.304 242.276 328.694 243.343 329.996 244.556C331.371 245.814 332.842 246.907 334.337 248.009C336.776 249.808 339.125 251.684 341.43 253.659C341.828 253.996 342.226 254.333 342.624 254.67C345.465 257.085 348.203 259.598 350.919 262.157C352.757 263.877 354.601 265.561 356.565 267.131C358.279 268.502 359.882 269.969 361.472 271.484C362.34 272.308 363.209 273.086 364.149 273.825C364.418 274.054 364.687 274.283 364.963 274.519C364.963 274.774 364.963 275.029 364.963 275.291C365.214 275.291 365.464 275.291 365.722 275.291C366.266 275.853 366.266 275.853 366.899 276.634C368.369 278.392 369.946 280.005 371.564 281.62C372.177 282.236 372.789 282.853 373.401 283.47C374.351 284.425 375.301 285.378 376.254 286.33C379.992 290.068 383.459 293.814 386.599 298.083C387.356 299.025 388.135 299.944 388.923 300.859C389.308 301.312 389.693 301.765 390.077 302.219C390.26 302.435 390.443 302.651 390.632 302.873C404.095 318.82 404.095 318.82 403.798 326.236C403.131 333.012 399.881 338.76 396.73 344.631C395.479 346.961 394.251 349.297 393.066 351.662C392.941 351.91 392.817 352.158 392.688 352.414C392.202 353.384 391.715 354.354 391.235 355.327C389.634 358.568 387.862 361.543 385.839 364.526C385.529 365.016 385.22 365.506 384.914 365.999C384.168 367.09 383.363 367.6 382.257 368.292C379.901 370.047 379.521 372.694 378.78 375.422C378.232 377.43 377.393 379.223 376.488 381.089C375.92 382.415 375.579 383.717 375.235 385.121C374.589 387.597 373.635 389.076 371.796 390.794C370.032 392.536 370.032 392.536 368.759 394.657C369.043 395.937 369.394 396.938 369.898 398.134C375.571 412.174 376.021 427.039 375.981 442.014C375.98 442.391 375.979 442.768 375.978 443.156C375.968 446.707 375.953 450.258 375.934 453.809C375.824 466.362 375.824 466.362 376.73 478.87C376.764 479.169 376.798 479.468 376.833 479.776C377.101 482.074 377.422 484.363 377.745 486.653C378.39 491.422 378.316 495.624 377.489 500.358C376.154 508.699 376.225 516.782 380.146 524.453C380.967 526.581 380.967 526.581 380.526 527.93C378.623 529.14 376.592 529.808 374.452 530.465C374.208 530.542 373.963 530.618 373.711 530.697C368.712 532.169 363.456 532.847 358.321 533.652C358.015 533.7 357.709 533.749 357.394 533.798C348.935 535.125 340.438 536.161 331.941 537.201C330.509 541.173 330.509 541.173 330.423 545.314C330.959 546.301 331.632 547.08 332.392 547.897C332.575 548.106 332.758 548.316 332.947 548.531C334.087 549.822 335.289 551.042 336.496 552.267C337.089 552.875 337.682 553.483 338.275 554.091C338.947 554.779 339.619 555.466 340.292 556.154C340.629 556.501 340.967 556.848 341.315 557.205C341.643 557.54 341.97 557.875 342.308 558.22C342.604 558.523 342.9 558.826 343.205 559.139C344.088 560.019 344.088 560.019 345.124 560.828C345.985 561.538 345.985 561.538 346.365 562.311C346.703 566.1 345.244 569.776 342.949 572.741C340.64 575.349 338.074 577.546 335.357 579.694C334.675 580.255 333.995 580.819 333.317 581.384C332.792 581.82 332.792 581.82 332.257 582.264C331.537 582.871 330.824 583.488 330.119 584.114C322.574 590.753 315.42 594.171 305.372 593.601C304.053 593.428 302.862 593.177 301.576 592.828C301.777 597.016 302.261 601.099 302.905 605.238C302.991 605.809 303.078 606.381 303.164 606.952C303.487 609.077 303.819 611.193 304.233 613.302C262.523 613.302 220.812 613.302 177.838 613.302C178.214 611.772 178.59 610.242 178.977 608.666C179.219 607.373 179.449 606.086 179.656 604.787C179.712 604.441 179.769 604.096 179.827 603.74C179.944 603.019 180.061 602.297 180.177 601.576C180.353 600.48 180.532 599.384 180.711 598.288C180.826 597.581 180.941 596.875 181.055 596.168C181.108 595.845 181.161 595.523 181.215 595.191C181.546 593.12 181.8 591.052 182.013 588.965C181.637 589.093 181.262 589.22 180.875 589.351C172.581 590.477 163.291 590.682 156.345 585.368C154.218 583.574 152.294 581.562 150.365 579.553C149.076 578.213 147.786 576.99 146.334 575.831C145.694 575.195 145.061 574.551 144.436 573.9C144.113 573.579 143.79 573.258 143.458 572.928C140.263 569.6 136.83 565.013 136.331 560.251C136.501 558.455 137.016 557.915 138.245 556.637C138.431 556.439 138.617 556.242 138.81 556.038C140.184 554.603 141.642 553.267 143.108 551.929C145.482 549.761 147.429 547.375 149.307 544.757C149.703 544.218 150.128 543.702 150.555 543.189C151.513 541.973 152.061 541.221 151.962 539.631C151.69 538.507 151.336 537.493 150.889 536.429C150.758 536.117 150.628 535.806 150.493 535.486C149.848 533.952 149.848 533.952 148.612 532.952C147.848 532.892 147.083 532.855 146.318 532.827C132.319 532.207 113.948 531.328 101.925 523.295C102.132 521.559 102.573 520.308 103.396 518.78C105.668 514.31 106.164 509.953 106.111 504.998C106.106 504.12 106.101 503.241 106.097 502.363C106.087 500.999 106.077 499.635 106.064 498.271C105.996 490.624 106.429 483.108 107.194 475.504C108.068 466.718 107.66 457.901 107.239 449.101C106.386 431.26 106.647 414.295 111.781 397.063C111.924 396.582 112.067 396.101 112.215 395.605C112.344 395.179 112.473 394.754 112.606 394.315C113.29 392.096 113.29 392.096 112.944 389.903C111.914 388.445 110.883 387.117 109.611 385.869C108.338 384.619 107.775 383.672 107.49 381.867C107.174 379.947 106.721 378.453 105.792 376.743C104.503 374.299 103.928 371.801 103.377 369.105C102.79 366.387 101.811 365.348 99.6002 363.753C94.6012 359.759 92.2483 354.435 89.5892 348.712C89.2187 347.927 88.8475 347.142 88.4757 346.357C87.563 344.427 86.6588 342.493 85.7571 340.557C85.2232 339.415 84.6854 338.274 84.1463 337.134C83.8882 336.587 83.8882 336.587 83.6249 336.028C83.3028 335.346 82.9799 334.663 82.6561 333.981C81.4166 331.346 80.3845 328.689 79.5308 325.896C79.4383 325.601 79.3458 325.307 79.2505 325.003C78.2663 321.514 78.6258 318.649 80.2899 315.466C82.3096 312.165 84.6656 309.168 87.1221 306.195C87.7324 305.448 88.3413 304.699 88.9487 303.95C89.2173 303.621 89.4859 303.291 89.7627 302.952C90.5892 301.88 91.3152 300.763 92.0564 299.628C94.4522 296.352 97.0121 293.281 99.7633 290.31C100.556 289.448 101.319 288.578 102.067 287.677C103.319 286.197 104.686 284.845 106.053 283.476C107.983 281.54 109.729 279.563 111.408 277.398C112.36 276.219 113.41 275.181 114.486 274.122C115.259 273.308 115.918 272.453 116.586 271.549C118.322 269.245 119.756 268.07 122.398 267.01C125.426 265.785 127.146 263.998 129.224 261.516C131.582 258.813 134.152 256.267 136.857 253.926C137.71 253.18 138.533 252.405 139.36 251.63C141.092 250.036 142.898 248.564 144.75 247.118C145.918 246.202 147.036 245.259 148.13 244.253C149.968 242.601 151.967 241.219 153.997 239.824C154.55 239.438 154.55 239.438 155.114 239.043C156.712 237.938 158.175 236.953 159.998 236.275C159.893 235.991 159.788 235.706 159.68 235.414C159.542 235.037 159.405 234.66 159.263 234.271C159.127 233.899 158.99 233.527 158.849 233.144C158.514 232.128 158.281 231.149 158.101 230.094C157.615 230.007 157.13 229.919 156.63 229.829C151.989 228.763 148.147 225.971 145.499 221.988C143.79 220.041 141.65 219.841 139.241 219.64C136.232 219.377 136.232 219.377 134.947 218.505C135.326 216.302 136.506 215.189 138.123 213.805C140.197 212.336 142.467 211.564 144.982 211.407C146.416 211.31 146.416 211.31 147.164 210.079C147.391 209.673 147.618 209.267 147.852 208.848C149.935 206.84 151.962 206.424 154.779 206.458C155.243 206.46 155.707 206.463 156.185 206.465C157.342 206.53 157.342 206.53 158.101 206.916C157.917 208.599 157.421 209.27 156.203 210.393C155.595 211.63 155.689 212.911 155.823 214.256C156.368 215.724 156.823 216.107 158.172 216.888C161.212 217.852 163.998 217.406 166.829 216.016C169.42 214.576 171.406 213.244 172.44 210.335C172.685 209.433 172.894 208.53 173.093 207.617C174.624 201.26 177.238 195.606 182.772 191.851C183.218 190.886 183.218 190.886 183.603 189.75C184.93 186.431 186.602 183.826 189.36 181.592C192.044 179.337 194.524 177.216 195.113 173.578C195.333 170.891 195.22 168.223 195.084 165.534C195.046 164.152 195.017 162.771 194.993 161.389C194.974 160.536 194.946 159.684 194.907 158.832C194.809 156.224 194.885 153.922 196.576 151.796C198.181 150.1 200.331 149.403 202.484 148.689C203.313 148.412 203.313 148.412 204.408 147.813C205.236 145.252 204.917 142.158 204.941 139.49C204.949 138.796 204.962 138.102 204.98 137.409C205.226 132.279 205.226 132.279 203.002 127.831C202.84 127.669 202.677 127.506 202.51 127.339C200.094 127.88 198.121 128.553 196.01 129.898C194.124 131.072 192.6 131.802 190.364 131.588C188.516 131.109 187.855 130.188 186.9 128.595C186.379 127.652 185.877 126.704 185.395 125.74C184.803 124.587 184.458 123.948 183.294 123.355C182.848 123.224 182.848 123.224 182.393 123.09C181.634 122.317 181.634 122.317 181.49 121.398C181.681 120.05 182.15 119.717 183.176 118.865C183.488 118.598 183.8 118.331 184.122 118.056C184.675 117.602 185.23 117.151 185.788 116.704C187.379 115.397 188.37 114.022 189.449 112.257C189.984 111.501 189.984 111.501 191.004 110.921C192.249 110.099 192.339 109.134 192.737 107.724C193.291 106.047 194.264 105.121 195.678 104.161C196.179 104.161 196.68 104.161 197.196 104.161C197.069 103.961 196.941 103.761 196.81 103.555C196.306 102.288 196.423 101.318 196.532 99.9602C196.581 99.2686 196.581 99.2686 196.632 98.5629C196.92 96.4411 197.323 94.982 198.856 93.4897C199.99 92.2436 200.488 91.233 200.944 89.6026C201.89 86.341 203.837 82.956 206.661 81.0316C207.977 79.9793 208.093 78.9449 208.322 77.2894C208.391 76.4989 208.46 75.7083 208.515 74.9167C208.587 73.9678 208.687 73.0246 208.792 72.0789C209.147 68.8009 209.421 65.5221 209.484 62.2238C209.499 61.8205 209.499 61.8205 209.514 61.4091C209.519 60.0611 209.427 59.456 208.574 58.3985C208.326 58.2028 208.079 58.0071 207.824 57.8055C207.761 58.5315 207.761 58.5315 207.698 59.2722C207.637 59.91 207.576 60.5478 207.515 61.1856C207.489 61.5043 207.462 61.823 207.434 62.1513C207.389 62.6144 207.389 62.6144 207.342 63.0869C207.316 63.3701 207.29 63.6533 207.263 63.9451C207.064 64.7588 207.064 64.7588 206.484 65.4801C205.712 66.6193 205.802 67.4238 205.828 68.7969C205.833 69.2834 205.839 69.7699 205.844 70.2711C205.861 71.0323 205.861 71.0323 205.878 71.8088C206.013 79.9158 206.013 79.9158 205.048 81.3244C204.837 81.4827 204.625 81.6411 204.408 81.8042C204.168 81.987 203.928 82.1697 203.681 82.358C203.42 82.5418 203.158 82.7255 202.889 82.9148C202.62 83.1185 202.351 83.3222 202.074 83.532C200.267 84.8448 198.301 86.0981 196.057 86.3915C194.918 85.6189 194.918 85.6189 194.652 84.5559C194.542 83.3364 194.545 82.2147 194.628 80.9939C194.657 80.5546 194.687 80.1153 194.717 79.6627C194.752 79.1982 194.787 78.7337 194.824 78.2551C194.859 77.7759 194.895 77.2967 194.931 76.803C195.162 73.85 195.435 70.9065 195.82 67.9699C195.858 67.6544 195.897 67.339 195.937 67.0139C196.332 64.2419 197.205 61.485 199.117 59.3989C199.394 59.0897 199.394 59.0897 199.676 58.7742C200.236 58.1881 200.801 57.6081 201.371 57.0329C201.034 56.6743 200.698 56.3158 200.351 55.9464C198.572 53.8218 197.145 51.1958 196.959 48.3653C197.196 46.9891 197.196 46.9891 197.97 46.135C199.387 45.2634 200.531 45.2829 202.13 45.3715C204.626 45.5102 204.626 45.5102 207.064 45.0576C207.448 44.6755 207.827 44.2889 208.203 43.8987C209.177 43.4747 209.177 43.4747 210.315 43.102C210.721 42.9661 211.128 42.8301 211.547 42.6901C212.627 42.3899 213.594 42.2624 214.703 42.1604C217.406 41.6739 218.84 39.0688 220.349 36.9454C220.792 36.3334 221.234 35.7217 221.678 35.1105C221.846 34.8655 222.014 34.6205 222.188 34.368C222.333 34.1987 222.477 34.0294 222.627 33.855C222.877 33.855 223.128 33.855 223.386 33.855C223.23 33.6588 223.075 33.4626 222.914 33.2605C222.607 32.8616 222.607 32.8616 222.295 32.4547C222.092 32.1947 221.889 31.9348 221.681 31.667C219.997 29.013 220.086 26.0893 220.349 23.0387C220.994 20.2445 222.701 18.198 224.904 16.4716C228.312 14.3942 231.598 13.3399 235.532 12.9949C235.658 11.744 235.658 11.744 234.607 10.7737C233.523 9.49765 233.225 8.53526 233.254 6.81414C234.161 4.67461 235.246 3.63218 237.05 2.17856C237.573 1.54861 238.085 0.908936 238.568 0.24707ZM163.438 300.57C162.028 301.401 160.983 301.683 159.358 301.753C157.326 301.853 156.578 302.468 155.064 303.877C154.493 304.095 153.914 304.295 153.332 304.481C150.662 305.471 148.843 307.563 146.861 309.556C146.334 310.058 146.334 310.058 145.43 310.733C145.227 310.892 145.025 311.052 144.816 311.217C144.816 311.472 144.816 311.727 144.816 311.99C144.605 312.081 144.393 312.172 144.175 312.266C143.086 312.882 142.303 313.651 141.4 314.525C139.914 315.928 138.415 317.194 136.774 318.412C134.341 320.231 131.661 322.252 130.392 325.124C130.478 326.334 130.478 326.334 130.891 327.659C130.96 327.915 131.03 328.171 131.102 328.435C131.267 329.035 131.435 329.634 131.606 330.232C131.961 331.483 132.3 332.738 132.639 333.993C132.902 334.956 133.165 335.919 133.429 336.882C133.555 337.344 133.681 337.806 133.81 338.282C134.802 341.829 136.028 344.964 137.889 348.133C138.122 348.531 138.355 348.93 138.595 349.341C138.856 349.783 138.856 349.783 139.122 350.233C141.026 350.106 141.026 350.106 142.538 349.074C143.79 349.202 144.293 349.315 145.195 350.233C145.948 350.284 145.948 350.284 146.714 349.847C147.049 349.309 147.382 348.771 147.71 348.229C150.158 344.945 154.282 342.849 158.101 341.734C161.589 341.352 164.629 341.926 167.938 342.942C169.088 343.332 169.088 343.332 170.247 343.28C170.431 342.827 170.615 342.374 170.804 341.908C173.262 335.991 176.405 330.421 182.013 327.055C181.537 326.085 181.064 325.946 180.115 325.51C179.997 324.448 179.997 324.448 180.115 323.192C180.96 322.355 181.722 321.795 182.772 321.261C182.625 320.247 182.414 319.741 181.751 318.955C180.506 317.291 179.645 315.468 178.716 313.607C178.307 312.809 177.899 312.012 177.49 311.214C176.778 309.817 176.087 308.415 175.423 306.995C174.087 304.108 174.087 304.108 171.774 302.053C170.637 301.675 169.518 301.424 168.349 301.173C167.495 300.751 167.495 300.751 166.783 300.304C165.209 299.329 164.895 299.623 163.438 300.57ZM313.343 304.65C313.018 304.764 312.694 304.878 312.36 304.995C308.716 306.429 307.488 309.742 306.004 313.154C304.902 315.728 304.902 315.728 303.832 318.317C302.939 320.473 302.203 322.065 300.437 323.578C300.312 323.833 300.187 324.088 300.058 324.351C300.426 324.614 300.794 324.877 301.173 325.148C302.146 325.983 302.338 326.292 302.762 327.586C302.701 329.4 302.183 330.2 301.197 331.691C301.385 331.827 301.573 331.963 301.767 332.103C306.875 335.881 310.715 340.934 312.583 347.143C312.803 347.084 313.023 347.026 313.249 346.965C324.594 343.979 324.594 343.979 330.043 347.191C332.138 348.619 334.505 350.417 335.868 352.594C336.433 353.398 336.433 353.398 337.322 353.499C337.634 353.491 337.946 353.483 338.268 353.474C338.607 353.469 338.945 353.464 339.295 353.459C339.647 353.446 340 353.433 340.363 353.42C340.72 353.413 341.077 353.406 341.444 353.399C342.326 353.381 343.206 353.355 344.087 353.323C345.862 349.688 347.206 346.003 348.441 342.151C348.739 341.221 349.042 340.293 349.345 339.365C349.54 338.764 349.735 338.163 349.929 337.562C350.018 337.29 350.106 337.017 350.197 336.736C351.402 332.969 352.163 330.209 350.326 326.476C348.182 322.682 344.523 320.48 340.984 318.149C337.766 315.986 335.228 313.57 332.866 310.428C331.508 308.649 329.998 307.734 328.025 306.72C327.007 306.195 327.007 306.195 326.119 305.587C324.818 304.877 323.513 304.661 322.073 304.433C319.236 303.967 319.236 303.967 318.009 303.419C316.334 302.815 314.869 303.933 313.343 304.65Z" fill="#3B352E"/>
<path d="M4 627.729C4 619.697 10.5113 613.186 18.5433 613.186H454.457C462.489 613.186 469 619.697 469 627.729V854.247H4V627.729Z" fill="#3C352E"/>
<path d="M111.399 753.718V716.618H138.376V725.257H121.469V745.079H139.171V753.718H111.399ZM116.381 738.984V730.822H136.256V738.984H116.381ZM146.336 753.718V716.618H155.717L173.737 741.316L171.564 740.786C171.387 739.479 171.228 738.295 171.087 737.235C170.981 736.175 170.875 735.168 170.769 734.214C170.698 733.26 170.627 732.306 170.557 731.352C170.521 730.398 170.504 729.356 170.504 728.225C170.504 727.095 170.504 725.823 170.504 724.409V716.618H180.627V753.718H171.14L151.742 727.218L155.399 728.119C155.575 729.568 155.717 730.822 155.823 731.882C155.964 732.942 156.07 733.896 156.141 734.744C156.211 735.592 156.264 736.405 156.3 737.182C156.37 737.96 156.406 738.79 156.406 739.673C156.441 740.557 156.459 741.564 156.459 742.694V753.718H146.336ZM206.94 754.248C203.866 754.248 201.11 753.771 198.672 752.817C196.234 751.863 194.149 750.521 192.418 748.789C190.722 747.058 189.432 745.009 188.549 742.641C187.665 740.274 187.224 737.712 187.224 734.956C187.224 732.165 187.701 729.603 188.655 727.271C189.644 724.904 191.057 722.855 192.895 721.123C194.732 719.392 196.887 718.049 199.361 717.095C201.869 716.141 204.643 715.664 207.682 715.664C209.766 715.664 211.727 715.929 213.565 716.459C215.437 716.989 217.116 717.714 218.6 718.632C220.084 719.551 221.356 720.576 222.416 721.706L216.162 728.384C215.384 727.642 214.554 727.006 213.671 726.476C212.823 725.946 211.886 725.522 210.862 725.204C209.872 724.886 208.759 724.727 207.523 724.727C206.145 724.727 204.873 724.992 203.707 725.522C202.576 726.017 201.587 726.724 200.739 727.642C199.891 728.526 199.219 729.603 198.725 730.875C198.265 732.112 198.036 733.472 198.036 734.956C198.036 736.405 198.283 737.765 198.778 739.037C199.272 740.274 199.961 741.352 200.845 742.27C201.728 743.189 202.77 743.913 203.972 744.443C205.208 744.938 206.533 745.185 207.947 745.185C208.936 745.185 209.855 745.026 210.703 744.708C211.551 744.39 212.275 743.966 212.876 743.436C213.512 742.871 214.006 742.217 214.36 741.475C214.713 740.698 214.89 739.868 214.89 738.984V737.5L216.268 739.726H206.516V732.094H224.43C224.465 732.483 224.5 733.084 224.536 733.896C224.606 734.674 224.642 735.451 224.642 736.228C224.677 737.006 224.695 737.553 224.695 737.871C224.695 740.239 224.253 742.429 223.37 744.443C222.486 746.457 221.25 748.189 219.66 749.637C218.07 751.086 216.197 752.217 214.042 753.029C211.886 753.842 209.519 754.248 206.94 754.248ZM231.218 753.718V716.618H241.712V744.655H257.877V753.718H231.218ZM263.245 753.718V745.132H269.711V725.204H263.245V716.618H286.618V725.204H280.205V745.132H286.618V753.718H263.245ZM307.704 754.248C305.054 754.248 302.687 753.948 300.602 753.347C298.553 752.747 296.733 751.881 295.143 750.75C293.588 749.62 292.193 748.295 290.956 746.775L297.104 739.832C298.871 742.129 300.69 743.666 302.563 744.443C304.436 745.185 306.255 745.556 308.022 745.556C308.799 745.556 309.506 745.486 310.142 745.344C310.778 745.168 311.255 744.903 311.573 744.549C311.926 744.161 312.103 743.684 312.103 743.118C312.103 742.624 311.962 742.2 311.679 741.846C311.396 741.493 311.008 741.193 310.513 740.945C310.018 740.663 309.471 740.415 308.87 740.203C308.269 739.991 307.669 739.832 307.068 739.726C306.467 739.585 305.884 739.444 305.319 739.302C303.234 738.843 301.415 738.26 299.86 737.553C298.305 736.847 296.998 736.016 295.938 735.062C294.913 734.073 294.136 732.942 293.606 731.67C293.111 730.398 292.864 728.967 292.864 727.377C292.864 725.646 293.27 724.056 294.083 722.607C294.896 721.159 295.973 719.922 297.316 718.897C298.659 717.837 300.196 717.042 301.927 716.512C303.694 715.947 305.531 715.664 307.439 715.664C310.054 715.664 312.28 715.929 314.117 716.459C315.954 716.954 317.491 717.678 318.728 718.632C320 719.586 321.095 720.699 322.014 721.971L315.76 728.013C315.018 727.201 314.205 726.529 313.322 725.999C312.474 725.469 311.591 725.081 310.672 724.833C309.753 724.551 308.817 724.409 307.863 724.409C306.98 724.409 306.202 724.498 305.531 724.674C304.895 724.851 304.4 725.116 304.047 725.469C303.694 725.787 303.517 726.229 303.517 726.794C303.517 727.289 303.711 727.731 304.1 728.119C304.489 728.473 304.983 728.773 305.584 729.02C306.185 729.268 306.821 729.48 307.492 729.656C308.199 729.798 308.835 729.921 309.4 730.027C311.343 730.416 313.11 730.928 314.7 731.564C316.325 732.165 317.739 732.942 318.94 733.896C320.141 734.815 321.06 735.946 321.696 737.288C322.332 738.631 322.65 740.203 322.65 742.005C322.65 744.655 321.979 746.899 320.636 748.736C319.329 750.538 317.544 751.916 315.283 752.87C313.057 753.789 310.531 754.248 307.704 754.248ZM351.254 753.718V716.618H361.748V753.718H351.254ZM328.782 753.718V716.618H339.276V753.718H328.782ZM332.757 739.832L332.81 730.61H357.031V739.832H332.757Z" fill="#DDC993"/>
<path d="M250.67 126.684C250.935 126.866 251.201 127.048 251.474 127.235C251.826 127.466 252.178 127.697 252.541 127.935C255.636 131.084 256.232 135.333 256.245 139.593C256.116 144.079 253.845 147.544 250.844 150.73C249.711 151.803 248.512 152.752 247.275 153.696C245.143 155.376 244.379 157.562 243.503 160.07C243.409 160.311 243.315 160.551 243.218 160.799C242.29 163.323 242.109 165.772 241.961 168.448C241.595 174.76 241.595 174.76 240.467 175.908C239.708 175.924 238.948 175.925 238.189 175.908C237.754 175.023 237.724 174.418 237.66 173.432C237.023 162.758 237.023 162.758 231.699 153.903C230.854 153.166 229.988 152.46 229.115 151.759C226.115 149.307 224.224 146.402 223.007 142.687C222.624 137.813 222.533 132.762 225.664 128.78C232.145 121.475 242.846 121.557 250.67 126.684Z" fill="#E9E9E9"/>
<path d="M239.736 138.703C241.238 138.96 242.065 139.233 243.053 140.445C243.626 141.827 243.686 142.748 243.503 144.236C242.714 145.482 242.061 146.116 240.846 146.94C239.673 147.173 238.604 147.172 237.43 146.94C236.173 145.921 235.687 145.353 235.353 143.776C235.253 142.231 235.414 141.055 236.292 139.769C237.584 138.7 238.131 138.564 239.736 138.703Z" fill="#3B352E"/>
</g>
<defs>
<filter id="filter0_d_78_9" x="0" y="0.24707" width="473" height="862" filterUnits="userSpaceOnUse" color-interpolation-filters="sRGB">
<feFlood flood-opacity="0" result="BackgroundImageFix"/>
<feColorMatrix in="SourceAlpha" type="matrix" values="0 0 0 0 0 0 0 0 0 0 0 0 0 0 0 0 0 0 127 0" result="hardAlpha"/>
<feOffset dy="4"/>
<feGaussianBlur stdDeviation="2"/>
<feComposite in2="hardAlpha" operator="out"/>
<feColorMatrix type="matrix" values="0 0 0 0 0 0 0 0 0 0 0 0 0 0 0 0 0 0 0.25 0"/>
<feBlend mode="normal" in2="BackgroundImageFix" result="effect1_dropShadow_78_9"/>
<feBlend mode="normal" in="SourceGraphic" in2="effect1_dropShadow_78_9" result="shape"/>
</filter>
</defs>
</svg>
