<svg width="465" height="854" viewBox="0 0 465 854" fill="none" xmlns="http://www.w3.org/2000/svg">
<path d="M234.568 0.24707C235.66 0.343532 235.66 0.343532 236.846 0.632917C237.225 1.33226 237.225 1.33226 237.605 2.1763C238.352 2.70925 239.111 3.22383 239.882 3.71969C240.974 4.67648 241.348 5.43165 241.478 6.92403C241.513 8.89629 241.51 10.2119 240.262 11.8225C240.011 12.2045 239.761 12.5865 239.503 12.98C239.806 13.0412 240.109 13.1024 240.422 13.1654C245.629 14.2899 250.425 15.8096 253.499 20.4558C255.223 23.4207 255.901 26.1535 255.065 29.5714C254.258 30.6807 254.258 30.6807 253.547 31.5007C253.683 32.8681 253.95 33.0649 255.032 34.0147C255.499 34.3695 255.969 34.721 256.441 35.0697C258.014 36.2666 259.417 37.3738 260.616 38.9764C261.899 40.6028 263.406 41.0517 265.289 41.7648C268.182 43.1077 270.333 45.7554 272.345 48.1976C272.892 48.8732 272.892 48.8732 273.523 49.4576C274.631 50.6579 274.548 52.1681 274.531 53.72C274.307 55.646 273.468 57.2292 272.05 58.5099C271.219 59.4753 271.269 60.1145 271.297 61.3637C271.493 63.5702 271.996 65.728 272.454 67.8908C272.553 68.375 272.652 68.8592 272.754 69.3581C273.045 70.7611 273.35 72.1599 273.663 73.558C273.753 73.9656 273.842 74.3733 273.934 74.7933C274.427 76.858 274.837 78.221 276.487 79.635C278.907 81.8923 279.767 83.9054 280.552 87.1365C280.874 88.2176 281.3 89.0737 281.848 90.0529C282.944 92.1294 283.068 94.1571 283.308 96.4736C283.577 98.1443 284.146 99.3384 284.964 100.793C285.64 102.145 285.931 103.548 286.238 105.026C286.508 106.033 286.508 106.033 287.386 106.72C288.087 107.512 288.087 107.512 288.117 108.552C287.558 110.292 286.681 111.716 285.715 113.252C285.533 113.547 285.352 113.842 285.165 114.146C284.443 115.316 283.721 116.484 282.97 117.635C282.796 117.905 282.622 118.176 282.442 118.455C282.285 118.694 282.128 118.934 281.966 119.181C281.397 120.346 281.742 121.329 282.014 122.561C282.335 124.831 282.194 126.423 280.946 128.372C279.231 130.63 276.953 132.85 274.423 134.136C274.423 139.738 274.423 145.341 274.423 151.113C276.427 151.877 278.431 152.641 280.496 153.428C282.674 155.2 283.651 156.616 284.052 159.429C284.116 160.498 284.132 161.557 284.13 162.628C284.138 163.212 284.138 163.212 284.146 163.808C284.162 165.043 284.168 166.277 284.173 167.512C284.184 168.746 284.197 169.981 284.212 171.215C284.22 171.98 284.226 172.745 284.229 173.51C284.069 178.001 284.069 178.001 285.983 181.823C286.866 182.643 287.774 183.426 288.711 184.181C288.881 184.347 289.051 184.512 289.226 184.682C289.226 184.936 289.226 185.191 289.226 185.454C289.476 185.454 289.727 185.454 289.985 185.454C290.611 186.196 291.191 186.938 291.764 187.72C291.934 187.949 292.104 188.178 292.28 188.414C293.487 190.045 294.652 191.702 295.791 193.383C296.482 194.393 297.193 195.386 297.908 196.378C298.431 197.109 298.953 197.84 299.474 198.572C299.762 198.975 300.049 199.378 300.346 199.793C303.363 204.072 305.304 208.093 306.373 213.257C306.782 215.146 307.159 216.487 308.583 217.865C312.11 220.029 316.496 221.61 320.611 220.734C321.921 219.907 322.708 218.882 323.386 217.479C323.673 215.403 323.18 214.279 322.248 212.463C322.129 211.402 322.129 211.402 322.248 210.534C323.213 209.552 323.611 209.636 324.952 209.617C327.306 209.667 329.093 210.188 330.8 211.883C331.571 212.796 332.219 213.777 332.876 214.778C333.816 215.004 333.816 215.004 334.916 215.091C338.004 215.552 341.221 216.636 343.219 219.215C343.9 220.6 344.097 221.36 343.883 222.881C343.196 223.579 342.247 223.345 341.33 223.378C336.882 223.412 336.882 223.412 333.211 225.636C332.631 226.301 332.057 226.972 331.491 227.649C329.05 230.435 326.26 232.703 322.498 232.977C321.782 232.984 321.065 232.952 320.35 232.913C320.385 233.617 320.385 233.617 320.421 234.335C320.432 235.86 320.038 236.649 319.211 237.929C319.71 239.449 320.668 240.009 321.892 240.919C323.304 241.993 324.694 243.059 325.996 244.271C327.371 245.527 328.842 246.619 330.337 247.72C332.776 249.516 335.125 251.39 337.43 253.363C337.828 253.699 338.226 254.036 338.624 254.372C341.465 256.785 344.203 259.295 346.919 261.851C348.757 263.569 350.601 265.251 352.565 266.819C354.279 268.189 355.882 269.654 357.472 271.167C358.34 271.991 359.209 272.767 360.149 273.505C360.418 273.734 360.687 273.963 360.963 274.198C360.963 274.453 360.963 274.708 360.963 274.97C361.214 274.97 361.464 274.97 361.722 274.97C362.266 275.532 362.266 275.532 362.899 276.311C364.369 278.067 365.946 279.678 367.564 281.291C368.177 281.907 368.789 282.523 369.401 283.139C370.351 284.093 371.301 285.045 372.254 285.996C375.992 289.729 379.459 293.471 382.599 297.735C383.356 298.676 384.135 299.594 384.923 300.508C385.308 300.961 385.693 301.413 386.077 301.866C386.26 302.082 386.443 302.298 386.632 302.52C400.095 318.447 400.095 318.447 399.798 325.855C399.131 332.624 395.881 338.365 392.73 344.228C391.479 346.556 390.251 348.89 389.066 351.252C388.941 351.499 388.817 351.747 388.688 352.002C388.202 352.971 387.715 353.94 387.235 354.912C385.634 358.15 383.862 361.121 381.839 364.101C381.529 364.59 381.22 365.08 380.914 365.572C380.168 366.661 379.363 367.171 378.257 367.863C375.901 369.615 375.521 372.259 374.78 374.984C374.232 376.989 373.393 378.781 372.488 380.644C371.92 381.968 371.579 383.27 371.235 384.671C370.589 387.144 369.635 388.622 367.796 390.338C366.032 392.078 366.032 392.078 364.759 394.197C365.043 395.475 365.394 396.475 365.898 397.669C371.571 411.693 372.021 426.541 371.981 441.498C371.98 441.874 371.979 442.251 371.978 442.639C371.968 446.186 371.953 449.733 371.934 453.28C371.824 465.817 371.824 465.817 372.73 478.311C372.764 478.61 372.798 478.909 372.833 479.216C373.101 481.511 373.422 483.797 373.745 486.085C374.39 490.849 374.316 495.046 373.489 499.774C372.154 508.105 372.225 516.179 376.146 523.841C376.967 525.966 376.967 525.966 376.526 527.314C374.623 528.523 372.592 529.19 370.452 529.846C370.208 529.922 369.963 529.998 369.711 530.077C364.712 531.547 359.456 532.225 354.321 533.029C354.015 533.077 353.709 533.126 353.394 533.175C344.935 534.501 336.438 535.535 327.941 536.574C326.509 540.541 326.509 540.541 326.423 544.677C326.959 545.663 327.632 546.442 328.392 547.257C328.575 547.466 328.758 547.676 328.947 547.891C330.087 549.18 331.289 550.399 332.496 551.622C333.089 552.229 333.682 552.837 334.275 553.444C334.947 554.131 335.619 554.818 336.292 555.505C336.629 555.851 336.967 556.198 337.315 556.554C337.643 556.889 337.97 557.223 338.308 557.568C338.604 557.871 338.9 558.174 339.205 558.486C340.088 559.365 340.088 559.365 341.124 560.173C341.985 560.882 341.985 560.882 342.365 561.654C342.703 565.439 341.244 569.111 338.949 572.072C336.64 574.678 334.074 576.871 331.357 579.017C330.675 579.578 329.995 580.14 329.317 580.705C328.792 581.14 328.792 581.14 328.257 581.584C327.537 582.191 326.824 582.807 326.119 583.432C318.574 590.064 311.42 593.478 301.372 592.908C300.053 592.735 298.862 592.485 297.576 592.136C297.777 596.319 298.261 600.398 298.905 604.531C298.991 605.102 299.078 605.673 299.164 606.244C299.487 608.366 299.819 610.479 300.233 612.586C258.523 612.586 216.812 612.586 173.838 612.586C174.214 611.058 174.59 609.53 174.977 607.956C175.219 606.664 175.449 605.378 175.656 604.081C175.712 603.736 175.769 603.391 175.827 603.036C175.944 602.315 176.061 601.594 176.177 600.873C176.353 599.779 176.532 598.684 176.711 597.59C176.826 596.884 176.941 596.178 177.055 595.472C177.108 595.149 177.161 594.827 177.215 594.496C177.546 592.427 177.8 590.362 178.013 588.278C177.637 588.405 177.262 588.532 176.875 588.663C168.581 589.788 159.291 589.992 152.345 584.684C150.218 582.893 148.294 580.883 146.365 578.877C145.076 577.538 143.786 576.316 142.334 575.159C141.694 574.524 141.061 573.88 140.436 573.23C140.113 572.909 139.79 572.589 139.458 572.259C136.263 568.935 132.83 564.353 132.331 559.597C132.501 557.803 133.016 557.264 134.245 555.987C134.431 555.79 134.617 555.592 134.81 555.389C136.184 553.955 137.642 552.621 139.108 551.285C141.482 549.119 143.429 546.736 145.307 544.121C145.703 543.583 146.128 543.067 146.555 542.555C147.513 541.341 148.061 540.589 147.962 539.001C147.69 537.878 147.336 536.865 146.889 535.802C146.758 535.492 146.628 535.181 146.493 534.86C145.848 533.328 145.848 533.328 144.612 532.33C143.848 532.27 143.083 532.233 142.318 532.205C128.319 531.586 109.948 530.707 97.9251 522.684C98.1316 520.951 98.5725 519.7 99.3959 518.174C101.668 513.71 102.164 509.357 102.111 504.409C102.106 503.531 102.101 502.654 102.097 501.776C102.087 500.414 102.077 499.051 102.064 497.689C101.996 490.052 102.429 482.544 103.194 474.949C104.068 466.173 103.66 457.367 103.239 448.577C102.386 430.757 102.647 413.812 107.781 396.6C107.924 396.119 108.067 395.638 108.215 395.143C108.344 394.718 108.473 394.293 108.606 393.855C109.29 391.639 109.29 391.639 108.944 389.447C107.914 387.992 106.883 386.666 105.611 385.419C104.338 384.17 103.775 383.224 103.49 381.422C103.174 379.503 102.721 378.012 101.792 376.303C100.503 373.862 99.9276 371.367 99.3769 368.674C98.7902 365.96 97.8112 364.921 95.6002 363.329C90.6012 359.339 88.2483 354.022 85.5892 348.305C85.2187 347.521 84.8475 346.737 84.4757 345.953C83.563 344.025 82.6588 342.093 81.7571 340.16C81.2232 339.018 80.6854 337.879 80.1463 336.74C79.8882 336.194 79.8882 336.194 79.6249 335.636C79.3028 334.954 78.9799 334.273 78.6561 333.591C77.4166 330.96 76.3845 328.305 75.5308 325.516C75.4383 325.221 75.3458 324.927 75.2505 324.624C74.2663 321.139 74.6258 318.277 76.2899 315.098C78.3096 311.801 80.6656 308.808 83.1221 305.838C83.7324 305.091 84.3413 304.344 84.9487 303.595C85.2173 303.266 85.4859 302.937 85.7627 302.599C86.5892 301.527 87.3152 300.412 88.0564 299.278C90.4522 296.006 93.0121 292.939 95.7633 289.971C96.5562 289.11 97.3191 288.241 98.0674 287.341C99.3194 285.863 100.686 284.513 102.053 283.145C103.983 281.212 105.729 279.237 107.408 277.074C108.36 275.897 109.41 274.859 110.486 273.802C111.259 272.989 111.918 272.136 112.586 271.232C114.322 268.93 115.756 267.757 118.398 266.698C121.426 265.475 123.146 263.69 125.224 261.211C127.582 258.511 130.152 255.968 132.857 253.629C133.71 252.885 134.533 252.111 135.36 251.337C137.092 249.745 138.898 248.274 140.75 246.83C141.918 245.915 143.036 244.973 144.13 243.968C145.968 242.318 147.967 240.937 149.997 239.544C150.55 239.158 150.55 239.158 151.114 238.764C152.712 237.661 154.175 236.676 155.998 235.999C155.893 235.715 155.788 235.431 155.68 235.139C155.542 234.762 155.405 234.386 155.263 233.998C155.127 233.626 154.99 233.255 154.849 232.872C154.514 231.857 154.281 230.88 154.101 229.826C153.615 229.738 153.13 229.651 152.63 229.561C147.989 228.496 144.147 225.707 141.499 221.729C139.79 219.784 137.65 219.585 135.241 219.384C132.232 219.121 132.232 219.121 130.947 218.251C131.326 216.049 132.506 214.938 134.123 213.556C136.197 212.089 138.467 211.317 140.982 211.161C142.416 211.063 142.416 211.063 143.164 209.834C143.391 209.428 143.618 209.023 143.852 208.604C145.935 206.599 147.962 206.183 150.779 206.217C151.243 206.219 151.707 206.222 152.185 206.224C153.342 206.289 153.342 206.289 154.101 206.675C153.917 208.356 153.421 209.025 152.203 210.148C151.595 211.383 151.689 212.663 151.823 214.006C152.368 215.472 152.823 215.855 154.172 216.635C157.212 217.597 159.998 217.152 162.829 215.764C165.42 214.326 167.406 212.996 168.44 210.09C168.685 209.189 168.894 208.287 169.093 207.374C170.624 201.025 173.238 195.378 178.772 191.627C179.218 190.663 179.218 190.663 179.603 189.529C180.93 186.213 182.602 183.611 185.36 181.38C188.044 179.128 190.524 177.01 191.113 173.376C191.333 170.691 191.22 168.027 191.084 165.341C191.046 163.961 191.017 162.581 190.993 161.2C190.974 160.349 190.946 159.498 190.907 158.647C190.809 156.042 190.885 153.742 192.576 151.619C194.181 149.925 196.331 149.228 198.484 148.515C199.313 148.239 199.313 148.239 200.408 147.641C201.236 145.083 200.917 141.992 200.941 139.327C200.949 138.634 200.962 137.941 200.98 137.248C201.226 132.125 201.226 132.125 199.002 127.682C198.84 127.52 198.677 127.358 198.51 127.191C196.094 127.731 194.121 128.403 192.01 129.747C190.124 130.919 188.6 131.648 186.364 131.435C184.516 130.956 183.855 130.036 182.9 128.445C182.379 127.503 181.877 126.556 181.395 125.593C180.803 124.441 180.458 123.803 179.294 123.212C178.848 123.08 178.848 123.08 178.393 122.946C177.634 122.175 177.634 122.175 177.49 121.257C177.681 119.91 178.15 119.577 179.176 118.726C179.488 118.46 179.8 118.193 180.122 117.918C180.675 117.465 181.23 117.014 181.788 116.568C183.379 115.262 184.37 113.89 185.449 112.126C185.984 111.371 185.984 111.371 187.004 110.792C188.249 109.971 188.339 109.007 188.737 107.598C189.291 105.923 190.264 104.998 191.678 104.04C192.179 104.04 192.68 104.04 193.196 104.04C193.069 103.84 192.941 103.64 192.81 103.434C192.306 102.168 192.423 101.2 192.532 99.8438C192.581 99.1529 192.581 99.1529 192.632 98.4481C192.92 96.3287 193.323 94.8714 194.856 93.3808C195.99 92.1361 196.488 91.1268 196.944 89.4983C197.89 86.2404 199.837 82.8594 202.661 80.9373C203.977 79.8862 204.093 78.853 204.322 77.1994C204.391 76.4099 204.46 75.6202 204.515 74.8295C204.587 73.8817 204.687 72.9396 204.792 71.995C205.147 68.7208 205.421 65.4458 205.484 62.1514C205.499 61.7486 205.499 61.7486 205.514 61.3377C205.519 59.9913 205.427 59.3869 204.574 58.3306C204.326 58.1351 204.079 57.9396 203.824 57.7382C203.761 58.4634 203.761 58.4634 203.698 59.2033C203.637 59.8403 203.576 60.4774 203.515 61.1144C203.489 61.4327 203.462 61.751 203.434 62.079C203.389 62.5416 203.389 62.5416 203.342 63.0135C203.316 63.2964 203.29 63.5793 203.263 63.8707C203.064 64.6835 203.064 64.6835 202.484 65.4039C201.712 66.5418 201.802 67.3453 201.828 68.7168C201.833 69.2027 201.839 69.6887 201.844 70.1893C201.861 70.9496 201.861 70.9496 201.878 71.7252C202.013 79.8228 202.013 79.8228 201.048 81.2297C200.837 81.3878 200.625 81.546 200.408 81.709C200.168 81.8915 199.928 82.0741 199.681 82.2621C199.42 82.4457 199.158 82.6292 198.889 82.8183C198.62 83.0217 198.351 83.2251 198.074 83.4347C196.267 84.746 194.301 85.9978 192.057 86.2909C190.918 85.5192 190.918 85.5192 190.652 84.4575C190.542 83.2393 190.545 82.1189 190.628 80.8996C190.657 80.4608 190.687 80.022 190.717 79.57C190.752 79.106 190.787 78.642 190.824 78.164C190.859 77.6854 190.895 77.2067 190.931 76.7136C191.162 73.764 191.435 70.824 191.82 67.8908C191.858 67.5757 191.897 67.2606 191.937 66.9359C192.332 64.1671 193.205 61.4135 195.117 59.3299C195.394 59.021 195.394 59.021 195.676 58.7059C196.236 58.1204 196.801 57.5411 197.371 56.9665C197.034 56.6084 196.698 56.2503 196.351 55.8814C194.572 53.7593 193.145 51.1363 192.959 48.3091C193.196 46.9345 193.196 46.9345 193.97 46.0814C195.387 45.2109 196.531 45.2303 198.13 45.3188C200.626 45.4574 200.626 45.4574 203.064 45.0053C203.448 44.6236 203.827 44.2375 204.203 43.8478C205.177 43.4242 205.177 43.4242 206.315 43.0519C206.721 42.9162 207.128 42.7804 207.547 42.6405C208.627 42.3407 209.594 42.2133 210.703 42.1114C213.406 41.6255 214.84 39.0235 216.349 36.9025C216.792 36.2912 217.234 35.6802 217.678 35.0697C217.846 34.825 218.014 34.5803 218.188 34.3282C218.333 34.1591 218.477 33.99 218.627 33.8157C218.877 33.8157 219.128 33.8157 219.386 33.8157C219.23 33.6198 219.075 33.4238 218.914 33.2219C218.607 32.8235 218.607 32.8235 218.295 32.417C218.092 32.1574 217.889 31.8978 217.681 31.6303C215.997 28.9794 216.086 26.0591 216.349 23.012C216.994 20.2212 218.701 18.1771 220.904 16.4526C224.312 14.3777 227.598 13.3246 231.532 12.98C231.658 11.7305 231.658 11.7305 230.607 10.7614C229.523 9.48685 229.225 8.52558 229.254 6.80647C230.161 4.66944 231.246 3.62823 233.05 2.1763C233.573 1.54709 234.085 0.908163 234.568 0.24707ZM159.438 300.219C158.028 301.049 156.983 301.331 155.358 301.4C153.326 301.501 152.578 302.115 151.064 303.523C150.493 303.74 149.914 303.94 149.332 304.126C146.662 305.114 144.843 307.204 142.861 309.194C142.334 309.696 142.334 309.696 141.43 310.37C141.227 310.53 141.025 310.689 140.816 310.854C140.816 311.108 140.816 311.363 140.816 311.625C140.605 311.716 140.393 311.807 140.175 311.901C139.086 312.516 138.303 313.285 137.4 314.158C135.914 315.559 134.415 316.824 132.774 318.04C130.341 319.858 127.661 321.876 126.392 324.744C126.478 325.953 126.478 325.953 126.891 327.276C126.96 327.532 127.03 327.788 127.102 328.052C127.267 328.651 127.435 329.249 127.606 329.847C127.961 331.096 128.3 332.35 128.639 333.604C128.902 334.565 129.165 335.527 129.429 336.488C129.555 336.95 129.681 337.412 129.81 337.887C130.802 341.43 132.028 344.561 133.889 347.726C134.122 348.125 134.355 348.523 134.595 348.934C134.856 349.374 134.856 349.374 135.122 349.824C137.026 349.697 137.026 349.697 138.538 348.667C139.79 348.794 140.293 348.907 141.195 349.824C141.948 349.876 141.948 349.876 142.714 349.438C143.049 348.902 143.382 348.364 143.71 347.823C146.158 344.542 150.282 342.449 154.101 341.336C157.589 340.954 160.629 341.527 163.938 342.541C165.088 342.932 165.088 342.932 166.247 342.879C166.431 342.427 166.615 341.975 166.804 341.509C169.262 335.599 172.405 330.036 178.013 326.673C177.537 325.705 177.064 325.566 176.115 325.13C175.997 324.069 175.997 324.069 176.115 322.815C176.96 321.979 177.722 321.419 178.772 320.886C178.625 319.873 178.414 319.368 177.751 318.583C176.506 316.921 175.645 315.1 174.716 313.241C174.307 312.444 173.899 311.647 173.49 310.851C172.778 309.456 172.087 308.055 171.423 306.637C170.087 303.754 170.087 303.754 167.774 301.7C166.637 301.323 165.518 301.073 164.349 300.822C163.495 300.4 163.495 300.4 162.783 299.954C161.209 298.979 160.895 299.273 159.438 300.219ZM309.343 304.294C309.018 304.408 308.694 304.522 308.36 304.639C304.716 306.072 303.488 309.38 302.004 312.788C300.902 315.36 300.902 315.36 299.832 317.946C298.939 320.099 298.203 321.689 296.437 323.201C296.312 323.455 296.187 323.71 296.058 323.973C296.426 324.235 296.794 324.498 297.173 324.768C298.146 325.602 298.338 325.911 298.762 327.204C298.701 329.016 298.183 329.814 297.197 331.304C297.385 331.439 297.573 331.575 297.767 331.715C302.875 335.489 306.715 340.536 308.583 346.737C308.803 346.679 309.023 346.621 309.249 346.56C320.594 343.577 320.594 343.577 326.043 346.786C328.138 348.213 330.505 350.008 331.868 352.183C332.433 352.986 332.433 352.986 333.322 353.086C333.634 353.078 333.946 353.07 334.268 353.062C334.607 353.057 334.945 353.052 335.295 353.047C335.647 353.034 336 353.021 336.363 353.008C336.72 353.001 337.077 352.994 337.444 352.986C338.326 352.968 339.206 352.943 340.087 352.911C341.862 349.28 343.206 345.599 344.441 341.752C344.739 340.823 345.042 339.896 345.345 338.969C345.54 338.369 345.735 337.768 345.929 337.168C346.018 336.896 346.106 336.624 346.197 336.343C347.402 332.581 348.163 329.823 346.326 326.095C344.182 322.305 340.523 320.106 336.984 317.778C333.766 315.617 331.228 313.205 328.866 310.065C327.508 308.289 325.998 307.375 324.025 306.362C323.007 305.838 323.007 305.838 322.119 305.23C320.818 304.521 319.513 304.306 318.073 304.077C315.236 303.612 315.236 303.612 314.009 303.064C312.334 302.461 310.869 303.578 309.343 304.294Z" fill="#3B352E"/>
<path d="M0 627.011C0 618.979 6.51127 612.467 14.5433 612.467H450.457C458.489 612.467 465 618.979 465 627.011V853.247H0V627.011Z" fill="#3C352E"/>
<path d="M202.422 724.437V751.467H195.055V740.019H185.356V740.814C185.356 743.782 183.925 745.054 181.646 745.054C178.095 745.054 173.696 740.39 173.696 737.104C173.696 735.514 174.491 734.083 177.671 734.083H177.936V724.437H172V718.501H207.298V724.437H202.422ZM195.055 724.437H185.356V734.083H195.055V724.437ZM228.357 747.916L223.269 752.633C217.545 747.757 213.305 743.57 210.708 739.913C209.012 737.634 208.323 735.938 208.323 734.136C208.323 731.91 209.86 730.479 212.245 730.479C214.047 730.479 215.531 731.221 217.121 732.599C218.817 731.433 219.559 729.896 219.559 727.829C219.559 726.61 219.347 725.444 218.976 724.437H206.574V718.501H230.742V724.437H226.29C226.661 725.656 226.926 727.087 226.926 728.889C226.926 734.083 223.693 737.369 218.499 739.383C221.414 742.245 224.7 745.054 228.357 747.916ZM241.47 724.437V751.467H234.05V724.437H229.969V718.501H246.346V724.437H241.47ZM278.832 724.437H267.755V729.313C273.426 731.698 276.235 735.885 276.235 740.655C276.235 748.393 270.299 751.467 262.137 751.467C253.074 751.467 247.403 747.068 247.403 739.595C247.403 732.599 253.233 729.048 260.388 728.836V724.437H245.548V718.501H278.832V724.437ZM261.766 745.478C266.112 745.478 268.815 743.888 268.815 740.496C268.815 737.899 267.384 735.885 264.84 734.56H263.78C258.48 734.56 254.823 735.938 254.823 739.913C254.823 743.623 257.738 745.478 261.766 745.478ZM289.501 724.437V751.467H282.081V724.437H278V718.501H281.71C279.272 713.519 275.88 709.915 270.898 709.915C267.93 709.915 266.393 711.558 266.393 714.261C266.393 715.904 266.87 717.335 267.612 718.872H260.563C259.609 717.017 259.026 714.844 259.026 712.936C259.026 707.53 262.683 703.979 269.891 703.979C279.484 703.979 285.155 710.498 288.918 718.501H294.377V724.437H289.501Z" fill="#DDC993"/>
<path d="M246.67 126.537C246.935 126.718 247.201 126.9 247.474 127.087C247.826 127.318 248.178 127.548 248.541 127.786C251.636 130.931 252.232 135.176 252.245 139.43C252.116 143.911 249.845 147.373 246.844 150.554C245.711 151.626 244.512 152.574 243.275 153.517C241.143 155.195 240.379 157.378 239.503 159.884C239.409 160.124 239.315 160.365 239.218 160.612C238.29 163.133 238.109 165.579 237.961 168.252C237.595 174.557 237.595 174.557 236.467 175.704C235.708 175.719 234.948 175.72 234.189 175.704C233.754 174.819 233.724 174.215 233.66 173.23C233.023 162.568 233.023 162.568 227.699 153.724C226.854 152.988 225.988 152.283 225.115 151.582C222.115 149.133 220.224 146.232 219.007 142.521C218.624 137.652 218.533 132.608 221.664 128.63C228.145 121.334 238.846 121.416 246.67 126.537Z" fill="#E9E9E9"/>
<path d="M235.736 138.538C237.238 138.795 238.065 139.067 239.053 140.279C239.626 141.659 239.686 142.579 239.503 144.065C238.714 145.31 238.061 145.943 236.846 146.766C235.673 146.998 234.604 146.998 233.43 146.766C232.173 145.748 231.687 145.18 231.353 143.605C231.253 142.062 231.414 140.887 232.292 139.604C233.584 138.536 234.131 138.4 235.736 138.538Z" fill="#3B352E"/>
</svg>
