<svg width="466" height="840" viewBox="0 0 466 840" fill="none" xmlns="http://www.w3.org/2000/svg">
<path d="M234.763 0C235.855 0.09497 235.855 0.09497 237.043 0.37988C237.422 1.06841 237.422 1.06841 237.802 1.8994C238.55 2.42411 239.31 2.93073 240.082 3.41892C241.174 4.36091 241.549 5.1044 241.678 6.57371C241.714 8.51547 241.711 9.81074 240.462 11.3964C240.211 11.7725 239.96 12.1486 239.702 12.536C240.005 12.5963 240.309 12.6565 240.622 12.7186C245.833 13.8256 250.633 15.3219 253.71 19.8962C255.435 22.8153 256.114 25.5058 255.277 28.8709C254.47 29.963 254.47 29.963 253.757 30.7703C253.894 32.1165 254.161 32.3103 255.244 33.2454C255.712 33.5948 256.182 33.9409 256.654 34.2842C258.229 35.4625 259.633 36.5526 260.833 38.1305C262.117 39.7317 263.625 40.1736 265.51 40.8757C268.405 42.1978 270.558 44.8046 272.572 47.209C273.119 47.8742 273.119 47.8742 273.75 48.4495C274.859 49.6312 274.776 51.1181 274.759 52.646C274.535 54.5422 273.695 56.101 272.276 57.3619C271.445 58.3124 271.494 58.9416 271.522 60.1715C271.719 62.3439 272.222 64.4683 272.68 66.5977C272.779 67.0744 272.878 67.5511 272.981 68.0423C273.272 69.4236 273.577 70.8008 273.891 72.1772C273.98 72.5786 274.07 72.9799 274.162 73.3935C274.656 75.4262 275.065 76.7682 276.716 78.1603C279.139 80.3827 280 82.3646 280.785 85.5457C281.108 86.6102 281.534 87.4531 282.082 88.4171C283.179 90.4615 283.303 92.4578 283.544 94.7385C283.813 96.3833 284.382 97.559 285.201 98.9914C285.878 100.323 286.168 101.703 286.476 103.158C286.747 104.15 286.747 104.15 287.625 104.826C288.326 105.607 288.326 105.607 288.356 106.631C287.797 108.343 286.919 109.745 285.952 111.257C285.77 111.548 285.589 111.838 285.402 112.137C284.68 113.289 283.957 114.439 283.205 115.572C283.031 115.839 282.857 116.105 282.677 116.38C282.52 116.616 282.362 116.852 282.2 117.095C281.63 118.242 281.976 119.209 282.248 120.422C282.57 122.657 282.429 124.224 281.18 126.144C279.463 128.367 277.183 130.552 274.651 131.818C274.651 137.334 274.651 142.85 274.651 148.533C276.656 149.285 278.662 150.037 280.729 150.812C282.909 152.556 283.887 153.95 284.288 156.72C284.352 157.773 284.368 158.816 284.366 159.87C284.374 160.445 284.374 160.445 284.382 161.032C284.398 162.247 284.404 163.462 284.409 164.678C284.42 165.893 284.433 167.109 284.448 168.324C284.456 169.077 284.462 169.83 284.466 170.583C284.305 175.006 284.305 175.006 286.221 178.768C287.104 179.575 288.013 180.346 288.951 181.09C289.121 181.253 289.291 181.415 289.466 181.583C289.466 181.833 289.466 182.084 289.466 182.342C289.717 182.342 289.967 182.342 290.226 182.342C290.852 183.073 291.433 183.804 292.007 184.574C292.177 184.799 292.347 185.025 292.523 185.257C293.731 186.862 294.896 188.495 296.037 190.149C296.728 191.144 297.44 192.121 298.156 193.098C298.679 193.817 299.201 194.538 299.723 195.258C300.011 195.655 300.299 196.052 300.595 196.46C303.615 200.673 305.558 204.632 306.628 209.716C307.037 211.576 307.414 212.896 308.84 214.252C312.369 216.383 316.759 217.94 320.877 217.078C322.188 216.263 322.976 215.254 323.655 213.872C323.942 211.829 323.448 210.722 322.516 208.934C322.397 207.889 322.397 207.889 322.516 207.035C323.482 206.068 323.88 206.151 325.222 206.132C327.578 206.182 329.367 206.694 331.075 208.363C331.846 209.262 332.496 210.228 333.152 211.213C334.094 211.436 334.094 211.436 335.194 211.522C338.285 211.976 341.505 213.042 343.504 215.582C344.186 216.945 344.383 217.693 344.169 219.191C343.481 219.878 342.532 219.648 341.613 219.68C337.162 219.714 337.162 219.714 333.488 221.903C332.907 222.558 332.333 223.219 331.766 223.886C329.324 226.628 326.531 228.861 322.766 229.131C322.049 229.138 321.332 229.107 320.616 229.068C320.651 229.761 320.651 229.761 320.687 230.468C320.698 231.969 320.304 232.747 319.477 234.006C319.976 235.503 320.934 236.054 322.159 236.95C323.573 238.008 324.964 239.057 326.267 240.25C327.643 241.487 329.115 242.562 330.612 243.646C333.053 245.414 335.404 247.26 337.711 249.201C338.109 249.533 338.507 249.864 338.905 250.196C341.749 252.571 344.489 255.042 347.208 257.559C349.047 259.25 350.892 260.906 352.859 262.45C354.573 263.799 356.178 265.241 357.769 266.73C358.638 267.541 359.507 268.306 360.449 269.032C360.718 269.257 360.986 269.483 361.263 269.715C361.263 269.966 361.263 270.216 361.263 270.475C361.514 270.475 361.765 270.475 362.023 270.475C362.567 271.027 362.567 271.027 363.201 271.795C364.672 273.524 366.25 275.11 367.87 276.698C368.483 277.304 369.096 277.911 369.708 278.517C370.659 279.456 371.61 280.394 372.564 281.33C376.305 285.005 379.774 288.689 382.917 292.888C383.675 293.814 384.454 294.718 385.243 295.618C385.628 296.063 386.013 296.509 386.398 296.955C386.581 297.167 386.764 297.38 386.953 297.598C400.427 313.28 400.427 313.28 400.13 320.573C399.463 327.237 396.21 332.889 393.056 338.662C391.805 340.953 390.576 343.251 389.389 345.577C389.265 345.82 389.14 346.064 389.012 346.316C388.524 347.27 388.038 348.224 387.557 349.181C385.954 352.368 384.181 355.293 382.157 358.227C381.846 358.709 381.537 359.191 381.231 359.675C380.484 360.748 379.679 361.25 378.572 361.931C376.213 363.656 375.833 366.259 375.092 368.942C374.543 370.916 373.703 372.68 372.798 374.514C372.229 375.818 371.887 377.099 371.544 378.479C370.897 380.914 369.942 382.369 368.101 384.059C366.336 385.771 366.336 385.771 365.062 387.858C365.346 389.116 365.697 390.101 366.202 391.276C371.88 405.083 372.33 419.702 372.29 434.427C372.289 434.798 372.288 435.169 372.287 435.551C372.277 439.043 372.263 442.535 372.243 446.027C372.133 458.371 372.133 458.371 373.04 470.671C373.074 470.965 373.108 471.26 373.143 471.563C373.411 473.822 373.733 476.073 374.056 478.325C374.701 483.015 374.627 487.147 373.799 491.802C372.463 500.004 372.535 507.953 376.459 515.497C377.281 517.59 377.281 517.59 376.838 518.916C374.934 520.106 372.901 520.763 370.76 521.409C370.516 521.484 370.271 521.559 370.018 521.637C365.016 523.084 359.755 523.751 354.615 524.543C354.309 524.591 354.003 524.638 353.688 524.687C345.222 525.992 336.717 527.01 328.214 528.033C326.78 531.939 326.78 531.939 326.694 536.011C327.231 536.982 327.905 537.748 328.665 538.551C328.848 538.757 329.032 538.963 329.221 539.175C330.361 540.444 331.564 541.644 332.772 542.849C333.366 543.446 333.96 544.044 334.553 544.643C335.226 545.319 335.898 545.995 336.571 546.671C336.909 547.012 337.247 547.353 337.595 547.705C337.923 548.034 338.251 548.363 338.589 548.703C338.886 549.001 339.182 549.299 339.487 549.606C340.371 550.472 340.371 550.472 341.407 551.267C342.269 551.966 342.269 551.966 342.649 552.725C342.988 556.452 341.528 560.067 339.23 562.982C336.92 565.548 334.351 567.707 331.633 569.82C330.95 570.372 330.27 570.926 329.591 571.482C329.066 571.91 329.066 571.91 328.53 572.347C327.809 572.945 327.096 573.551 326.39 574.166C318.839 580.696 311.678 584.057 301.622 583.496C300.303 583.326 299.11 583.079 297.823 582.736C298.025 586.854 298.509 590.87 299.153 594.94C299.24 595.502 299.326 596.063 299.413 596.625C299.736 598.715 300.068 600.796 300.483 602.87C258.738 602.87 216.993 602.87 173.983 602.87C174.359 601.365 174.735 599.861 175.122 598.311C175.365 597.039 175.594 595.773 175.802 594.496C175.858 594.156 175.915 593.817 175.973 593.467C176.091 592.758 176.207 592.048 176.323 591.338C176.5 590.26 176.679 589.183 176.858 588.105C176.973 587.41 177.088 586.715 177.203 586.02C177.255 585.703 177.308 585.386 177.362 585.059C177.693 583.023 177.948 580.989 178.161 578.937C177.785 579.063 177.409 579.188 177.022 579.317C168.721 580.424 159.424 580.625 152.472 575.4C150.343 573.636 148.418 571.657 146.487 569.682C145.197 568.364 143.906 567.161 142.452 566.021C141.811 565.396 141.178 564.763 140.553 564.122C140.23 563.807 139.907 563.491 139.574 563.166C136.376 559.894 132.94 555.383 132.441 550.7C132.612 548.934 133.127 548.403 134.356 547.146C134.543 546.952 134.729 546.758 134.922 546.557C136.298 545.146 137.756 543.832 139.223 542.516C141.6 540.384 143.548 538.038 145.428 535.463C145.824 534.934 146.249 534.426 146.677 533.921C147.635 532.726 148.185 531.986 148.085 530.422C147.813 529.317 147.458 528.32 147.011 527.273C146.88 526.967 146.75 526.661 146.615 526.346C145.97 524.838 145.97 524.838 144.732 523.855C143.968 523.796 143.202 523.759 142.436 523.731C128.425 523.122 110.039 522.257 98.0065 514.358C98.2132 512.651 98.6545 511.42 99.4785 509.918C101.752 505.523 102.249 501.237 102.196 496.365C102.191 495.501 102.186 494.637 102.181 493.774C102.172 492.432 102.162 491.091 102.149 489.749C102.081 482.23 102.514 474.839 103.28 467.362C104.154 458.721 103.747 450.051 103.325 441.397C102.472 423.852 102.732 407.169 107.87 390.223C108.014 389.75 108.157 389.277 108.305 388.789C108.434 388.371 108.563 387.952 108.696 387.521C109.381 385.339 109.381 385.339 109.035 383.182C108.004 381.748 106.972 380.443 105.699 379.215C104.425 377.986 103.862 377.055 103.576 375.28C103.26 373.391 102.807 371.923 101.877 370.241C100.587 367.837 100.011 365.381 99.4595 362.73C98.8723 360.057 97.8926 359.035 95.6797 357.467C90.6765 353.539 88.3217 348.304 85.6604 342.676C85.2895 341.903 84.9181 341.132 84.546 340.36C83.6325 338.462 82.7275 336.56 81.8251 334.656C81.2908 333.533 80.7525 332.411 80.213 331.29C79.9547 330.752 79.9547 330.752 79.6912 330.203C79.3688 329.531 79.0456 328.86 78.7215 328.189C77.481 325.598 76.448 322.985 75.5936 320.239C75.501 319.949 75.4085 319.659 75.3131 319.36C74.328 315.929 74.6878 313.112 76.3533 309.982C78.3747 306.736 80.7327 303.789 83.1912 300.865C83.802 300.13 84.4115 299.394 85.0194 298.657C85.2882 298.333 85.557 298.01 85.834 297.676C86.6612 296.621 87.3878 295.523 88.1296 294.407C90.5274 291.185 93.0894 288.166 95.843 285.244C96.6365 284.396 97.4 283.541 98.149 282.654C99.402 281.199 100.77 279.87 102.138 278.523C104.069 276.62 105.816 274.676 107.498 272.546C108.45 271.387 109.501 270.366 110.578 269.325C111.352 268.524 112.011 267.684 112.679 266.794C114.417 264.528 115.853 263.373 118.496 262.331C121.527 261.126 123.248 259.369 125.328 256.928C127.689 254.27 130.26 251.766 132.967 249.464C133.821 248.731 134.644 247.969 135.472 247.207C137.206 245.639 139.014 244.192 140.867 242.77C142.035 241.869 143.155 240.941 144.249 239.952C146.089 238.328 148.09 236.968 150.121 235.597C150.675 235.217 150.675 235.217 151.239 234.829C152.839 233.742 154.303 232.773 156.128 232.107C156.023 231.827 155.918 231.547 155.809 231.259C155.672 230.889 155.534 230.518 155.392 230.136C155.256 229.77 155.119 229.404 154.978 229.028C154.642 228.028 154.409 227.066 154.229 226.029C153.743 225.942 153.257 225.856 152.757 225.767C148.112 224.719 144.267 221.974 141.617 218.057C139.906 216.142 137.764 215.946 135.353 215.748C132.342 215.49 132.342 215.49 131.056 214.632C131.435 212.465 132.616 211.37 134.235 210.01C136.31 208.566 138.582 207.806 141.099 207.652C142.534 207.556 142.534 207.556 143.283 206.346C143.511 205.947 143.738 205.547 143.972 205.135C146.056 203.161 148.085 202.752 150.905 202.785C151.369 202.787 151.833 202.79 152.312 202.792C153.469 202.856 153.469 202.856 154.229 203.236C154.045 204.89 153.549 205.55 152.329 206.655C151.721 207.871 151.815 209.131 151.949 210.454C152.495 211.897 152.951 212.274 154.3 213.041C157.343 213.989 160.131 213.551 162.965 212.184C165.558 210.768 167.545 209.459 168.58 206.598C168.826 205.711 169.035 204.823 169.234 203.924C170.766 197.674 173.382 192.113 178.921 188.421C179.367 187.471 179.367 187.471 179.752 186.355C181.081 183.091 182.754 180.529 185.515 178.332C188.2 176.115 190.682 174.029 191.272 170.451C191.492 167.809 191.379 165.185 191.243 162.541C191.205 161.182 191.176 159.824 191.152 158.464C191.133 157.626 191.105 156.788 191.065 155.95C190.967 153.386 191.044 151.122 192.736 149.031C194.342 147.363 196.494 146.677 198.649 145.975C199.478 145.703 199.478 145.703 200.574 145.114C201.403 142.596 201.084 139.553 201.108 136.93C201.116 136.247 201.129 135.565 201.147 134.883C201.393 129.838 201.393 129.838 199.167 125.465C199.005 125.305 198.842 125.145 198.675 124.981C196.257 125.512 194.282 126.175 192.169 127.497C190.282 128.651 188.756 129.369 186.519 129.159C184.669 128.688 184.008 127.782 183.052 126.215C182.53 125.288 182.029 124.356 181.546 123.408C180.953 122.274 180.608 121.646 179.443 121.063C178.997 120.934 178.997 120.934 178.541 120.802C177.781 120.042 177.781 120.042 177.637 119.138C177.829 117.813 178.298 117.485 179.325 116.647C179.637 116.384 179.949 116.122 180.271 115.852C180.825 115.406 181.381 114.962 181.939 114.522C183.532 113.237 184.523 111.885 185.603 110.149C186.139 109.405 186.139 109.405 187.16 108.836C188.406 108.027 188.495 107.078 188.894 105.691C189.448 104.042 190.422 103.131 191.837 102.188C192.338 102.188 192.84 102.188 193.356 102.188C193.229 101.991 193.102 101.794 192.971 101.591C192.466 100.345 192.583 99.3915 192.692 98.0565C192.742 97.3764 192.742 97.3764 192.793 96.6824C193.081 94.5958 193.484 93.161 195.018 91.6935C196.153 90.4681 196.651 89.4743 197.108 87.871C198.055 84.6636 200.003 81.3348 202.83 79.4424C204.147 78.4076 204.263 77.3904 204.492 75.7623C204.561 74.985 204.63 74.2075 204.685 73.4291C204.758 72.4959 204.857 71.5684 204.962 70.6384C205.317 67.4149 205.592 64.1905 205.655 60.947C205.67 60.5504 205.67 60.5504 205.685 60.1459C205.69 58.8203 205.598 58.2253 204.744 57.1853C204.496 56.9929 204.248 56.8004 203.993 56.6021C203.931 57.3161 203.931 57.3161 203.867 58.0445C203.806 58.6717 203.745 59.2989 203.684 59.9261C203.658 60.2395 203.631 60.5529 203.604 60.8758C203.558 61.3312 203.558 61.3312 203.511 61.7958C203.485 62.0743 203.459 62.3528 203.432 62.6398C203.233 63.44 203.233 63.44 202.652 64.1493C201.88 65.2695 201.97 66.0606 201.996 67.4109C202.001 67.8893 202.006 68.3678 202.012 68.8607C202.029 69.6092 202.029 69.6092 202.046 70.3728C202.181 78.3452 202.181 78.3451 201.215 79.7303C201.004 79.886 200.792 80.0417 200.574 80.2022C200.334 80.3819 200.094 80.5616 199.847 80.7468C199.586 80.9275 199.324 81.1082 199.055 81.2943C198.785 81.4946 198.516 81.6949 198.238 81.9012C196.43 83.1922 194.462 84.4247 192.217 84.7132C191.077 83.9535 191.077 83.9535 190.81 82.9082C190.7 81.7089 190.703 80.6058 190.786 79.4053C190.816 78.9733 190.845 78.5413 190.876 78.0962C190.911 77.6394 190.946 77.1827 190.982 76.712C191.018 76.2408 191.053 75.7696 191.09 75.284C191.321 72.3801 191.595 69.4855 191.979 66.5977C192.018 66.2875 192.056 65.9772 192.096 65.6576C192.492 62.9316 193.366 60.2205 195.28 58.1691C195.556 57.865 195.556 57.865 195.839 57.5548C196.399 56.9784 196.964 56.4081 197.535 55.8424C197.198 55.4898 196.861 55.1372 196.514 54.774C194.734 52.6847 193.306 50.1023 193.119 47.3188C193.356 45.9655 193.356 45.9655 194.131 45.1256C195.55 44.2685 196.694 44.2876 198.295 44.3747C200.793 44.5112 200.793 44.5112 203.233 44.0661C203.617 43.6903 203.997 43.3101 204.373 42.9264C205.348 42.5095 205.348 42.5095 206.486 42.1429C206.893 42.0093 207.3 41.8756 207.719 41.7378C208.801 41.4427 209.768 41.3173 210.878 41.217C213.584 40.7385 215.019 38.1767 216.529 36.0886C216.972 35.4868 217.415 34.8852 217.859 34.2842C218.027 34.0432 218.196 33.8023 218.369 33.5541C218.514 33.3876 218.659 33.2211 218.808 33.0496C219.059 33.0496 219.31 33.0496 219.568 33.0496C219.412 32.8566 219.257 32.6637 219.096 32.4649C218.789 32.0727 218.789 32.0727 218.476 31.6725C218.273 31.4169 218.071 31.1613 217.862 30.8979C216.177 28.288 216.266 25.4128 216.529 22.4129C217.174 19.6652 218.882 17.6527 221.088 15.955C224.498 13.9121 227.787 12.8753 231.724 12.536C231.85 11.3059 231.85 11.3059 230.798 10.3517C229.714 9.09689 229.415 8.15049 229.445 6.45796C230.352 4.35398 231.438 3.32887 233.244 1.8994C233.767 1.27992 234.28 0.65087 234.763 0ZM159.571 295.333C158.159 296.15 157.113 296.427 155.487 296.496C153.454 296.595 152.705 297.2 151.19 298.586C150.618 298.8 150.039 298.996 149.457 299.179C146.784 300.153 144.963 302.21 142.98 304.17C142.452 304.664 142.452 304.664 141.547 305.327C141.345 305.484 141.142 305.641 140.933 305.803C140.933 306.054 140.933 306.305 140.933 306.563C140.721 306.653 140.51 306.742 140.292 306.835C139.202 307.44 138.418 308.197 137.514 309.056C136.027 310.436 134.527 311.681 132.884 312.879C130.45 314.668 127.767 316.655 126.498 319.479C126.583 320.669 126.583 320.669 126.996 321.972C127.066 322.224 127.136 322.476 127.208 322.736C127.372 323.326 127.541 323.914 127.712 324.503C128.068 325.733 128.407 326.967 128.746 328.202C129.009 329.148 129.272 330.095 129.537 331.042C129.663 331.496 129.789 331.951 129.918 332.419C130.911 335.907 132.137 338.989 134 342.106C134.233 342.498 134.466 342.89 134.706 343.294C134.968 343.728 134.968 343.728 135.235 344.171C137.14 344.046 137.14 344.046 138.654 343.032C139.906 343.157 140.41 343.268 141.313 344.171C142.066 344.222 142.066 344.222 142.832 343.791C143.168 343.263 143.502 342.734 143.83 342.201C146.28 338.971 150.407 336.91 154.229 335.814C157.72 335.438 160.763 336.002 164.074 337.001C165.225 337.385 165.225 337.385 166.385 337.333C166.569 336.888 166.753 336.443 166.943 335.985C169.402 330.166 172.548 324.689 178.161 321.379C177.684 320.425 177.211 320.288 176.262 319.859C176.143 318.814 176.143 318.814 176.262 317.58C177.107 316.757 177.87 316.206 178.921 315.68C178.773 314.683 178.563 314.186 177.899 313.413C176.652 311.777 175.791 309.984 174.861 308.154C174.452 307.369 174.043 306.585 173.634 305.8C172.921 304.427 172.231 303.048 171.565 301.651C170.229 298.813 170.229 298.813 167.913 296.792C166.776 296.42 165.655 296.173 164.486 295.927C163.631 295.511 163.631 295.511 162.919 295.072C161.343 294.113 161.029 294.402 159.571 295.333ZM309.6 299.345C309.275 299.458 308.95 299.57 308.616 299.685C304.97 301.095 303.74 304.353 302.255 307.708C301.152 310.24 301.152 310.24 300.081 312.786C299.187 314.906 298.451 316.471 296.684 317.96C296.558 318.21 296.433 318.461 296.304 318.719C296.672 318.978 297.04 319.236 297.42 319.503C298.393 320.324 298.586 320.628 299.011 321.901C298.949 323.684 298.431 324.471 297.444 325.937C297.632 326.071 297.821 326.204 298.015 326.342C303.127 330.057 306.97 335.027 308.84 341.132C309.06 341.075 309.279 341.017 309.506 340.958C320.86 338.021 320.86 338.021 326.314 341.18C328.411 342.584 330.78 344.352 332.144 346.493C332.71 347.284 332.71 347.284 333.599 347.383C333.912 347.375 334.224 347.367 334.546 347.359C334.885 347.354 335.224 347.349 335.573 347.344C335.926 347.331 336.279 347.318 336.642 347.305C337 347.298 337.357 347.292 337.725 347.285C338.607 347.267 339.488 347.242 340.37 347.21C342.146 343.635 343.491 340.011 344.727 336.223C345.026 335.309 345.328 334.396 345.632 333.483C345.827 332.893 346.022 332.302 346.217 331.711C346.305 331.443 346.394 331.175 346.485 330.899C347.691 327.194 348.452 324.48 346.614 320.809C344.469 317.078 340.806 314.912 337.264 312.621C334.043 310.493 331.503 308.118 329.14 305.027C327.781 303.278 326.269 302.378 324.295 301.381C323.275 300.865 323.275 300.865 322.387 300.267C321.084 299.569 319.779 299.357 318.337 299.132C315.498 298.673 315.498 298.673 314.27 298.135C312.593 297.541 311.127 298.641 309.6 299.345Z" fill="#3B352E"/>
<path d="M247.635 119.5C247.9 119.679 248.165 119.857 248.439 120.042C248.791 120.269 249.144 120.496 249.507 120.73C252.604 123.827 253.201 128.006 253.214 132.194C253.085 136.606 250.812 140.014 247.808 143.146C246.675 144.202 245.475 145.135 244.236 146.063C242.103 147.715 241.338 149.865 240.461 152.331C240.367 152.568 240.273 152.805 240.176 153.049C239.247 155.53 239.066 157.939 238.918 160.57C238.551 166.778 238.551 166.778 237.422 167.906C236.663 167.922 235.903 167.923 235.143 167.906C234.708 167.036 234.677 166.441 234.613 165.471C233.976 154.974 233.976 154.974 228.648 146.267C227.802 145.542 226.936 144.848 226.062 144.158C223.059 141.747 221.166 138.891 219.948 135.237C219.565 130.444 219.474 125.477 222.607 121.561C229.094 114.378 239.804 114.459 247.635 119.5Z" fill="#E9E9E9"/>
<path d="M236.691 131.318C238.195 131.571 239.022 131.839 240.01 133.031C240.584 134.39 240.644 135.296 240.462 136.759C239.672 137.985 239.018 138.608 237.802 139.418C236.628 139.647 235.558 139.647 234.384 139.418C233.125 138.416 232.639 137.857 232.305 136.306C232.204 134.787 232.365 133.631 233.244 132.367C234.538 131.315 235.085 131.181 236.691 131.318Z" fill="#3B352E"/>
<path d="M0 617.297C0 609.265 6.51127 602.754 14.5433 602.754H450.843C458.875 602.754 465.386 609.265 465.386 617.297V839.81H0V617.297Z" fill="#3C352E"/>
<path d="M191.308 696.548V723.578H183.941V712.13H174.242V712.925C174.242 715.893 172.811 717.165 170.532 717.165C166.981 717.165 162.582 712.501 162.582 709.215C162.582 707.625 163.377 706.194 166.557 706.194H166.822V696.548H160.886V690.612H196.184V696.548H191.308ZM183.941 696.548H174.242V706.194H183.941V696.548ZM217.243 720.027L212.155 724.744C206.431 719.868 202.191 715.681 199.594 712.024C197.898 709.745 197.209 708.049 197.209 706.247C197.209 704.021 198.746 702.59 201.131 702.59C202.933 702.59 204.417 703.332 206.007 704.71C207.703 703.544 208.445 702.007 208.445 699.94C208.445 698.721 208.233 697.555 207.862 696.548H195.46V690.612H219.628V696.548H215.176C215.547 697.767 215.812 699.198 215.812 701C215.812 706.194 212.579 709.48 207.385 711.494C210.3 714.356 213.586 717.165 217.243 720.027ZM230.356 696.548V723.578H222.936V696.548H218.855V690.612H235.232V696.548H230.356ZM267.718 696.548H256.641V701.424C262.312 703.809 265.121 707.996 265.121 712.766C265.121 720.504 259.185 723.578 251.023 723.578C241.96 723.578 236.289 719.179 236.289 711.706C236.289 704.71 242.119 701.159 249.274 700.947V696.548H234.434V690.612H267.718V696.548ZM250.652 717.589C254.998 717.589 257.701 715.999 257.701 712.607C257.701 710.01 256.27 707.996 253.726 706.671H252.666C247.366 706.671 243.709 708.049 243.709 712.024C243.709 715.734 246.624 717.589 250.652 717.589ZM278.387 696.548V723.578H270.967V696.548H266.886V690.612H270.596C268.158 685.63 264.766 682.026 259.784 682.026C256.816 682.026 255.279 683.669 255.279 686.372C255.279 688.015 255.756 689.446 256.498 690.983H249.449C248.495 689.128 247.912 686.955 247.912 685.047C247.912 679.641 251.569 676.09 258.777 676.09C268.37 676.09 274.041 682.609 277.804 690.612H283.263V696.548H278.387Z" fill="#DDC993"/>
</svg>
