<svg width="466" height="853" viewBox="0 0 466 853" fill="none" xmlns="http://www.w3.org/2000/svg">
<g clip-path="url(#clip0_606_168)">
<path d="M234.763 12.6523C235.855 12.7473 235.855 12.7473 237.043 13.0322C237.422 13.7208 237.422 13.7208 237.802 14.5517C238.55 15.0764 239.31 15.5831 240.082 16.0713C241.174 17.0133 241.549 17.7567 241.678 19.226C241.714 21.1678 241.711 22.4631 240.462 24.0487C240.211 24.4248 239.96 24.8009 239.702 25.1884C240.005 25.2486 240.309 25.3088 240.622 25.3709C245.833 26.478 250.633 27.9742 253.71 32.5486C255.435 35.4676 256.114 38.1581 255.277 41.5232C254.47 42.6154 254.47 42.6154 253.757 43.4226C253.894 44.7689 254.161 44.9627 255.244 45.8978C255.712 46.2471 256.182 46.5932 256.654 46.9365C258.229 48.1149 259.633 49.205 260.833 50.7828C262.117 52.3841 263.625 52.826 265.51 53.528C268.405 54.8501 270.558 57.4569 272.572 59.8613C273.119 60.5265 273.119 60.5265 273.75 61.1019C274.859 62.2836 274.776 63.7705 274.759 65.2984C274.535 67.1945 273.695 68.7533 272.276 70.0142C271.445 70.9647 271.494 71.5939 271.522 72.8238C271.719 74.9963 272.222 77.1207 272.68 79.2501C272.779 79.7268 272.878 80.2035 272.981 80.6946C273.272 82.0759 273.577 83.4531 273.891 84.8296C273.98 85.2309 274.07 85.6323 274.162 86.0458C274.656 88.0786 275.065 89.4205 276.716 90.8127C279.139 93.035 280 95.017 280.785 98.1981C281.108 99.2625 281.534 100.105 282.082 101.069C283.179 103.114 283.303 105.11 283.544 107.391C283.813 109.036 284.382 110.211 285.201 111.644C285.878 112.975 286.168 114.356 286.476 115.811C286.747 116.802 286.747 116.802 287.625 117.478C288.326 118.259 288.326 118.259 288.356 119.283C287.797 120.996 286.919 122.398 285.952 123.91C285.77 124.2 285.589 124.49 285.402 124.79C284.68 125.942 283.957 127.092 283.205 128.225C283.031 128.491 282.857 128.758 282.677 129.032C282.52 129.268 282.362 129.504 282.2 129.747C281.63 130.895 281.976 131.861 282.248 133.074C282.57 135.309 282.429 136.877 281.18 138.796C279.463 141.019 277.183 143.205 274.651 144.471C274.651 149.987 274.651 155.502 274.651 161.185C276.656 161.938 278.662 162.69 280.729 163.465C282.909 165.209 283.887 166.603 284.288 169.372C284.352 170.425 284.368 171.468 284.366 172.522C284.374 173.098 284.374 173.098 284.382 173.684C284.398 174.9 284.404 176.115 284.409 177.33C284.42 178.546 284.433 179.761 284.448 180.977C284.456 181.73 284.462 182.483 284.466 183.236C284.305 187.658 284.305 187.658 286.221 191.42C287.104 192.227 288.013 192.999 288.951 193.742C289.121 193.905 289.291 194.068 289.466 194.235C289.466 194.486 289.466 194.736 289.466 194.995C289.717 194.995 289.967 194.995 290.226 194.995C290.852 195.725 291.433 196.456 292.007 197.227C292.177 197.452 292.347 197.677 292.523 197.909C293.731 199.515 294.896 201.147 296.037 202.802C296.728 203.796 297.44 204.773 298.156 205.75C298.679 206.47 299.201 207.19 299.723 207.911C300.011 208.307 300.299 208.704 300.595 209.113C303.615 213.325 305.558 217.285 306.628 222.368C307.037 224.229 307.414 225.548 308.84 226.905C312.369 229.036 316.759 230.592 320.877 229.73C322.188 228.915 322.976 227.906 323.655 226.525C323.942 224.481 323.448 223.374 322.516 221.586C322.397 220.542 322.397 220.542 322.516 219.687C323.482 218.721 323.88 218.803 325.222 218.785C327.578 218.834 329.367 219.346 331.075 221.015C331.846 221.914 332.496 222.881 333.152 223.866C334.094 224.088 334.094 224.088 335.194 224.174C338.285 224.628 341.505 225.695 343.504 228.234C344.186 229.597 344.383 230.346 344.169 231.843C343.481 232.531 342.532 232.3 341.613 232.333C337.162 232.366 337.162 232.366 333.488 234.556C332.907 235.211 332.333 235.872 331.766 236.538C329.324 239.281 326.531 241.514 322.766 241.784C322.049 241.79 321.332 241.759 320.616 241.72C320.651 242.413 320.651 242.413 320.687 243.121C320.698 244.622 320.304 245.399 319.477 246.658C319.976 248.155 320.934 248.707 322.159 249.603C323.573 250.66 324.964 251.709 326.267 252.903C327.643 254.139 329.115 255.214 330.612 256.298C333.053 258.067 335.404 259.912 337.711 261.854C338.109 262.185 338.507 262.517 338.905 262.848C341.749 265.223 344.489 267.694 347.208 270.211C349.047 271.902 350.892 273.558 352.859 275.102C354.573 276.451 356.178 277.893 357.769 279.383C358.638 280.194 359.507 280.958 360.449 281.685C360.718 281.91 360.986 282.135 361.263 282.367C361.263 282.618 361.263 282.869 361.263 283.127C361.514 283.127 361.765 283.127 362.023 283.127C362.567 283.68 362.567 283.68 363.201 284.447C364.672 286.176 366.25 287.762 367.87 289.35C368.483 289.957 369.096 290.563 369.708 291.17C370.659 292.108 371.61 293.046 372.564 293.982C376.305 297.658 379.774 301.341 382.917 305.54C383.675 306.466 384.454 307.37 385.243 308.27C385.628 308.716 386.013 309.161 386.398 309.607C386.581 309.82 386.764 310.032 386.953 310.251C400.427 325.932 400.427 325.932 400.13 333.225C399.463 339.889 396.21 345.541 393.056 351.314C391.805 353.606 390.576 355.903 389.389 358.229C389.265 358.473 389.14 358.717 389.012 358.968C388.524 359.922 388.038 360.876 387.557 361.833C385.954 365.021 384.181 367.946 382.157 370.879C381.846 371.361 381.537 371.843 381.231 372.328C380.484 373.4 379.679 373.902 378.572 374.583C376.213 376.309 375.833 378.912 375.092 381.595C374.543 383.569 373.703 385.332 372.798 387.167C372.229 388.471 371.887 389.752 371.544 391.132C370.897 393.567 369.942 395.021 368.101 396.711C366.336 398.424 366.336 398.424 365.062 400.51C365.346 401.769 365.697 402.753 366.202 403.929C371.88 417.736 372.33 432.354 372.29 447.079C372.289 447.45 372.288 447.821 372.287 448.203C372.277 451.695 372.263 455.187 372.243 458.679C372.133 471.023 372.133 471.023 373.04 483.324C373.074 483.618 373.108 483.912 373.143 484.215C373.411 486.474 373.733 488.725 374.056 490.977C374.701 495.667 374.627 499.8 373.799 504.455C372.463 512.657 372.535 520.606 376.459 528.15C377.281 530.242 377.281 530.242 376.838 531.568C374.934 532.759 372.901 533.415 370.76 534.061C370.516 534.137 370.271 534.212 370.018 534.289C365.016 535.737 359.755 536.404 354.615 537.195C354.309 537.243 354.003 537.29 353.688 537.339C345.222 538.644 336.717 539.663 328.214 540.686C326.78 544.591 326.78 544.591 326.694 548.663C327.231 549.634 327.905 550.4 328.665 551.204C328.848 551.409 329.032 551.615 329.221 551.828C330.361 553.096 331.564 554.297 332.772 555.501C333.366 556.099 333.96 556.697 334.553 557.295C335.226 557.971 335.898 558.647 336.571 559.323C336.909 559.665 337.247 560.006 337.595 560.357C337.923 560.686 338.251 561.016 338.589 561.355C338.886 561.653 339.182 561.951 339.487 562.259C340.371 563.124 340.371 563.124 341.407 563.92C342.269 564.618 342.269 564.618 342.649 565.378C342.988 569.104 341.528 572.719 339.23 575.635C336.92 578.2 334.351 580.36 331.633 582.472C330.95 583.024 330.27 583.578 329.591 584.134C329.066 584.563 329.066 584.563 328.53 585C327.809 585.597 327.096 586.204 326.39 586.819C318.839 593.348 311.678 596.709 301.622 596.148C300.303 595.978 299.11 595.731 297.823 595.388C298.025 599.507 298.509 603.522 299.153 607.592C299.24 608.154 299.326 608.716 299.413 609.278C299.736 611.367 300.068 613.448 300.483 615.522C258.738 615.522 216.993 615.522 173.983 615.522C174.359 614.018 174.735 612.513 175.122 610.963C175.365 609.691 175.594 608.426 175.802 607.148C175.858 606.809 175.915 606.469 175.973 606.119C176.091 605.41 176.207 604.7 176.323 603.991C176.5 602.913 176.679 601.835 176.858 600.758C176.973 600.063 177.088 599.367 177.203 598.672C177.255 598.355 177.308 598.038 177.362 597.711C177.693 595.675 177.948 593.642 178.161 591.59C177.785 591.715 177.409 591.84 177.022 591.969C168.721 593.077 159.424 593.277 152.472 588.052C150.343 586.288 148.418 584.309 146.487 582.334C145.197 581.016 143.906 579.813 142.452 578.674C141.811 578.049 141.178 577.415 140.553 576.774C140.23 576.459 139.907 576.143 139.574 575.819C136.376 572.547 132.94 568.035 132.441 563.352C132.612 561.587 133.127 561.056 134.356 559.798C134.543 559.604 134.729 559.41 134.922 559.21C136.298 557.798 137.756 556.484 139.223 555.169C141.6 553.036 143.548 550.69 145.428 548.116C145.824 547.586 146.249 547.078 146.677 546.574C147.635 545.379 148.185 544.638 148.085 543.075C147.813 541.969 147.458 540.972 147.011 539.926C146.88 539.62 146.75 539.314 146.615 538.998C145.97 537.49 145.97 537.49 144.732 536.507C143.968 536.448 143.202 536.411 142.436 536.384C128.425 535.774 110.039 534.91 98.0065 527.01C98.2132 525.304 98.6545 524.073 99.4785 522.57C101.752 518.175 102.249 513.89 102.196 509.018C102.191 508.154 102.186 507.29 102.181 506.426C102.172 505.084 102.162 503.743 102.149 502.402C102.081 494.883 102.514 487.491 103.28 480.014C104.154 471.373 103.747 462.703 103.325 454.049C102.472 436.504 102.732 419.822 107.87 402.876C108.014 402.402 108.157 401.929 108.305 401.442C108.434 401.023 108.563 400.605 108.696 400.173C109.381 397.991 109.381 397.991 109.035 395.834C108.004 394.401 106.972 393.095 105.699 391.868C104.425 390.638 103.862 389.707 103.576 387.932C103.26 386.043 102.807 384.575 101.877 382.893C100.587 380.49 100.011 378.034 99.4595 375.382C98.8723 372.71 97.8926 371.687 95.6797 370.119C90.6765 366.191 88.3217 360.956 85.6604 355.328C85.2895 354.556 84.9181 353.784 84.546 353.012C83.6325 351.114 82.7275 349.212 81.8251 347.309C81.2908 346.185 80.7525 345.063 80.213 343.942C79.9547 343.404 79.9547 343.404 79.6912 342.855C79.3688 342.184 79.0456 341.512 78.7215 340.842C77.481 338.251 76.448 335.637 75.5936 332.891C75.501 332.601 75.4085 332.311 75.3131 332.013C74.328 328.582 74.6878 325.764 76.3533 322.634C78.3747 319.388 80.7327 316.441 83.1912 313.517C83.802 312.783 84.4115 312.047 85.0194 311.309C85.2882 310.986 85.557 310.662 85.834 310.328C86.6612 309.273 87.3878 308.176 88.1296 307.059C90.5274 303.837 93.0894 300.818 95.843 297.896C96.6365 297.049 97.4 296.193 98.149 295.307C99.402 293.851 100.77 292.522 102.138 291.176C104.069 289.272 105.816 287.328 107.498 285.198C108.45 284.039 109.501 283.018 110.578 281.977C111.352 281.177 112.011 280.336 112.679 279.447C114.417 277.181 115.853 276.026 118.496 274.983C121.527 273.779 123.248 272.021 125.328 269.58C127.689 266.923 130.26 264.418 132.967 262.116C133.821 261.383 134.644 260.621 135.472 259.859C137.206 258.292 139.014 256.844 140.867 255.422C142.035 254.521 143.155 253.594 144.249 252.604C146.089 250.98 148.09 249.62 150.121 248.249C150.675 247.869 150.675 247.869 151.239 247.481C152.839 246.395 154.303 245.425 156.128 244.759C156.023 244.479 155.918 244.2 155.809 243.912C155.672 243.541 155.534 243.17 155.392 242.788C155.256 242.423 155.119 242.057 154.978 241.68C154.642 240.68 154.409 239.718 154.229 238.681C153.743 238.595 153.257 238.509 152.757 238.42C148.112 237.371 144.267 234.626 141.617 230.709C139.906 228.794 137.764 228.598 135.353 228.4C132.342 228.142 132.342 228.142 131.056 227.285C131.435 225.117 132.616 224.023 134.235 222.662C136.31 221.218 138.582 220.459 141.099 220.304C142.534 220.209 142.534 220.209 143.283 218.998C143.511 218.599 143.738 218.199 143.972 217.788C146.056 215.813 148.085 215.404 150.905 215.437C151.369 215.439 151.833 215.442 152.312 215.444C153.469 215.508 153.469 215.508 154.229 215.888C154.045 217.543 153.549 218.202 152.329 219.307C151.721 220.523 151.815 221.783 151.949 223.106C152.495 224.549 152.951 224.926 154.3 225.694C157.343 226.642 160.131 226.203 162.965 224.836C165.558 223.42 167.545 222.111 168.58 219.25C168.826 218.363 169.035 217.475 169.234 216.577C170.766 210.326 173.382 204.765 178.921 201.073C179.367 200.124 179.367 200.124 179.752 199.007C181.081 195.743 182.754 193.181 185.515 190.984C188.2 188.767 190.682 186.681 191.272 183.104C191.492 180.461 191.379 177.838 191.243 175.194C191.205 173.835 191.176 172.476 191.152 171.117C191.133 170.278 191.105 169.44 191.065 168.603C190.967 166.038 191.044 163.774 192.736 161.684C194.342 160.016 196.494 159.33 198.649 158.628C199.478 158.356 199.478 158.356 200.574 157.767C201.403 155.248 201.084 152.206 201.108 149.582C201.116 148.9 201.129 148.217 201.147 147.535C201.393 142.491 201.393 142.491 199.167 138.117C199.005 137.957 198.842 137.797 198.675 137.633C196.257 138.165 194.282 138.827 192.169 140.15C190.282 141.303 188.756 142.021 186.519 141.812C184.669 141.34 184.008 140.434 183.052 138.867C182.53 137.94 182.029 137.008 181.546 136.06C180.953 134.926 180.608 134.298 179.443 133.715C178.997 133.586 178.997 133.586 178.541 133.454C177.781 132.694 177.781 132.694 177.637 131.791C177.829 130.465 178.298 130.137 179.325 129.299C179.637 129.037 179.949 128.774 180.271 128.504C180.825 128.058 181.381 127.614 181.939 127.174C183.532 125.889 184.523 124.537 185.603 122.801C186.139 122.058 186.139 122.058 187.16 121.488C188.406 120.68 188.495 119.73 188.894 118.344C189.448 116.694 190.422 115.784 191.837 114.84C192.338 114.84 192.84 114.84 193.356 114.84C193.229 114.643 193.102 114.446 192.971 114.244C192.466 112.998 192.583 112.044 192.692 110.709C192.742 110.029 192.742 110.029 192.793 109.335C193.081 107.248 193.484 105.813 195.018 104.346C196.153 103.12 196.651 102.127 197.108 100.523C198.055 97.3159 200.003 93.9871 202.83 92.0948C204.147 91.06 204.263 90.0427 204.492 88.4147C204.561 87.6373 204.63 86.8599 204.685 86.0814C204.758 85.1483 204.857 84.2208 204.962 83.2907C205.317 80.0672 205.592 76.8429 205.655 73.5993C205.67 73.2028 205.67 73.2028 205.685 72.7982C205.69 71.4727 205.598 70.8776 204.744 69.8376C204.496 69.6452 204.248 69.4528 203.993 69.2545C203.931 69.9684 203.931 69.9684 203.867 70.6968C203.806 71.3241 203.745 71.9512 203.684 72.5784C203.658 72.8918 203.631 73.2052 203.604 73.5281C203.558 73.9835 203.558 73.9835 203.511 74.4481C203.485 74.7267 203.459 75.0052 203.432 75.2921C203.233 76.0923 203.233 76.0923 202.652 76.8016C201.88 77.9219 201.97 78.713 201.996 80.0632C202.001 80.5417 202.006 81.0201 202.012 81.513C202.029 82.2615 202.029 82.2615 202.046 83.0251C202.181 90.9975 202.181 90.9975 201.215 92.3826C201.004 92.5384 200.792 92.6941 200.574 92.8545C200.334 93.0342 200.094 93.214 199.847 93.3991C199.586 93.5798 199.324 93.7605 199.055 93.9467C198.785 94.147 198.516 94.3472 198.238 94.5536C196.43 95.8446 194.462 97.077 192.217 97.3656C191.077 96.6058 191.077 96.6058 190.81 95.5605C190.7 94.3612 190.703 93.2581 190.786 92.0577C190.816 91.6257 190.845 91.1937 190.876 90.7486C190.911 90.2918 190.946 89.835 190.982 89.3644C191.018 88.8931 191.053 88.4219 191.09 87.9364C191.321 85.0324 191.595 82.1379 191.979 79.2501C192.018 78.9398 192.056 78.6296 192.096 78.3099C192.492 75.5839 193.366 72.8729 195.28 70.8215C195.556 70.5174 195.556 70.5174 195.839 70.2071C196.399 69.6307 196.964 69.0604 197.535 68.4947C197.198 68.1421 196.861 67.7896 196.514 67.4263C194.734 65.337 193.306 62.7546 193.119 59.9711C193.356 58.6178 193.356 58.6178 194.131 57.7779C195.55 56.9208 196.694 56.94 198.295 57.0271C200.793 57.1635 200.793 57.1635 203.233 56.7184C203.617 56.3427 203.997 55.9625 204.373 55.5788C205.348 55.1618 205.348 55.1618 206.486 54.7953C206.893 54.6616 207.3 54.5279 207.719 54.3902C208.801 54.095 209.768 53.9696 210.878 53.8693C213.584 53.3909 215.019 50.8291 216.529 48.7409C216.972 48.1391 217.415 47.5376 217.859 46.9365C218.027 46.6956 218.196 46.4547 218.369 46.2064C218.514 46.0399 218.659 45.8734 218.808 45.7019C219.059 45.7019 219.31 45.7019 219.568 45.7019C219.412 45.509 219.257 45.316 219.096 45.1172C218.789 44.725 218.789 44.725 218.476 44.3248C218.273 44.0692 218.071 43.8136 217.862 43.5502C216.177 40.9403 216.266 38.0652 216.529 35.0653C217.174 32.3175 218.882 30.3051 221.088 28.6073C224.498 26.5645 227.787 25.5276 231.724 25.1884C231.85 23.9582 231.85 23.9582 230.798 23.0041C229.714 21.7492 229.415 20.8028 229.445 19.1103C230.352 17.0063 231.438 15.9812 233.244 14.5517C233.767 13.9323 234.28 13.3032 234.763 12.6523ZM159.571 307.985C158.159 308.803 157.113 309.08 155.487 309.149C153.454 309.247 152.705 309.852 151.19 311.238C150.618 311.452 150.039 311.649 149.457 311.832C146.784 312.805 144.963 314.862 142.98 316.822C142.452 317.316 142.452 317.316 141.547 317.979C141.345 318.137 141.142 318.294 140.933 318.456C140.933 318.707 140.933 318.957 140.933 319.216C140.721 319.305 140.51 319.395 140.292 319.487C139.202 320.093 138.418 320.849 137.514 321.708C136.027 323.089 134.527 324.334 132.884 325.531C130.45 327.32 127.767 329.307 126.498 332.131C126.583 333.322 126.583 333.322 126.996 334.624C127.066 334.876 127.136 335.128 127.208 335.388C127.372 335.978 127.541 336.567 127.712 337.155C128.068 338.385 128.407 339.619 128.746 340.854C129.009 341.801 129.272 342.747 129.537 343.694C129.663 344.149 129.789 344.603 129.918 345.071C130.911 348.56 132.137 351.642 134 354.758C134.233 355.15 134.466 355.543 134.706 355.947C134.968 356.381 134.968 356.381 135.235 356.824C137.14 356.698 137.14 356.698 138.654 355.684C139.906 355.809 140.41 355.921 141.313 356.824C142.066 356.874 142.066 356.874 142.832 356.444C143.168 355.915 143.502 355.386 143.83 354.853C146.28 351.623 150.407 349.562 154.229 348.466C157.72 348.09 160.763 348.655 164.074 349.653C165.225 350.038 165.225 350.038 166.385 349.986C166.569 349.541 166.753 349.096 166.943 348.637C169.402 342.818 172.548 337.341 178.161 334.031C177.684 333.077 177.211 332.94 176.262 332.511C176.143 331.467 176.143 331.467 176.262 330.232C177.107 329.409 177.87 328.858 178.921 328.333C178.773 327.335 178.563 326.838 177.899 326.065C176.652 324.429 175.791 322.636 174.861 320.806C174.452 320.022 174.043 319.237 173.634 318.453C172.921 317.08 172.231 315.7 171.565 314.304C170.229 311.465 170.229 311.465 167.913 309.444C166.776 309.073 165.655 308.826 164.486 308.579C163.631 308.163 163.631 308.163 162.919 307.724C161.343 306.765 161.029 307.054 159.571 307.985ZM309.6 311.998C309.275 312.11 308.95 312.222 308.616 312.338C304.97 313.748 303.74 317.005 302.255 320.361C301.152 322.892 301.152 322.892 300.081 325.438C299.187 327.558 298.451 329.123 296.684 330.612C296.558 330.863 296.433 331.113 296.304 331.372C296.672 331.63 297.04 331.889 297.42 332.155C298.393 332.976 298.586 333.28 299.011 334.553C298.949 336.337 298.431 337.123 297.444 338.589C297.632 338.723 297.821 338.857 298.015 338.995C303.127 342.71 306.97 347.679 308.84 353.785C309.06 353.727 309.279 353.67 309.506 353.61C320.86 350.673 320.86 350.673 326.314 353.832C328.411 355.237 330.78 357.004 332.144 359.146C332.71 359.936 332.71 359.936 333.599 360.035C333.912 360.027 334.224 360.019 334.546 360.011C334.885 360.006 335.224 360.001 335.573 359.996C335.926 359.984 336.279 359.971 336.642 359.958C337 359.951 337.357 359.944 337.725 359.937C338.607 359.919 339.488 359.894 340.37 359.863C342.146 356.288 343.491 352.664 344.727 348.876C345.026 347.961 345.328 347.049 345.632 346.136C345.827 345.545 346.022 344.954 346.217 344.363C346.305 344.095 346.394 343.827 346.485 343.551C347.691 339.847 348.452 337.132 346.614 333.461C344.469 329.73 340.806 327.565 337.264 325.273C334.043 323.146 331.503 320.77 329.14 317.68C327.781 315.931 326.269 315.03 324.295 314.034C323.275 313.517 323.275 313.517 322.387 312.919C321.084 312.221 319.779 312.009 318.337 311.784C315.498 311.326 315.498 311.326 314.27 310.787C312.593 310.193 311.127 311.293 309.6 311.998Z" fill="#3B352E"/>
<path d="M247.635 132.152C247.9 132.331 248.165 132.51 248.439 132.694C248.791 132.921 249.144 133.148 249.507 133.382C252.604 136.479 253.201 140.658 253.214 144.846C253.085 149.258 250.812 152.666 247.808 155.798C246.675 156.854 245.475 157.787 244.236 158.716C242.103 160.367 241.338 162.517 240.461 164.984C240.367 165.22 240.273 165.457 240.176 165.701C239.247 168.183 239.066 170.591 238.918 173.222C238.551 179.43 238.551 179.43 237.422 180.559C236.663 180.574 235.903 180.575 235.143 180.559C234.708 179.688 234.677 179.093 234.613 178.124C233.976 167.627 233.976 167.627 228.648 158.919C227.802 158.195 226.936 157.5 226.062 156.81C223.059 154.399 221.166 151.543 219.948 147.889C219.565 143.096 219.474 138.13 222.607 134.213C229.094 127.03 239.804 127.111 247.635 132.152Z" fill="#E9E9E9"/>
<path d="M236.691 143.97C238.195 144.223 239.022 144.491 240.01 145.684C240.584 147.042 240.644 147.948 240.462 149.411C239.672 150.637 239.018 151.26 237.802 152.071C236.628 152.299 235.558 152.299 234.384 152.071C233.125 151.069 232.639 150.509 232.305 148.959C232.204 147.44 232.365 146.283 233.244 145.019C234.538 143.968 235.085 143.834 236.691 143.97Z" fill="#3B352E"/>
<path d="M120.04 532.33C120.665 532.375 121.29 532.423 121.915 532.473C122.263 532.499 122.612 532.525 122.97 532.553C123.926 532.673 124.774 532.839 125.702 533.069C128.02 533.603 130.379 533.769 132.744 533.97C134.1 534.087 135.454 534.213 136.809 534.338C138.181 534.463 139.554 534.588 140.926 534.71C141.784 534.788 142.64 534.875 143.497 534.965C143.934 535.008 144.371 535.051 144.821 535.095C146.091 535.426 146.593 535.859 147.391 536.889C147.676 538.123 147.676 538.123 147.771 539.168C147.395 539.168 147.019 539.168 146.631 539.168C146.459 538.8 146.286 538.431 146.109 538.052C145.621 536.862 145.621 536.862 144.732 536.509C143.919 536.441 143.104 536.395 142.289 536.359C141.775 536.334 141.261 536.308 140.746 536.282C140.339 536.263 140.339 536.263 139.923 536.242C135.314 536.011 130.758 535.646 126.189 534.989C125.521 534.895 125.521 534.895 124.839 534.798C121.501 534.292 121.501 534.292 120.04 533.47C120.04 533.094 120.04 532.718 120.04 532.33Z" fill="#3B352E"/>
<path d="M372.28 485.604C372.531 485.729 372.781 485.854 373.04 485.983C373.267 486.991 373.267 486.991 373.443 488.239C373.64 489.823 373.64 489.823 374.179 491.302C374.848 495.445 374.643 499.494 374.037 503.624C373.989 503.953 373.941 504.281 373.892 504.62C373.513 507.038 373.513 507.038 373.016 508.2C372.449 509.721 372.48 511.274 372.422 512.884C372.408 513.219 372.393 513.555 372.378 513.901C372.342 514.725 372.311 515.549 372.28 516.374C371.427 514.838 371.39 513.47 371.401 511.744C371.402 511.288 371.402 511.288 371.403 510.824C371.435 508.785 371.675 506.875 372.09 504.882C373.029 500.343 373.071 495.486 372.28 490.922C372.255 489.988 372.247 489.054 372.256 488.12C372.26 487.647 372.263 487.174 372.267 486.687C372.273 486.151 372.273 486.151 372.28 485.604Z" fill="#3B352E"/>
<path d="M373.799 524.352C374.05 524.728 374.301 525.104 374.559 525.491C374.802 525.836 375.045 526.181 375.295 526.536C376.119 527.835 376.7 528.984 377.218 530.43C376.838 531.569 376.838 531.569 375.604 532.305C371.462 534.222 367.272 534.926 362.783 535.368C362.174 535.432 362.174 535.432 361.553 535.497C360.697 535.586 359.841 535.67 358.984 535.748C359.853 534.732 360.453 534.438 361.766 534.231C362.092 534.176 362.417 534.121 362.753 534.064C363.099 534.009 363.446 533.953 363.804 533.896C366.463 533.433 369.042 532.89 371.615 532.068C371.87 531.986 372.126 531.905 372.389 531.821C373.569 531.486 373.569 531.486 374.559 530.81C374.652 529.161 374.618 528.064 373.799 526.631C373.799 526.255 373.799 525.879 373.799 525.491C373.548 525.491 373.298 525.491 373.039 525.491C373.419 524.731 373.419 524.731 373.799 524.352Z" fill="#3B352E"/>
<path d="M341.51 564.998C341.635 564.998 341.76 564.998 341.89 564.998C342.046 569.64 341.571 573.036 338.395 576.562C332.698 582.42 332.698 582.42 329.733 583.232C329.357 582.982 328.981 582.731 328.594 582.473C328.856 582.288 329.118 582.104 329.388 581.915C331.552 580.37 333.578 578.774 335.516 576.952C336.191 576.394 336.191 576.394 336.951 576.394C337.076 575.893 337.202 575.392 337.331 574.875C337.582 574.875 337.832 574.875 338.091 574.875C338.244 574.558 338.244 574.558 338.399 574.234C338.851 573.355 338.851 573.355 339.42 572.477C340.553 570.447 340.847 568.35 341.036 566.069C341.13 565.378 341.13 565.378 341.51 564.998Z" fill="#3B352E"/>
<path d="M323.275 587.791C322.766 589.319 322.036 589.577 320.687 590.426C319.024 591.475 319.024 591.475 317.55 592.762C316.724 593.582 315.942 594.009 314.894 594.51C314.569 594.668 314.243 594.826 313.907 594.989C312.642 595.558 311.664 595.815 310.288 595.792C309.571 595.78 309.571 595.78 308.84 595.768C308.965 595.267 309.091 594.766 309.22 594.249C308.718 594.124 308.217 593.998 307.7 593.869C308.191 593.826 308.683 593.784 309.189 593.74C313.839 593.246 316.631 592.291 320.236 589.311C322.382 587.791 322.382 587.791 323.275 587.791Z" fill="#3B352E"/>
<path d="M170.184 310.859C171.727 311.374 172.022 312.141 172.843 313.519C172.956 313.811 173.07 314.104 173.187 314.406C173.662 315.563 174.262 316.58 174.908 317.65C177.401 321.872 177.401 321.872 177.401 323.775C176.837 323.587 176.837 323.587 176.262 323.395C176.262 323.145 176.262 322.894 176.262 322.636C175.886 322.51 175.509 322.385 175.122 322.256C174.662 321.545 174.662 321.545 174.22 320.623C174.057 320.29 173.895 319.958 173.727 319.614C173.561 319.264 173.394 318.913 173.223 318.552C172.891 317.865 172.558 317.179 172.225 316.492C172.07 316.17 171.915 315.849 171.755 315.517C171.308 314.599 171.308 314.599 170.639 313.532C170.082 312.586 170.091 311.939 170.184 310.859Z" fill="#3B352E"/>
<path d="M238.182 144.473C238.182 144.849 238.182 145.225 238.182 145.612C238.558 145.738 238.934 145.863 239.322 145.992C239.322 146.368 239.322 146.744 239.322 147.132C238.946 147.006 238.57 146.881 238.182 146.752C238.182 146.501 238.182 146.25 238.182 145.992C237.806 145.992 237.43 145.992 237.042 145.992C237.544 146.619 238.045 147.246 238.562 147.892C238.311 147.892 238.061 147.892 237.802 147.892C237.802 148.518 237.802 149.145 237.802 149.791C236.33 149.459 236.33 149.459 235.903 149.031C235.527 149.407 235.151 149.783 234.763 150.171C234.387 150.045 234.011 149.92 233.624 149.791C233.932 148.865 233.932 148.865 234.383 147.892C234.759 147.766 235.135 147.641 235.523 147.512C235.398 146.634 235.272 145.757 235.143 144.853C236.242 144.539 237 144.473 238.182 144.473Z" fill="#3B352E"/>
<path d="M103.325 501.938C104.017 504.016 103.775 506.269 103.776 508.443C103.78 508.935 103.785 509.426 103.79 509.933C103.794 512.573 103.721 514.979 102.945 517.513C102.569 517.701 102.569 517.701 102.185 517.892C102.31 512.753 102.436 507.613 102.565 502.317C102.816 502.192 103.066 502.067 103.325 501.938Z" fill="#3B352E"/>
<path d="M373.42 499.66C373.545 499.66 373.67 499.66 373.799 499.66C373.758 500.887 373.708 502.114 373.657 503.34C373.645 503.687 373.633 504.033 373.621 504.39C373.543 506.182 373.334 507.492 372.66 509.157C372.512 510.397 372.467 511.637 372.422 512.885C372.408 513.22 372.393 513.556 372.378 513.902C372.342 514.726 372.311 515.55 372.28 516.375C371.427 514.839 371.389 513.471 371.401 511.745C371.403 511.446 371.404 511.147 371.405 510.839C371.469 507.109 371.892 503.095 373.42 499.66Z" fill="#3B352E"/>
<path d="M104.084 454.074C104.335 454.074 104.586 454.074 104.844 454.074C105.052 459.145 105.259 464.218 105.295 469.293C105.3 469.622 105.305 469.951 105.31 470.291C105.314 472.554 105.314 472.554 104.464 473.828C104.455 473.525 104.445 473.222 104.435 472.911C104.391 471.539 104.345 470.167 104.298 468.795C104.276 468.08 104.276 468.08 104.253 467.351C104.237 466.893 104.221 466.435 104.204 465.963C104.191 465.542 104.177 465.12 104.162 464.685C104.12 463.616 104.12 463.616 103.884 462.78C103.66 461.873 103.699 461.09 103.75 460.158C103.769 459.803 103.787 459.448 103.806 459.082C103.827 458.715 103.849 458.347 103.871 457.968C103.89 457.594 103.91 457.221 103.931 456.836C103.98 455.915 104.031 454.995 104.084 454.074Z" fill="#3B352E"/>
<path d="M190.697 115.602C190.948 115.727 191.199 115.852 191.457 115.981C190.844 117.012 190.223 118.023 189.558 119.02C189.471 119.381 189.385 119.741 189.296 120.113C188.691 121.554 188.064 121.872 186.793 122.692C185.936 123.356 185.542 124.182 185.058 125.137C183.797 127.208 181.645 129.03 179.681 130.417C179.43 130.417 179.179 130.417 178.921 130.417C178.921 130.668 178.921 130.918 178.921 131.177C178.67 131.177 178.42 131.177 178.161 131.177C178.036 131.678 177.91 132.18 177.781 132.696C177.685 131.84 177.685 131.84 177.781 130.797C178.436 130.027 178.436 130.027 179.325 129.301C179.637 129.039 179.949 128.776 180.271 128.506C180.825 128.06 181.381 127.616 181.939 127.176C183.532 125.891 184.523 124.539 185.603 122.803C186.139 122.06 186.139 122.06 187.16 121.49C188.405 120.682 188.496 119.736 188.89 118.348C189.27 117.228 189.895 116.459 190.697 115.602Z" fill="#424242"/>
<path d="M373.799 524.352C374.05 524.728 374.301 525.104 374.559 525.491C374.802 525.836 375.045 526.181 375.295 526.536C376.119 527.835 376.7 528.984 377.218 530.43C376.838 531.569 376.838 531.569 376.217 532C374.648 532.759 373.279 533.293 371.52 533.469C372.683 532.472 372.938 532.329 374.559 532.329C374.434 531.953 374.308 531.577 374.179 531.189C374.305 531.064 374.43 530.939 374.559 530.81C374.652 529.161 374.618 528.064 373.799 526.631C373.799 526.255 373.799 525.879 373.799 525.491C373.549 525.491 373.298 525.491 373.04 525.491C373.419 524.731 373.419 524.731 373.799 524.352Z" fill="#3B352E"/>
<path d="M329.354 553.221C331.149 554.393 332.474 555.582 333.845 557.221C335.659 559.279 337.658 561.172 339.61 563.098C339.485 563.474 339.36 563.85 339.23 564.237C339.037 564.04 338.845 563.843 338.646 563.639C337.474 562.452 336.321 561.304 335.028 560.248C333.849 559.245 332.889 558.169 331.891 556.991C331.333 556.351 330.757 555.771 330.137 555.191C329.354 554.36 329.354 554.36 329.354 553.221Z" fill="#3B352E"/>
<path d="M103.705 429.762C103.83 429.762 103.955 429.762 104.085 429.762C104.085 435.278 104.085 440.793 104.085 446.476C103.834 446.476 103.583 446.476 103.325 446.476C103.001 444.554 102.911 442.723 102.978 440.772C102.986 440.492 102.994 440.212 103.002 439.923C103.02 439.336 103.038 438.748 103.058 438.161C103.088 437.262 103.113 436.362 103.138 435.463C103.155 434.89 103.173 434.317 103.191 433.745C103.199 433.476 103.206 433.208 103.214 432.932C103.255 431.783 103.339 430.86 103.705 429.762Z" fill="#3B352E"/>
<path d="M398.492 335.172C398.894 336.49 398.765 337.252 398.34 338.569C398.079 339.463 397.919 340.356 397.756 341.274C397.451 342.813 397.12 344.118 396.212 345.429C395.191 345.761 395.191 345.761 394.313 345.809C394.743 344.733 395.174 343.658 395.605 342.584C396.594 340.123 397.577 337.662 398.492 335.172Z" fill="#3B352E"/>
<path d="M370.76 472.309C371.011 472.309 371.262 472.309 371.52 472.309C372.335 473.634 372.368 474.681 372.354 476.22C372.35 476.907 372.35 476.907 372.347 477.608C372.34 478.084 372.334 478.561 372.327 479.051C372.324 479.534 372.32 480.016 372.317 480.513C372.308 481.704 372.295 482.894 372.28 484.085C371.352 483.157 371.388 482.798 371.28 481.516C371.248 481.154 371.216 480.791 371.183 480.417C371.153 480.037 371.123 479.657 371.093 479.265C371.06 478.892 371.027 478.519 370.993 478.135C370.829 476.186 370.722 474.264 370.76 472.309Z" fill="#3B352E"/>
<path d="M146.251 312.758C145.814 313.695 145.473 314.296 144.732 315.037C144.356 314.912 143.98 314.786 143.592 314.657C145.397 312.758 145.397 312.758 146.251 312.758ZM142.453 315.417C142.703 315.542 142.954 315.668 143.212 315.797C142.587 318.159 140.721 319.385 138.749 320.64C138.467 320.797 138.185 320.954 137.894 321.115C137.33 321.491 137.33 321.491 136.754 321.875C136.629 321.499 136.504 321.123 136.375 320.735C138.179 319.216 138.179 319.216 139.034 319.216C139.131 318.991 139.228 318.765 139.327 318.533C139.838 317.616 140.36 317.122 141.17 316.462C141.41 316.264 141.65 316.066 141.898 315.862C142.172 315.642 142.172 315.642 142.453 315.417Z" fill="#3B352E"/>
<path d="M178.541 590.832C178.792 590.957 179.042 591.083 179.301 591.212C179.181 594.539 178.978 597.81 178.375 601.089C178.328 601.35 178.282 601.611 178.234 601.88C178.111 602.509 177.949 603.13 177.781 603.748C177.405 603.936 177.405 603.936 177.021 604.128C177.065 603.043 177.113 601.959 177.164 600.875C177.176 600.571 177.187 600.267 177.2 599.954C177.292 598.068 177.603 596.446 178.161 594.631C178.26 593.945 178.342 593.256 178.399 592.565C178.427 592.237 178.455 591.908 178.485 591.57C178.503 591.326 178.522 591.083 178.541 590.832Z" fill="#3B352E"/>
<path d="M372.66 507.637C372.785 507.637 372.911 507.637 373.04 507.637C373.038 507.874 373.036 508.11 373.034 508.354C373.001 512.818 372.988 517.245 373.42 521.692C373.044 521.943 372.667 522.194 372.28 522.452C372.152 521.542 372.025 520.632 371.9 519.722C371.864 519.466 371.828 519.21 371.79 518.946C371.603 517.572 371.477 516.242 371.52 514.854C371.646 514.854 371.771 514.854 371.9 514.854C371.923 514.461 371.946 514.067 371.97 513.661C372.002 513.141 372.034 512.621 372.066 512.1C372.081 511.841 372.096 511.582 372.112 511.315C372.191 510.051 372.287 508.851 372.66 507.637Z" fill="#3B352E"/>
<path d="M160.686 306.301C160.686 306.552 160.686 306.802 160.686 307.061C160.436 307.061 160.185 307.061 159.927 307.061C159.927 307.437 159.927 307.813 159.927 308.2C158.21 309.205 156.979 309.565 154.988 309.34C154.34 308.761 154.34 308.761 153.849 308.2C154.441 307.953 155.035 307.708 155.629 307.464C155.96 307.328 156.29 307.191 156.631 307.05C158.009 306.549 159.22 306.301 160.686 306.301Z" fill="#3B352E"/>
<path d="M200.954 140.672C201.205 140.672 201.456 140.672 201.714 140.672C201.714 146.689 201.714 152.706 201.714 158.906C199.645 159.094 199.645 159.094 197.535 159.286C198.471 158.35 199.323 158.147 200.574 157.766C201.038 155.962 201.002 154.206 200.991 152.358C200.99 151.856 200.99 151.856 200.99 151.344C200.987 150.279 200.983 149.215 200.978 148.151C200.976 147.427 200.974 146.704 200.973 145.981C200.968 144.211 200.962 142.441 200.954 140.672Z" fill="#333333"/>
<path d="M161.446 305.541C161.662 305.646 161.878 305.752 162.101 305.86C163.518 306.525 164.674 307.037 166.242 307.227C167.85 307.495 169.054 308.152 170.184 309.34C170.184 309.716 170.184 310.092 170.184 310.479C169.933 310.479 169.682 310.479 169.424 310.479C169.298 310.229 169.173 309.978 169.044 309.72C168.269 309.456 167.483 309.223 166.693 309.007C164.804 308.45 163.321 307.968 161.826 306.681C161.701 306.305 161.575 305.928 161.446 305.541Z" fill="#3B352E"/>
<path d="M367.341 534.609C367.341 534.734 367.341 534.86 367.341 534.989C366.392 535.172 365.442 535.354 364.492 535.535C364.228 535.586 363.963 535.637 363.691 535.69C360.845 536.23 358.086 536.558 355.185 536.532C354.798 536.53 354.798 536.53 354.403 536.527C353.777 536.523 353.152 536.516 352.526 536.509C353.841 535.632 354.964 535.487 356.491 535.298C356.745 535.262 356.999 535.226 357.26 535.189C358.59 535.016 359.6 535.023 360.883 535.369C361.784 535.251 361.784 535.251 362.711 535.013C364.308 534.66 365.711 534.538 367.341 534.609Z" fill="#3B352E"/>
<path d="M105.224 417.605C105.608 418.801 105.533 419.448 105.224 420.645C105.154 421.242 105.096 421.842 105.048 422.442C105.018 422.778 104.988 423.114 104.958 423.46C104.898 424.167 104.839 424.875 104.783 425.582C104.753 425.917 104.722 426.252 104.691 426.596C104.666 426.903 104.641 427.21 104.614 427.526C104.54 427.88 104.54 427.88 104.464 428.242C104.214 428.367 103.963 428.493 103.705 428.622C103.32 425.895 103.367 423.375 103.705 420.645C104.081 420.519 104.457 420.394 104.844 420.265C104.836 419.896 104.829 419.528 104.82 419.149C104.844 417.985 104.844 417.985 105.224 417.605Z" fill="#3B352E"/>
<path d="M388.235 357.584C388.776 359.209 388.072 360.255 387.404 361.739C387.23 362.147 387.23 362.147 387.053 362.563C386.372 364.103 385.714 365.185 384.436 366.321C384.311 366.572 384.185 366.823 384.056 367.081C383.805 367.081 383.555 367.081 383.296 367.081C383.813 365.383 384.489 363.89 385.338 362.332C385.672 361.715 385.672 361.715 386.012 361.086C386.707 359.877 387.448 358.735 388.235 357.584Z" fill="#3B352E"/>
<path d="M111.302 281.229C111.302 282.724 110.818 283.011 109.806 284.078C108.594 285.347 108.594 285.347 107.883 286.927C107.335 287.4 106.785 287.872 106.218 288.323C105.316 289.062 104.518 289.891 103.705 290.726C103.198 291.232 102.692 291.739 102.185 292.245C101.934 292.12 101.684 291.994 101.425 291.865C101.632 291.667 101.84 291.469 102.053 291.264C103.993 289.371 105.728 287.395 107.42 285.28C108.624 283.835 109.94 282.523 111.302 281.229Z" fill="#3B352E"/>
<path d="M237.423 144.092C237.172 144.343 236.921 144.593 236.663 144.852C236.161 144.852 235.66 144.852 235.143 144.852C235.269 145.729 235.394 146.607 235.523 147.511C235.288 147.44 235.053 147.37 234.811 147.297C233.988 147.041 233.988 147.041 233.244 147.511C232.994 148.662 232.994 148.662 232.864 149.79C232.739 149.79 232.613 149.79 232.484 149.79C232.309 148.04 232.181 146.5 233.244 145.018C234.775 143.774 235.501 143.897 237.423 144.092Z" fill="#3B352E"/>
<path d="M205.133 81.0312C205.258 81.0312 205.384 81.0312 205.513 81.0312C205.546 82.6457 205.566 84.26 205.584 85.8747C205.598 86.5622 205.598 86.5622 205.613 87.2637C205.618 87.9247 205.618 87.9247 205.624 88.5992C205.633 89.2079 205.633 89.2079 205.642 89.829C205.495 91.0566 205.236 91.5556 204.373 92.4277C203.162 92.9025 203.162 92.9025 202.094 93.1874C202.54 92.7996 202.54 92.7996 202.996 92.4039C204.655 90.4258 204.538 87.6744 204.753 85.2099C204.816 84.5665 204.816 84.5665 204.881 83.91C204.972 82.9509 205.057 81.9918 205.133 81.0312Z" fill="#3B352E"/>
<path d="M372.28 485.604C372.656 485.792 372.656 485.792 373.04 485.983C373.952 489.199 373.888 492.549 373.799 495.86C373.549 495.735 373.298 495.61 373.04 495.48C372.127 492.265 372.192 488.915 372.28 485.604Z" fill="#3B352E"/>
<path d="M364.682 287.307C366.423 287.632 367.351 288.667 368.552 289.895C368.863 290.199 368.863 290.199 369.181 290.51C370.228 291.565 370.867 292.303 371.14 293.765C370.889 293.89 370.639 294.015 370.38 294.144C370.224 293.96 370.067 293.776 369.905 293.587C368.428 291.871 366.893 290.26 365.253 288.699C364.682 288.066 364.682 288.066 364.682 287.307Z" fill="#3B352E"/>
<path d="M341.509 564.998C341.635 564.998 341.76 564.998 341.889 564.998C342.103 571.34 342.103 571.34 340.393 573.545C339.61 574.115 339.61 574.115 338.47 574.495C338.572 574.299 338.674 574.103 338.779 573.901C338.928 573.596 339.077 573.29 339.23 572.976C339.512 572.423 339.512 572.423 339.8 571.86C340.554 570.119 340.724 568.27 340.966 566.402C341.129 565.378 341.129 565.378 341.509 564.998Z" fill="#3B352E"/>
<path d="M201.334 77.6113C201.459 77.6113 201.585 77.6113 201.714 77.6113C201.778 79.1245 201.839 80.6377 201.897 82.1512C201.927 82.9157 201.96 83.6802 201.992 84.4447C202.185 89.5657 202.185 89.5657 201.714 91.6669C201.338 91.9176 200.962 92.1683 200.574 92.4267C200.825 87.5376 201.076 82.6485 201.334 77.6113Z" fill="#3B352E"/>
<path d="M194.116 62.418C194.788 63.2919 195.402 64.1678 195.992 65.1009C196.688 66.2291 196.688 66.2291 197.63 66.8103C198.295 67.3564 198.295 67.3564 198.532 68.2349C198.183 69.7351 197.23 70.6195 196.016 71.5351C195.765 71.5351 195.514 71.5351 195.256 71.5351C195.146 71.778 195.036 72.0209 194.923 72.2711C194.496 73.0546 194.496 73.0546 193.736 73.4345C194.564 71.4779 196.037 69.9676 197.535 68.496C197.384 68.3305 197.233 68.165 197.077 67.9945C194.116 64.6667 194.116 64.6667 194.116 62.418Z" fill="#3B352E"/>
<path d="M217.289 35.8262C217.414 35.8262 217.539 35.8262 217.669 35.8262C217.738 36.3411 217.738 36.3411 217.808 36.8664C217.872 37.3145 217.935 37.7625 218.001 38.2242C218.063 38.6693 218.124 39.1144 218.188 39.573C218.361 40.8198 218.361 40.8198 219.188 41.9043C219.188 42.2803 219.188 42.6564 219.188 43.0439C219.439 43.0439 219.69 43.0439 219.948 43.0439C220.073 43.42 220.199 43.7961 220.328 44.1835C219.701 44.3089 219.074 44.4343 218.428 44.5634C216.645 38.8954 216.645 38.8954 216.909 36.2061C217.034 36.0807 217.16 35.9553 217.289 35.8262Z" fill="#3B352E"/>
<path d="M104.464 528.531C105.455 528.756 106.444 528.986 107.432 529.22C107.713 529.283 107.993 529.346 108.282 529.41C110.836 530.023 110.836 530.023 111.682 531.19C110.906 531.147 110.131 531.098 109.355 531.048C108.923 531.022 108.491 530.995 108.047 530.968C106.761 530.813 105.674 530.503 104.464 530.051C104.464 529.549 104.464 529.048 104.464 528.531Z" fill="#3B352E"/>
<path d="M300.482 593.49C300.984 593.741 301.485 593.992 302.002 594.25C302.002 594.501 302.002 594.751 302.002 595.01C302.253 595.01 302.503 595.01 302.762 595.01C302.762 595.26 302.762 595.511 302.762 595.77C302.152 595.78 301.543 595.787 300.934 595.793C300.424 595.8 300.424 595.8 299.905 595.807C298.963 595.77 298.963 595.77 297.823 595.39C297.372 594.606 297.372 594.606 297.063 593.87C297.557 593.878 298.051 593.886 298.559 593.894C299.074 593.902 299.589 593.897 300.103 593.87C300.228 593.745 300.353 593.619 300.482 593.49Z" fill="#3B352E"/>
<path d="M161.066 590.832C166.332 591.02 166.332 591.02 171.703 591.212C171.578 591.463 171.452 591.713 171.323 591.972C164.104 592.112 164.104 592.112 161.066 591.212C161.066 591.087 161.066 590.961 161.066 590.832Z" fill="#3B352E"/>
<path d="M102.565 491.301C102.816 491.301 103.067 491.301 103.325 491.301C103.69 492.396 103.749 493.077 103.742 494.214C103.74 494.722 103.74 494.722 103.738 495.241C103.735 495.594 103.732 495.947 103.728 496.31C103.727 496.668 103.725 497.025 103.723 497.393C103.719 498.275 103.713 499.156 103.705 500.038C102.727 499.179 102.576 498.969 102.357 497.607C102.332 497.109 102.306 496.61 102.28 496.097C102.251 495.6 102.221 495.104 102.191 494.592C102.186 493.412 102.275 492.438 102.565 491.301Z" fill="#3B352E"/>
<path d="M327.454 539.547C328.237 539.713 328.237 539.713 328.973 539.927C328.801 540.185 328.629 540.444 328.451 540.71C327.77 541.942 327.421 543.125 327.074 544.485C326.823 544.485 326.573 544.485 326.314 544.485C326.314 544.736 326.314 544.987 326.314 545.245C326.064 545.245 325.813 545.245 325.555 545.245C325.298 543.258 326.187 541.65 327.074 539.927C327.199 539.801 327.325 539.676 327.454 539.547Z" fill="#3B352E"/>
<path d="M351.387 536.509C351.387 536.885 351.387 537.262 351.387 537.649C348.858 538.119 346.354 538.064 343.789 538.029C345.546 536.272 349.004 536.403 351.387 536.509Z" fill="#3B352E"/>
<path d="M104.844 474.207C104.844 476.338 104.844 478.469 104.844 480.665C104.468 480.79 104.092 480.916 103.705 481.045C103.705 478.914 103.705 476.783 103.705 474.587C104.464 474.207 104.464 474.207 104.844 474.207Z" fill="#3B352E"/>
<path d="M234.763 12.6523C235.855 12.7473 235.855 12.7473 237.042 13.0322C237.422 13.7208 237.422 13.7208 237.802 14.5517C238.954 15.4042 238.954 15.4042 240.081 16.0713C239.322 16.4511 239.322 16.4511 238.135 16.095C237.594 15.8952 237.594 15.8952 237.042 15.6914C236.917 15.0646 236.792 14.4378 236.663 13.792C236.036 13.792 235.409 13.792 234.763 13.792C234.669 14.0192 234.575 14.2464 234.478 14.4805C233.929 15.441 233.44 15.9006 232.484 16.4511C232.108 16.3258 231.732 16.2004 231.344 16.0713C231.626 15.8597 231.908 15.6482 232.199 15.4302C233.212 14.5782 233.971 13.7081 234.763 12.6523Z" fill="#3B352E"/>
<path d="M328.973 583.232C328.699 584.897 327.901 585.496 326.639 586.527C325.814 587.117 325.005 587.497 324.035 587.791C324.153 587.055 324.153 587.055 324.415 586.271C324.791 586.146 325.167 586.021 325.554 585.892C325.554 585.641 325.554 585.39 325.554 585.132C326.109 584.642 326.109 584.642 326.836 584.135C327.193 583.88 327.193 583.88 327.557 583.621C328.213 583.232 328.213 583.232 328.973 583.232Z" fill="#3B352E"/>
<path d="M108.643 404.311C109.37 405.765 108.39 407.587 107.955 409.083C107.85 409.457 107.746 409.831 107.639 410.216C107.486 410.749 107.486 410.749 107.33 411.292C107.236 411.62 107.142 411.947 107.045 412.284C106.744 413.048 106.744 413.048 105.984 413.428C106.028 412.826 106.076 412.224 106.126 411.623C106.153 411.288 106.179 410.953 106.206 410.608C106.365 409.623 106.682 408.992 107.124 408.109C107.124 407.608 107.124 407.106 107.124 406.59C107.374 406.59 107.625 406.59 107.883 406.59C107.938 406.284 107.993 405.979 108.049 405.664C108.263 404.69 108.263 404.69 108.643 404.311Z" fill="#3B352E"/>
<path d="M313.019 309.34C314.396 309.482 314.396 309.482 315.678 309.72C315.678 309.97 315.678 310.221 315.678 310.479C317.934 310.856 317.934 310.856 320.236 311.239C319.856 311.999 319.856 311.999 319.192 312.26C318.188 312.4 317.415 312.243 316.437 311.999C316.437 311.748 316.437 311.498 316.437 311.239C315.059 310.863 313.68 310.487 312.259 310.1C312.51 309.849 312.76 309.598 313.019 309.34Z" fill="#3B352E"/>
<path d="M177.402 329.473C177.663 330.419 177.781 331.136 177.781 332.132C178.283 332.257 178.784 332.383 179.301 332.512C179.176 332.888 179.05 333.264 178.921 333.651C176.309 332.939 176.309 332.939 175.882 332.512C175.866 331.752 175.866 330.992 175.882 330.232C176.383 329.982 176.885 329.731 177.402 329.473Z" fill="#3B352E"/>
<path d="M325.175 547.145C325.551 547.145 325.927 547.145 326.314 547.145C326.401 547.403 326.487 547.662 326.576 547.928C327.209 549.346 328.046 550.458 328.974 551.703C328.848 551.954 328.723 552.205 328.594 552.463C328.343 552.463 328.092 552.463 327.834 552.463C327.344 551.908 327.344 551.908 326.837 551.181C326.667 550.943 326.498 550.705 326.323 550.46C325.935 549.804 325.935 549.804 325.935 549.044C325.684 549.044 325.433 549.044 325.175 549.044C325.175 548.417 325.175 547.79 325.175 547.145Z" fill="#3B352E"/>
<path d="M130.676 264.133C130.802 264.384 130.927 264.634 131.056 264.893C128.913 267.517 126.505 269.647 123.838 271.73C124.38 270.493 125.041 269.678 126.002 268.733C126.41 268.329 126.41 268.329 126.825 267.917C127.109 267.64 127.393 267.362 127.685 267.077C127.971 266.794 128.258 266.511 128.553 266.219C129.259 265.522 129.967 264.827 130.676 264.133Z" fill="#303030"/>
<path d="M143.212 218.928C143.337 218.928 143.463 218.928 143.592 218.928C143.592 219.68 143.592 220.432 143.592 221.207C141.085 221.458 138.577 221.708 135.994 221.967C137.607 220.892 139.114 220.455 141.028 220.281C141.498 220.211 141.968 220.14 142.452 220.067C142.703 219.691 142.954 219.315 143.212 218.928Z" fill="#3B352E"/>
<path d="M143.212 535.367C145.602 535.184 145.602 535.184 146.773 535.985C147.505 537.053 147.654 537.887 147.77 539.166C147.394 539.166 147.018 539.166 146.631 539.166C146.49 538.814 146.349 538.461 146.203 538.098C145.374 536.687 144.706 536.345 143.212 535.747C143.212 535.622 143.212 535.497 143.212 535.367Z" fill="#3B352E"/>
<path d="M103.324 482.564C103.575 482.69 103.826 482.815 104.084 482.944C104.084 484.95 104.084 486.956 104.084 489.022C103.324 488.643 103.324 488.643 103.09 487.981C102.929 487.031 102.894 486.139 102.897 485.176C102.896 484.846 102.895 484.516 102.894 484.176C102.944 483.324 102.944 483.324 103.324 482.564Z" fill="#3B352E"/>
<path d="M174.362 318.076C175.502 318.456 175.502 318.456 176.029 319.367C176.192 319.74 176.355 320.113 176.523 320.498C176.772 321.055 176.772 321.055 177.026 321.623C177.401 322.635 177.401 322.635 177.401 323.774C176.262 323.394 176.262 323.394 175.735 322.483C175.572 322.11 175.409 321.737 175.241 321.353C175.075 320.981 174.909 320.61 174.738 320.228C174.362 319.216 174.362 319.216 174.362 318.076Z" fill="#3B352E"/>
<path d="M170.183 310.859C171.725 311.373 172.053 312.13 172.842 313.519C172.842 314.02 172.842 314.521 172.842 315.038C172.154 314.967 172.154 314.967 171.323 314.658C170.326 313.377 170.045 312.471 170.183 310.859Z" fill="#3B352E"/>
<path d="M246.16 156.627C246.41 156.752 246.661 156.878 246.919 157.007C245.547 158.788 245.547 158.788 245.02 159.286C244.644 159.286 244.268 159.286 243.88 159.286C243.786 159.584 243.692 159.882 243.595 160.188C243.062 161.308 242.738 161.528 241.601 161.945C242.133 160.226 242.954 159.38 244.308 158.218C244.653 157.918 244.999 157.617 245.355 157.308C245.753 156.971 245.753 156.971 246.16 156.627Z" fill="#565656"/>
<path d="M324.097 218.854C324.56 218.867 324.56 218.867 325.032 218.88C325.498 218.891 325.498 218.891 325.973 218.901C326.33 218.914 326.33 218.914 326.694 218.928C326.331 218.999 326.331 218.999 325.961 219.072C325.108 219.23 325.108 219.23 324.747 220.044C324.638 220.302 324.528 220.561 324.415 220.827C324.164 221.078 323.914 221.329 323.655 221.587C323.279 221.587 322.903 221.587 322.516 221.587C322.468 220.685 322.468 220.685 322.516 219.687C323.275 218.928 323.275 218.928 324.097 218.854Z" fill="#3B352E"/>
<path d="M238.182 144.473C238.182 144.849 238.182 145.225 238.182 145.612C238.558 145.738 238.934 145.863 239.322 145.992C239.322 146.368 239.322 146.744 239.322 147.132C238.946 147.006 238.57 146.881 238.182 146.752C238.182 146.501 238.182 146.25 238.182 145.992C237.681 145.867 237.179 145.741 236.663 145.612C236.537 145.988 236.412 146.364 236.283 146.752C236.032 146.752 235.781 146.752 235.523 146.752C235.398 146.125 235.272 145.498 235.143 144.853C236.242 144.539 237 144.473 238.182 144.473Z" fill="#3B352E"/>
<path d="M148.15 350.746C148.401 350.871 148.652 350.997 148.91 351.126C148.685 351.323 148.461 351.521 148.229 351.724C145.283 354.238 145.283 354.238 142.832 357.204C142.331 357.079 141.829 356.953 141.312 356.824C141.689 356.699 142.065 356.573 142.452 356.444C142.874 355.818 143.295 355.192 143.716 354.566C144.957 353.041 146.584 351.917 148.15 350.746Z" fill="#3B352E"/>
<path d="M254.137 35.8262C254.388 35.9515 254.639 36.0769 254.897 36.2061C255.107 41.4551 255.107 41.4551 253.757 43.4238C253.381 43.4238 253.005 43.4238 252.618 43.4238C252.743 42.9223 252.868 42.4209 252.998 41.9043C253.248 41.9043 253.499 41.9043 253.757 41.9043C253.982 39.8723 254.191 37.8742 254.137 35.8262Z" fill="#3B352E"/>
<path d="M273.891 63.1777C274.016 63.1777 274.142 63.1777 274.271 63.1777C274.562 66.874 274.562 66.874 273.848 68.0568C273.321 68.5673 273.321 68.5673 272.372 69.2558C272.246 68.7544 272.121 68.2529 271.992 67.7363C272.242 67.7363 272.493 67.7363 272.751 67.7363C273.128 66.232 273.504 64.7276 273.891 63.1777Z" fill="#3B352E"/>
<path d="M245.4 27.0879C247.179 27.285 248.344 27.7517 249.84 28.7261C250.194 28.9519 250.548 29.1776 250.913 29.4102C251.81 30.0907 252.381 30.7123 252.998 31.6465C252.872 31.8972 252.747 32.1479 252.618 32.4062C252.531 32.1712 252.445 31.9361 252.356 31.6939C251.703 30.6356 251.11 30.5554 249.958 30.1269C249.661 29.884 249.363 29.6412 249.056 29.3909C247.879 28.4657 246.79 28.0128 245.4 27.4678C245.4 27.3424 245.4 27.217 245.4 27.0879Z" fill="#3B352E"/>
<path d="M141.693 553.602C141.693 554.741 141.693 554.741 140.838 555.643C140.493 555.972 140.149 556.302 139.793 556.641C139.543 556.985 139.292 557.33 139.034 557.685C138.155 558.674 137.669 558.812 136.375 558.92C137.845 557.035 139.493 555.525 141.313 553.981C141.438 553.856 141.564 553.731 141.693 553.602Z" fill="#3B352E"/>
<path d="M373.799 524.352C374.05 524.728 374.301 525.104 374.559 525.491C374.825 525.867 375.092 526.243 375.366 526.631C376.079 527.77 376.079 527.77 376.079 528.91C375.828 528.91 375.577 528.91 375.319 528.91C375.193 529.412 375.068 529.913 374.939 530.43C374.445 528.784 374.049 527.195 373.799 525.491C373.549 525.491 373.298 525.491 373.04 525.491C373.419 524.731 373.419 524.731 373.799 524.352Z" fill="#3B352E"/>
<path d="M178.161 597.289C178.286 597.289 178.412 597.289 178.541 597.289C178.622 599.504 178.529 601.636 177.781 603.747C177.531 603.872 177.28 603.998 177.021 604.127C177.065 603.272 177.113 602.417 177.164 601.563C177.19 601.087 177.217 600.611 177.244 600.12C177.384 598.957 177.552 598.269 178.161 597.289Z" fill="#3B352E"/>
<path d="M333.247 538.716C333.861 538.732 333.861 538.732 334.488 538.747C334.799 538.761 335.111 538.774 335.432 538.787C334.145 539.977 333.262 540.055 331.538 539.998C330.924 539.983 330.924 539.983 330.297 539.967C329.986 539.954 329.674 539.941 329.354 539.927C330.64 538.738 331.523 538.66 333.247 538.716Z" fill="#3B352E"/>
<path d="M192.597 138.773C192.973 138.899 193.349 139.024 193.736 139.153C191.302 140.815 189.485 141.717 186.519 141.812C186.644 141.562 186.769 141.311 186.898 141.053C187.531 140.863 188.165 140.676 188.804 140.51C190.863 139.925 190.863 139.925 192.597 138.773Z" fill="#3A3A3A"/>
<path d="M396.972 340.109C397.397 341.522 397.397 341.522 396.996 342.484C396.796 342.813 396.796 342.813 396.592 343.148C396.342 343.148 396.091 343.148 395.833 343.148C395.833 343.901 395.833 344.653 395.833 345.428C395.331 345.553 394.83 345.678 394.313 345.808C394.832 344.462 395.418 343.176 396.07 341.89C396.324 341.387 396.324 341.387 396.583 340.874C396.712 340.621 396.84 340.369 396.972 340.109Z" fill="#3B352E"/>
<path d="M338.898 230.682C339.314 230.685 339.73 230.689 340.159 230.692C340.479 230.697 340.799 230.701 341.129 230.705C341.129 230.956 341.129 231.207 341.129 231.465C339.249 231.716 337.369 231.967 335.431 232.225C335.557 231.849 335.682 231.473 335.811 231.085C336.861 230.56 337.728 230.669 338.898 230.682Z" fill="#3B352E"/>
<path d="M238.562 171.441C238.687 171.441 238.813 171.441 238.942 171.441C239.017 172.684 239.087 173.926 239.156 175.169C239.177 175.522 239.198 175.875 239.22 176.238C239.238 176.577 239.257 176.916 239.276 177.266C239.294 177.578 239.312 177.89 239.33 178.212C239.322 179.039 239.322 179.039 238.942 180.179C238.158 180.44 238.158 180.44 237.422 180.559C237.543 180.19 237.663 179.821 237.787 179.441C238.256 177.802 238.35 176.2 238.42 174.504C238.434 174.208 238.449 173.912 238.464 173.607C238.499 172.885 238.531 172.163 238.562 171.441Z" fill="#3B352E"/>
<path d="M226.786 131.178C226.786 131.937 226.786 131.937 226.174 132.553C225.772 132.895 225.772 132.895 225.361 133.243C225.097 133.47 224.832 133.697 224.56 133.93C223.797 134.555 223.021 135.152 222.227 135.736C222.227 134.597 222.227 134.597 222.865 133.834C223.14 133.569 223.416 133.303 223.699 133.03C223.972 132.762 224.246 132.495 224.527 132.219C225.324 131.505 225.71 131.178 226.786 131.178Z" fill="#C7C7C7"/>
<path d="M272.372 60.1387C274.223 61.5157 274.223 61.5157 274.651 62.7978C274.676 63.3909 274.683 63.985 274.675 64.5785C274.671 64.8856 274.668 65.1926 274.664 65.5089C274.66 65.7425 274.655 65.9761 274.651 66.2168C274.4 65.7153 274.149 65.2139 273.891 64.6972C273.64 64.6972 273.39 64.6972 273.131 64.6972C273.147 64.2271 273.163 63.757 273.179 63.2727C273.183 62.0318 273.077 61.1968 272.372 60.1387Z" fill="#3B352E"/>
<path d="M314.158 593.869C314.158 594.245 314.158 594.621 314.158 595.009C313.013 595.391 312.243 595.428 311.048 595.412C310.534 595.407 310.534 595.407 310.011 595.402C309.75 595.398 309.489 595.393 309.22 595.389C309.345 595.138 309.47 594.887 309.6 594.629C311.232 594.147 312.452 593.869 314.158 593.869Z" fill="#3B352E"/>
<path d="M199.435 136.875C200.337 137.919 200.337 137.919 200.954 139.154C200.829 139.655 200.703 140.157 200.574 140.673C199.947 139.671 199.321 138.668 198.675 137.634C198.338 137.76 198.001 137.885 197.654 138.014C196.506 138.361 195.68 138.464 194.496 138.394C195.003 138.141 195.509 137.888 196.016 137.634C196.258 137.493 196.501 137.352 196.752 137.207C197.77 136.775 198.341 136.656 199.435 136.875Z" fill="#3B352E"/>
<path d="M154.229 587.791C155.42 587.951 156.465 588.459 157.552 588.954C157.856 589.092 158.16 589.23 158.472 589.371C158.702 589.477 158.931 589.582 159.167 589.69C159.042 589.941 158.916 590.192 158.787 590.45C156.926 589.956 155.225 589.34 153.469 588.551C153.719 588.3 153.97 588.049 154.229 587.791Z" fill="#3B352E"/>
<path d="M343.029 537.647C342.904 537.897 342.779 538.148 342.649 538.406C341.449 538.564 341.449 538.564 339.966 538.644C339.476 538.672 338.986 538.701 338.481 538.73C338.102 538.749 337.722 538.767 337.331 538.786C337.989 537.978 338.355 537.673 339.386 537.439C339.719 537.413 340.051 537.388 340.394 537.362C340.894 537.318 340.894 537.318 341.404 537.273C342.269 537.267 342.269 537.267 343.029 537.647Z" fill="#3B352E"/>
<path d="M322.136 311.998C323.062 312.141 323.062 312.141 324.035 312.378C324.161 312.629 324.286 312.879 324.415 313.138C325.292 313.538 326.179 313.919 327.074 314.277C325.864 314.882 324.946 314.567 323.655 314.277C322.729 313.541 322.729 313.541 322.136 312.758C322.136 312.507 322.136 312.256 322.136 311.998Z" fill="#3B352E"/>
<path d="M170.943 213.99C171.511 215.125 171.098 215.871 170.777 217.077C170.668 217.493 170.559 217.909 170.446 218.338C170.36 218.658 170.273 218.979 170.184 219.309C169.933 219.309 169.682 219.309 169.424 219.309C169.457 218.707 169.498 218.105 169.543 217.504C169.576 217.002 169.576 217.002 169.609 216.489C169.828 215.387 170.212 214.829 170.943 213.99Z" fill="#3B352E"/>
<path d="M195.255 63.5566C195.467 63.8622 195.678 64.1678 195.896 64.4826C196.877 65.5696 197.276 65.6469 198.674 65.8359C199.189 66.8649 199.079 67.7389 199.054 68.875C197.689 67.5485 196.41 66.2131 195.255 64.6963C195.255 64.3202 195.255 63.9441 195.255 63.5566Z" fill="#3B352E"/>
<path d="M213.11 52.9199C213.236 53.1706 213.361 53.4214 213.49 53.6797C213.114 54.2438 213.114 54.2438 212.73 54.8193C211.576 54.9306 211.576 54.9306 210.214 54.8905C209.762 54.8803 209.311 54.87 208.846 54.8594C208.324 54.8396 208.324 54.8396 207.792 54.8193C208.935 54.0574 209.556 53.8853 210.879 53.6559C212.108 53.5216 212.108 53.5216 213.11 52.9199Z" fill="#3B352E"/>
<path d="M323.275 587.791C322.812 589.182 322.376 589.372 321.162 590.142C320.848 590.343 320.534 590.544 320.211 590.751C319.969 590.903 319.726 591.054 319.477 591.21C319.226 591.085 318.975 590.959 318.717 590.83C321.539 587.791 321.539 587.791 323.275 587.791Z" fill="#3B352E"/>
<path d="M165.625 307.82C169.044 308.105 169.044 308.105 170.184 309.34C170.184 309.716 170.184 310.092 170.184 310.479C169.933 310.479 169.682 310.479 169.424 310.479C169.298 310.229 169.173 309.978 169.044 309.72C168.241 309.375 168.241 309.375 167.311 309.102C166.997 309.003 166.683 308.905 166.36 308.803C166.117 308.729 165.875 308.656 165.625 308.58C165.625 308.329 165.625 308.079 165.625 307.82Z" fill="#3B352E"/>
<path d="M144.352 252.357C144.603 252.483 144.853 252.608 145.112 252.737C144.756 253.157 144.4 253.577 144.043 253.996C143.746 254.346 143.746 254.346 143.442 254.703C143.241 254.932 143.04 255.161 142.833 255.396C142.56 255.734 142.56 255.734 142.282 256.078C142.088 256.229 141.893 256.38 141.693 256.536C141.191 256.411 140.69 256.285 140.173 256.156C142.242 254.276 142.242 254.276 144.352 252.357Z" fill="#3B352E"/>
<path d="M251.478 150.17C251.858 150.93 251.858 150.93 251.62 151.998C250.786 153.933 249.556 154.99 247.679 155.868C247.826 155.68 247.973 155.491 248.124 155.297C249.39 153.646 250.487 151.999 251.478 150.17Z" fill="#6B6B6B"/>
<path d="M233.244 145.232C233.369 145.483 233.495 145.734 233.624 145.992C234.584 146.241 234.584 146.241 235.523 146.372C235.523 146.748 235.523 147.124 235.523 147.512C235.288 147.441 235.053 147.371 234.811 147.298C233.988 147.042 233.988 147.042 233.244 147.512C232.994 148.662 232.994 148.662 232.864 149.791C232.739 149.791 232.614 149.791 232.484 149.791C232.464 149.245 232.449 148.699 232.437 148.153C232.428 147.849 232.419 147.545 232.41 147.231C232.484 146.372 232.484 146.372 233.244 145.232Z" fill="#3E3E3E"/>
<path d="M297.063 599.947C297.189 599.947 297.314 599.947 297.443 599.947C297.97 602.019 298.294 603.886 298.203 606.025C297.952 606.025 297.702 606.025 297.443 606.025C297.038 604.71 297.025 603.503 297.04 602.132C297.045 601.518 297.045 601.518 297.05 600.891C297.055 600.58 297.059 600.268 297.063 599.947Z" fill="#3B352E"/>
<path d="M112.822 531.189C114.828 531.44 116.833 531.691 118.9 531.949C118.9 532.2 118.9 532.451 118.9 532.709C116.771 532.549 114.827 532.361 112.822 531.569C112.822 531.444 112.822 531.319 112.822 531.189Z" fill="#3B352E"/>
<path d="M134.854 321.877C135.105 322.002 135.356 322.128 135.614 322.257C135.489 322.508 135.364 322.758 135.234 323.017C134.984 323.017 134.733 323.017 134.475 323.017C134.388 323.236 134.302 323.455 134.213 323.681C133.589 324.751 132.805 325.327 131.815 326.056C131.565 325.93 131.314 325.805 131.056 325.676C132.955 323.179 132.955 323.179 134.854 322.637C134.854 322.386 134.854 322.135 134.854 321.877Z" fill="#3B352E"/>
<path d="M342.27 266.793C343.124 266.817 343.124 266.817 344.169 267.173C344.859 268.026 345.225 268.816 345.688 269.832C345.563 270.083 345.438 270.333 345.309 270.592C344.739 270.069 344.739 270.069 344.169 269.452C344.169 269.201 344.169 268.951 344.169 268.692C343.926 268.591 343.683 268.489 343.433 268.384C342.649 267.933 342.649 267.933 342.27 266.793Z" fill="#3B352E"/>
<path d="M370.76 451.414C371.136 451.539 371.512 451.665 371.9 451.794C371.9 453.173 371.9 454.552 371.9 455.973C371.524 455.722 371.148 455.471 370.76 455.213C370.649 454.308 370.649 454.308 370.689 453.266C370.699 452.92 370.71 452.575 370.72 452.218C370.733 451.953 370.747 451.688 370.76 451.414Z" fill="#3B352E"/>
<path d="M391.274 351.127C391.525 351.127 391.775 351.127 392.034 351.127C391.701 353.691 391.701 353.691 391.274 354.546C390.772 354.421 390.271 354.295 389.754 354.166C390.256 353.163 390.757 352.16 391.274 351.127Z" fill="#3B352E"/>
<path d="M298.203 334.791C298.328 334.791 298.454 334.791 298.583 334.791C298.702 336.049 298.702 336.049 298.583 337.45C297.633 338.186 297.633 338.186 296.684 338.59C296.684 337.07 296.684 337.07 297.443 335.931C297.694 335.931 297.945 335.931 298.203 335.931C298.203 335.555 298.203 335.178 298.203 334.791Z" fill="#3B352E"/>
<path d="M146.251 312.758C145.813 313.695 145.473 314.296 144.731 315.037C144.355 314.912 143.979 314.786 143.592 314.657C145.396 312.758 145.396 312.758 146.251 312.758ZM142.452 315.417C142.703 315.542 142.954 315.668 143.212 315.797C142.836 316.361 142.836 316.361 142.452 316.936C142.201 316.936 141.951 316.936 141.692 316.936C141.943 316.435 142.194 315.934 142.452 315.417Z" fill="#3B352E"/>
<path d="M329.354 256.537C331.098 257.102 332.178 258 333.532 259.196C333.407 259.572 333.281 259.948 333.152 260.336C332.518 259.775 331.885 259.213 331.253 258.65C330.9 258.337 330.548 258.024 330.185 257.702C329.91 257.443 329.636 257.184 329.354 256.917C329.354 256.792 329.354 256.666 329.354 256.537Z" fill="#3B352E"/>
<path d="M341.51 564.998C341.635 564.998 341.76 564.998 341.89 564.998C341.92 565.67 341.943 566.343 341.961 567.016C341.981 567.578 341.981 567.578 342.001 568.151C341.89 569.177 341.89 569.177 341.315 569.882C341.129 570.025 340.942 570.169 340.75 570.316C340.803 569.501 340.859 568.686 340.916 567.871C340.947 567.417 340.978 566.963 341.01 566.495C341.13 565.378 341.13 565.378 341.51 564.998Z" fill="#3B352E"/>
<path d="M112.442 281.229C112.442 282.368 112.442 282.368 111.694 283.144C111.377 283.413 111.059 283.682 110.732 283.959C110.415 284.231 110.098 284.502 109.771 284.782C109.524 284.989 109.277 285.195 109.023 285.407C109.023 284.268 109.023 284.268 109.771 283.491C110.088 283.223 110.405 282.954 110.732 282.677C111.05 282.405 111.367 282.133 111.694 281.853C111.941 281.647 112.188 281.441 112.442 281.229Z" fill="#3B352E"/>
<path d="M192.977 110.281C193.356 111.801 193.356 111.801 193.523 112.537C193.776 113.465 194.126 114.333 194.496 115.22C193.493 115.345 192.49 115.47 191.457 115.6C191.582 115.349 191.708 115.098 191.837 114.84C192.338 114.84 192.84 114.84 193.356 114.84C193.223 114.652 193.09 114.464 192.953 114.27C192.422 112.854 192.73 111.764 192.977 110.281Z" fill="#3B352E"/>
<path d="M107.883 530.809C109.764 530.809 111.644 530.809 113.582 530.809C113.456 531.185 113.331 531.561 113.202 531.948C111.229 532.029 109.735 531.793 107.883 531.188C107.883 531.063 107.883 530.938 107.883 530.809Z" fill="#3B352E"/>
<path d="M84.3307 349.986C85.5809 351.358 86.0579 352.314 86.2301 354.165C85.0905 353.785 85.0905 353.785 84.6394 353.144C84.2573 352.057 84.2787 351.13 84.3307 349.986Z" fill="#3B352E"/>
<path d="M326.694 219.688C328.604 219.861 329.79 220.824 331.253 221.967C331.128 222.343 331.002 222.719 330.873 223.106C330.536 222.817 330.199 222.527 329.852 222.228C328.854 221.391 327.817 220.728 326.694 220.067C326.694 219.942 326.694 219.817 326.694 219.688Z" fill="#3B352E"/>
<path d="M190.697 115.602C190.948 115.727 191.199 115.852 191.457 115.981C190.844 117.012 190.223 118.023 189.558 119.02C189.411 119.649 189.281 120.283 189.178 120.92C189.052 120.92 188.927 120.92 188.798 120.92C188.62 119.18 188.732 118.166 189.748 116.765C190.061 116.381 190.374 115.997 190.697 115.602Z" fill="#3B352E"/>
<path d="M105.224 417.605C105.656 418.899 105.543 419.799 105.248 421.119C105.174 421.458 105.1 421.797 105.024 422.146C104.965 422.403 104.905 422.659 104.844 422.924C104.594 422.798 104.343 422.673 104.084 422.544C103.847 421.57 103.847 421.57 103.705 420.645C104.081 420.519 104.457 420.394 104.844 420.265C104.836 419.896 104.829 419.528 104.82 419.149C104.844 417.985 104.844 417.985 105.224 417.605Z" fill="#3B352E"/>
<path d="M336.951 324.156C337.891 324.344 337.891 324.344 338.851 324.536C338.851 324.787 338.851 325.038 338.851 325.296C339.215 325.355 339.215 325.355 339.587 325.415C339.845 325.501 340.104 325.587 340.37 325.676C340.495 326.052 340.621 326.428 340.75 326.815C340.499 326.815 340.249 326.815 339.99 326.815C339.99 326.565 339.99 326.314 339.99 326.056C339.555 325.985 339.555 325.985 339.112 325.913C338.091 325.676 338.091 325.676 336.951 324.916C336.951 324.665 336.951 324.415 336.951 324.156Z" fill="#3B352E"/>
<path d="M318.337 247.799C319.214 248.05 320.092 248.3 320.996 248.559C321.121 249.185 321.247 249.812 321.376 250.458C320.867 250.161 320.361 249.859 319.856 249.556C319.574 249.388 319.292 249.221 319.002 249.048C318.782 248.887 318.563 248.725 318.337 248.559C318.337 248.308 318.337 248.057 318.337 247.799Z" fill="#3B352E"/>
<path d="M384.816 363.281C385.067 363.281 385.317 363.281 385.576 363.281C385.362 364.778 384.938 365.846 384.056 367.08C383.805 367.08 383.555 367.08 383.296 367.08C383.718 365.756 384.156 364.506 384.816 363.281Z" fill="#3B352E"/>
<path d="M298.203 327.193C298.328 327.569 298.454 327.946 298.583 328.333C297.765 329.56 297.341 330.14 295.924 330.612C295.924 329.473 295.924 329.473 296.422 328.903C296.634 328.715 296.846 328.527 297.063 328.333C297.381 328.016 297.381 328.016 297.705 327.692C297.869 327.527 298.034 327.363 298.203 327.193Z" fill="#3B352E"/>
<path d="M145.871 313.518C146.122 313.643 146.373 313.768 146.631 313.897C145.377 315.026 144.124 316.154 142.832 317.316C142.707 317.066 142.581 316.815 142.452 316.557C143.295 315.271 144.153 314.637 145.491 313.897C145.617 313.772 145.742 313.647 145.871 313.518Z" fill="#3B352E"/>
<path d="M319.477 242.482C319.602 242.482 319.727 242.482 319.856 242.482C319.904 244.999 319.904 244.999 319.477 246.281C319.1 246.281 318.724 246.281 318.337 246.281C318.454 245.719 318.573 245.157 318.693 244.596C318.792 244.126 318.792 244.126 318.893 243.647C319.097 242.862 319.097 242.862 319.477 242.482Z" fill="#3B352E"/>
<path d="M149.67 236.021C150.94 236.233 151.962 236.535 153.089 237.161C153.089 237.286 153.089 237.412 153.089 237.541C152.086 237.541 151.083 237.541 150.05 237.541C149.924 237.04 149.799 236.538 149.67 236.021Z" fill="#3B352E"/>
<path d="M341.51 226.906C342.946 227.559 343.504 228.103 344.169 229.565C344.24 230.824 344.24 230.824 344.169 231.845C344.064 231.631 343.959 231.418 343.851 231.198C343.393 230.292 342.907 229.407 342.412 228.521C342.243 228.217 342.073 227.914 341.899 227.601C341.77 227.372 341.642 227.142 341.51 226.906Z" fill="#3B352E"/>
<path d="M200.954 155.867C201.079 155.867 201.205 155.867 201.334 155.867C201.334 156.87 201.334 157.873 201.334 158.906C200.08 159.032 198.827 159.157 197.535 159.286C198.471 158.351 199.323 158.147 200.574 157.767C200.7 157.14 200.825 156.513 200.954 155.867Z" fill="#444444"/>
<path d="M176.642 606.027C176.767 606.027 176.892 606.027 177.021 606.027C177.13 608.849 177.13 608.849 176.262 610.206C176.136 610.206 176.011 610.206 175.882 610.206C175.935 609.581 175.991 608.955 176.048 608.33C176.079 607.982 176.11 607.634 176.142 607.275C176.262 606.407 176.262 606.407 176.642 606.027Z" fill="#3B352E"/>
<path d="M397.352 341.25C397.732 342.39 397.732 342.39 397.437 343.166C397.291 343.435 397.146 343.703 396.996 343.98C396.851 344.252 396.707 344.524 396.558 344.804C396.387 345.113 396.387 345.113 396.212 345.429C396.087 345.429 395.962 345.429 395.833 345.429C395.833 344.677 395.833 343.924 395.833 343.149C396.083 343.149 396.334 343.149 396.592 343.149C396.675 342.785 396.675 342.785 396.758 342.413C396.972 341.63 396.972 341.63 397.352 341.25Z" fill="#3B352E"/>
<path d="M297.823 333.271C298.576 333.648 298.576 333.648 299.343 334.031C299.218 334.909 299.092 335.786 298.963 336.69C298.587 336.44 298.211 336.189 297.823 335.931C297.752 334.554 297.752 334.554 297.823 333.271Z" fill="#3B352E"/>
<path d="M139.414 256.537C139.664 256.662 139.915 256.788 140.173 256.917C139.442 257.844 138.729 258.741 137.894 259.576C137.393 259.451 136.891 259.325 136.375 259.196C137.377 258.319 138.38 257.441 139.414 256.537Z" fill="#3B352E"/>
<path d="M324.795 240.201C324.415 240.771 324.415 240.771 323.655 241.341C322.623 241.445 321.658 241.392 320.616 241.341C320.742 241.09 320.867 240.839 320.996 240.581C322.275 240.226 323.472 240.163 324.795 240.201Z" fill="#3B352E"/>
<path d="M325.174 547.145C325.551 547.145 325.927 547.145 326.314 547.145C326.791 548.248 327.074 548.966 327.074 550.184C326.124 549.732 326.124 549.732 325.174 549.044C325.056 548.023 325.056 548.023 325.174 547.145Z" fill="#3B352E"/>
<path d="M143.212 535.368C145.69 535.228 145.69 535.228 146.607 535.938C146.74 536.126 146.873 536.314 147.011 536.508C146.885 536.884 146.76 537.26 146.631 537.647C146.38 537.271 146.129 536.895 145.871 536.508C145.241 536.366 144.608 536.239 143.972 536.128C143.721 535.877 143.47 535.626 143.212 535.368Z" fill="#3B352E"/>
<path d="M152.709 307.82C152.96 307.82 153.211 307.82 153.469 307.82C153.012 308.768 152.537 309.599 151.95 310.479C151.574 310.479 151.198 310.479 150.81 310.479C150.935 309.978 151.061 309.477 151.19 308.96C151.691 308.835 152.193 308.709 152.709 308.58C152.709 308.329 152.709 308.079 152.709 307.82Z" fill="#3B352E"/>
<path d="M96.4868 297.184C96.6122 297.434 96.7375 297.685 96.8667 297.943C96.1145 298.821 95.3624 299.698 94.5874 300.603C94.3367 300.477 94.086 300.352 93.8276 300.223C94.7052 299.22 95.5827 298.217 96.4868 297.184Z" fill="#3B352E"/>
<path d="M146.251 251.598C147.011 251.978 147.011 251.978 147.011 251.978L146.251 251.598ZM145.872 251.978C145.872 253.117 145.872 253.117 145.373 253.644C144.779 254.102 144.186 254.559 143.592 255.017C143.342 254.891 143.091 254.766 142.833 254.637C143.835 253.759 144.838 252.882 145.872 251.978Z" fill="#3B352E"/>
<path d="M154.988 239.441C155.364 239.441 155.74 239.441 156.128 239.441C156.253 240.194 156.379 240.946 156.508 241.721C156.006 241.721 155.505 241.721 154.988 241.721C154.988 240.969 154.988 240.216 154.988 239.441Z" fill="#3B352E"/>
<path d="M151.189 218.549C151.582 219.608 151.586 220.018 151.213 221.113C151.08 221.395 150.947 221.677 150.81 221.968C150.559 221.968 150.308 221.968 150.05 221.968C150.335 219.404 150.335 219.404 151.189 218.549Z" fill="#3B352E"/>
<path d="M194.496 58.2383C194.872 58.3636 195.248 58.489 195.636 58.6182C195.385 58.8689 195.134 59.1196 194.876 59.3779C194.725 60.1332 194.596 60.8934 194.496 61.6572C194.245 61.6572 193.995 61.6572 193.736 61.6572C193.689 60.3751 193.689 60.3751 193.736 58.998C193.987 58.7473 194.238 58.4966 194.496 58.2383Z" fill="#3B352E"/>
<path d="M148.53 542.967C148.781 542.967 149.032 542.967 149.29 542.967C149.29 543.343 149.29 543.719 149.29 544.106C149.541 543.856 149.791 543.605 150.05 543.347C149.955 544.059 149.955 544.059 149.67 544.866C148.886 545.341 148.886 545.341 148.15 545.626C148.276 544.748 148.401 543.871 148.53 542.967Z" fill="#3B352E"/>
<path d="M102.945 384.176C103.321 384.176 103.697 384.176 104.084 384.176C104.485 385.688 104.404 386.828 104.084 388.354C103.959 388.354 103.834 388.354 103.705 388.354C103.454 386.975 103.203 385.597 102.945 384.176Z" fill="#626262"/>
<path d="M131.436 225.387C131.561 225.888 131.687 226.39 131.816 226.906C132.051 226.953 132.286 227 132.528 227.049C133.335 227.286 133.335 227.286 134.095 228.046C133.217 227.921 132.34 227.795 131.436 227.666C131.056 226.526 131.056 226.526 131.436 225.387Z" fill="#353535"/>
<path d="M204.373 89.7676C204.498 89.7676 204.624 89.7676 204.753 89.7676C204.872 90.836 204.872 90.836 204.753 92.0469C203.851 92.7829 203.851 92.7829 202.854 93.1865C202.603 93.0611 202.352 92.9358 202.094 92.8066C202.399 92.5167 202.705 92.2268 203.02 91.9281C204.057 90.9854 204.057 90.9854 204.373 89.7676Z" fill="#474747"/>
<path d="M329.354 553.221C330.231 553.848 331.109 554.474 332.013 555.12C331.261 555.496 331.261 555.496 330.493 555.88C329.354 554.503 329.354 554.503 329.354 553.221Z" fill="#3B352E"/>
<path d="M104.465 385.695C104.715 385.821 104.966 385.946 105.224 386.075C105.224 386.827 105.224 387.58 105.224 388.354C104.848 388.354 104.472 388.354 104.085 388.354C104.068 387.595 104.069 386.835 104.085 386.075C104.21 385.95 104.335 385.824 104.465 385.695Z" fill="#3B352E"/>
<path d="M138.654 356.066C139.698 356.161 139.698 356.161 140.553 356.446C140.553 356.697 140.553 356.948 140.553 357.206C140.271 357.198 139.989 357.19 139.698 357.182C138.766 357.203 138.023 357.323 137.134 357.586C137.775 356.802 137.775 356.802 138.654 356.066Z" fill="#3B352E"/>
<path d="M348.348 339.73C348.846 341.226 348.44 342.057 347.968 343.529C347.717 343.529 347.466 343.529 347.208 343.529C347.325 342.967 347.444 342.405 347.564 341.844C347.663 341.374 347.663 341.374 347.764 340.895C347.968 340.11 347.968 340.11 348.348 339.73Z" fill="#3B352E"/>
<path d="M381.397 305.162C382.109 305.21 382.109 305.21 382.916 305.542C383.391 306.705 383.391 306.705 383.676 307.821C381.853 306.886 381.853 306.886 381.468 305.851C381.445 305.623 381.421 305.396 381.397 305.162Z" fill="#3B352E"/>
<path d="M140.933 256.537C140.367 257.979 139.506 258.668 138.274 259.576C139.342 256.537 139.342 256.537 140.933 256.537Z" fill="#3B352E"/>
<path d="M298.583 613.623C299.533 614.145 299.533 614.145 300.482 614.763C300.482 615.013 300.482 615.264 300.482 615.522C299.856 615.522 299.229 615.522 298.583 615.522C298.583 614.896 298.583 614.269 298.583 613.623Z" fill="#3B352E"/>
<path d="M388.235 357.584C388.615 358.724 388.615 358.724 388.069 359.934C387.775 360.463 387.775 360.463 387.475 361.003C387.099 361.003 386.723 361.003 386.335 361.003C386.905 359.821 387.551 358.703 388.235 357.584Z" fill="#3B352E"/>
<path d="M307.7 353.027C308.076 353.215 308.076 353.215 308.46 353.407C308.46 353.658 308.46 353.909 308.46 354.167C308.961 354.167 309.463 354.167 309.979 354.167C309.979 354.418 309.979 354.668 309.979 354.927C309.267 355.164 309.267 355.164 308.46 355.307C308.209 355.056 307.959 354.805 307.7 354.547C307.7 354.045 307.7 353.544 307.7 353.027Z" fill="#3B352E"/>
<path d="M130.676 264.133C130.802 264.384 130.927 264.634 131.056 264.893C130.429 265.645 129.803 266.397 129.157 267.172C129.031 266.796 128.906 266.42 128.777 266.032C129.404 265.405 130.03 264.779 130.676 264.133Z" fill="#3B352E"/>
<path d="M333.152 232.984C333.403 233.11 333.654 233.235 333.912 233.364C333.551 233.81 333.186 234.252 332.82 234.694C332.617 234.941 332.414 235.187 332.206 235.442C332.017 235.634 331.828 235.826 331.633 236.023C331.382 236.023 331.131 236.023 330.873 236.023C331.421 234.745 332.139 233.93 333.152 232.984Z" fill="#3B352E"/>
<path d="M198.295 92.4277C198.671 92.4277 199.047 92.4277 199.435 92.4277C199.56 92.8038 199.685 93.1799 199.814 93.5674C199.188 93.8181 198.561 94.0688 197.915 94.3271C197.664 94.0764 197.414 93.8257 197.155 93.5674C197.531 93.442 197.907 93.3167 198.295 93.1875C198.295 92.9368 198.295 92.6861 198.295 92.4277Z" fill="#3B352E"/>
<path d="M101.045 520.932C101.296 521.057 101.547 521.182 101.805 521.312C101.554 521.938 101.304 522.565 101.045 523.211C100.669 523.211 100.293 523.211 99.9058 523.211C99.9058 522.709 99.9058 522.208 99.9058 521.691C100.282 521.441 100.658 521.19 101.045 520.932Z" fill="#3B352E"/>
<path d="M98.3862 371.641C98.8877 371.641 99.3891 371.641 99.9058 371.641C99.7804 372.644 99.655 373.646 99.5259 374.68C99.4005 374.68 99.2751 374.68 99.146 374.68C98.8953 373.677 98.6445 372.674 98.3862 371.641Z" fill="#3B352E"/>
</g>
<path d="M0 629.95C0 621.918 6.51127 615.406 14.5433 615.406H450.843C458.875 615.406 465.386 621.918 465.386 629.95V852.462H0V629.95Z" fill="#3C352E"/>
<path d="M147.359 739.326V711.326H167.719V717.846H154.959V732.806H168.319V739.326H147.359ZM151.119 728.206V722.046H166.119V728.206H151.119ZM173.726 739.326V711.326H180.806L194.406 729.966L192.766 729.566C192.633 728.58 192.513 727.686 192.406 726.886C192.326 726.086 192.246 725.326 192.166 724.606C192.113 723.886 192.06 723.166 192.006 722.446C191.98 721.726 191.966 720.94 191.966 720.086C191.966 719.233 191.966 718.273 191.966 717.206V711.326H199.606V739.326H192.446L177.806 719.326L180.566 720.006C180.7 721.1 180.806 722.046 180.886 722.846C180.993 723.646 181.073 724.366 181.126 725.006C181.18 725.646 181.22 726.26 181.246 726.846C181.3 727.433 181.326 728.06 181.326 728.726C181.353 729.393 181.366 730.153 181.366 731.006V739.326H173.726ZM219.465 739.726C217.145 739.726 215.065 739.366 213.225 738.646C211.385 737.926 209.812 736.913 208.505 735.606C207.225 734.3 206.252 732.753 205.585 730.966C204.919 729.18 204.585 727.246 204.585 725.166C204.585 723.06 204.945 721.126 205.665 719.366C206.412 717.58 207.479 716.033 208.865 714.726C210.252 713.42 211.879 712.406 213.745 711.686C215.639 710.966 217.732 710.606 220.025 710.606C221.599 710.606 223.079 710.806 224.465 711.206C225.879 711.606 227.145 712.153 228.265 712.846C229.385 713.54 230.345 714.313 231.145 715.166L226.425 720.206C225.839 719.646 225.212 719.166 224.545 718.766C223.905 718.366 223.199 718.046 222.425 717.806C221.679 717.566 220.839 717.446 219.905 717.446C218.865 717.446 217.905 717.646 217.025 718.046C216.172 718.42 215.425 718.953 214.785 719.646C214.145 720.313 213.639 721.126 213.265 722.086C212.919 723.02 212.745 724.046 212.745 725.166C212.745 726.26 212.932 727.286 213.305 728.246C213.679 729.18 214.199 729.993 214.865 730.686C215.532 731.38 216.319 731.926 217.225 732.326C218.159 732.7 219.159 732.886 220.225 732.886C220.972 732.886 221.665 732.766 222.305 732.526C222.945 732.286 223.492 731.966 223.945 731.566C224.425 731.14 224.799 730.646 225.065 730.086C225.332 729.5 225.465 728.873 225.465 728.206V727.086L226.505 728.766H219.145V723.006H232.665C232.692 723.3 232.719 723.753 232.745 724.366C232.799 724.953 232.825 725.54 232.825 726.126C232.852 726.713 232.865 727.126 232.865 727.366C232.865 729.153 232.532 730.806 231.865 732.326C231.199 733.846 230.265 735.153 229.065 736.246C227.865 737.34 226.452 738.193 224.825 738.806C223.199 739.42 221.412 739.726 219.465 739.726ZM237.789 739.326V711.326H245.709V732.486H257.909V739.326H237.789ZM261.96 739.326V732.846H266.84V717.806H261.96V711.326H279.6V717.806H274.76V732.846H279.6V739.326H261.96ZM295.514 739.726C293.514 739.726 291.727 739.5 290.154 739.046C288.607 738.593 287.234 737.94 286.034 737.086C284.86 736.233 283.807 735.233 282.874 734.086L287.514 728.846C288.847 730.58 290.22 731.74 291.634 732.326C293.047 732.886 294.42 733.166 295.754 733.166C296.34 733.166 296.874 733.113 297.354 733.006C297.834 732.873 298.194 732.673 298.434 732.406C298.7 732.113 298.834 731.753 298.834 731.326C298.834 730.953 298.727 730.633 298.514 730.366C298.3 730.1 298.007 729.873 297.634 729.686C297.26 729.473 296.847 729.286 296.394 729.126C295.94 728.966 295.487 728.846 295.034 728.766C294.58 728.66 294.14 728.553 293.714 728.446C292.14 728.1 290.767 727.66 289.594 727.126C288.42 726.593 287.434 725.966 286.634 725.246C285.86 724.5 285.274 723.646 284.874 722.686C284.5 721.726 284.314 720.646 284.314 719.446C284.314 718.14 284.62 716.94 285.234 715.846C285.847 714.753 286.66 713.82 287.674 713.046C288.687 712.246 289.847 711.646 291.154 711.246C292.487 710.82 293.874 710.606 295.314 710.606C297.287 710.606 298.967 710.806 300.354 711.206C301.74 711.58 302.9 712.126 303.834 712.846C304.794 713.566 305.62 714.406 306.314 715.366L301.594 719.926C301.034 719.313 300.42 718.806 299.754 718.406C299.114 718.006 298.447 717.713 297.754 717.526C297.06 717.313 296.354 717.206 295.634 717.206C294.967 717.206 294.38 717.273 293.874 717.406C293.394 717.54 293.02 717.74 292.754 718.006C292.487 718.246 292.354 718.58 292.354 719.006C292.354 719.38 292.5 719.713 292.794 720.006C293.087 720.273 293.46 720.5 293.914 720.686C294.367 720.873 294.847 721.033 295.354 721.166C295.887 721.273 296.367 721.366 296.794 721.446C298.26 721.74 299.594 722.126 300.794 722.606C302.02 723.06 303.087 723.646 303.994 724.366C304.9 725.06 305.594 725.913 306.074 726.926C306.554 727.94 306.794 729.126 306.794 730.486C306.794 732.486 306.287 734.18 305.274 735.566C304.287 736.926 302.94 737.966 301.234 738.686C299.554 739.38 297.647 739.726 295.514 739.726ZM328.382 739.326V711.326H336.302V739.326H328.382ZM311.422 739.326V711.326H319.342V739.326H311.422ZM314.422 728.846L314.462 721.886H332.742V728.846H314.422Z" fill="#DDC993"/>
<defs>
<clipPath id="clip0_606_168">
<rect width="373.042" height="615.406" fill="white" transform="translate(46.1719)"/>
</clipPath>
</defs>
</svg>
