<svg width="214" height="214" viewBox="0 0 214 214" fill="none" xmlns="http://www.w3.org/2000/svg">
<path d="M118.391 61.1822L118.993 60.5653C111.377 58.3846 103.311 58.2748 95.6295 60.2552C87.6716 62.3069 80.437 66.5217 74.7275 72.4326C56.9235 90.6528 56.9235 120.283 74.7275 138.504C78.8785 142.8 83.8519 146.217 89.3515 148.551C94.851 150.884 100.764 152.087 106.738 152.087C112.712 152.087 118.626 150.884 124.125 148.551C129.625 146.217 134.598 142.8 138.749 138.504C145.757 131.313 150.276 122.065 151.643 112.118C152.262 107.656 155.806 103.899 160.31 103.899C164.644 103.899 168.23 107.368 167.814 111.68M118.391 61.1822C111.02 59.1463 103.237 59.0757 95.8185 60.9882C87.9959 63.005 80.8844 67.1481 75.272 72.9585L75.2689 72.9617C57.7524 90.8877 57.7524 120.048 75.2689 137.975L75.2719 137.978C79.3523 142.201 84.2412 145.56 89.6472 147.854C95.0532 150.148 100.866 151.33 106.738 151.33C112.611 151.33 118.423 150.148 123.829 147.854C129.235 145.56 134.124 142.201 138.205 137.978L138.207 137.975C145.102 130.9 149.548 121.802 150.893 112.015L150.893 112.014C151.553 107.259 155.351 103.142 160.31 103.142C165.028 103.142 169.032 106.936 168.567 111.753M118.391 61.1822C118.667 61.2585 118.942 61.3375 119.217 61.4193L111.68 69.1344M118.391 61.1822L111.139 68.6054L111.139 68.6055C109.934 69.8393 109.12 71.4013 108.799 73.0957C108.477 74.7902 108.663 76.5417 109.333 78.1309C110.003 79.7201 111.127 81.0763 112.564 82.0295C114.001 82.9828 115.688 83.4908 117.413 83.4899M168.567 111.753C168.567 111.753 168.568 111.752 168.568 111.752L167.814 111.68M168.567 111.753L167.814 111.68M168.567 111.753C167.192 126.237 160.903 139.814 150.744 150.229M167.814 111.68C166.455 125.992 160.24 139.409 150.202 149.7M150.202 149.7L150.746 150.227C150.745 150.228 150.745 150.228 150.744 150.229M150.202 149.7C144.56 155.524 137.805 160.153 130.339 163.315C122.872 166.477 114.847 168.106 106.738 168.106C98.63 168.106 90.6044 166.477 83.138 163.315C75.6717 160.153 68.9168 155.524 63.2745 149.7M150.202 149.7L150.744 150.229M150.744 150.229C145.031 156.124 138.193 160.811 130.634 164.012C123.074 167.214 114.948 168.863 106.738 168.863C98.5286 168.863 90.4026 167.214 82.8428 164.012C75.2832 160.811 68.4439 156.123 62.7311 150.228M63.2745 149.7L62.7329 150.229C62.7323 150.229 62.7317 150.228 62.7311 150.228M63.2745 149.7C39.3971 125.257 39.3971 85.6895 63.2745 61.2464M63.2745 149.7L62.7308 150.227C62.7309 150.227 62.731 150.227 62.7311 150.228M62.7311 150.228C38.5686 125.491 38.5689 85.4552 62.7319 60.7185M63.2745 61.2464L62.7308 60.7197C62.7311 60.7193 62.7315 60.7189 62.7319 60.7185M63.2745 61.2464C71.9864 52.2542 83.2728 46.1853 95.5782 43.876C107.884 41.5667 120.602 43.1307 131.982 48.3524M63.2745 61.2464L62.7329 60.7174C62.7326 60.7178 62.7322 60.7182 62.7319 60.7185M62.7319 60.7185C71.5526 51.6145 82.9797 45.4701 95.4386 43.132C107.723 40.8267 120.414 42.3336 131.811 47.4438M131.982 48.3524L131.44 47.8235L131.811 47.4438M131.982 48.3524L132.298 47.6644C132.136 47.5901 131.974 47.5166 131.811 47.4438M131.982 48.3524L148.74 38.3404M131.811 47.4438L139.446 39.626L139.446 39.6258C140.664 38.3795 142.226 37.5249 143.933 37.1711C145.64 36.8173 147.413 36.9804 149.026 37.6396M149.026 37.6396L148.74 38.3404M149.026 37.6396C149.026 37.6395 149.026 37.6394 149.025 37.6393L148.74 38.3404M149.026 37.6396C150.638 38.2964 152.017 39.4183 152.989 40.8621C153.961 42.3062 154.48 44.0069 154.481 45.7475V45.748V74.7275C154.481 77.0514 153.558 79.2801 151.915 80.9234C150.272 82.5667 148.043 83.4899 145.719 83.4899H117.413M148.74 38.3404C150.212 38.9404 151.473 39.9654 152.361 41.2847C153.249 42.604 153.723 44.1578 153.724 45.748V74.7275C153.724 76.8506 152.881 78.8868 151.38 80.3881C149.878 81.8894 147.842 82.7328 145.719 82.7328H117.412M117.413 83.4899L117.412 82.7328M117.413 83.4899H117.412V82.7328M117.413 83.4899L111.68 69.1344M117.413 83.4899L111.68 69.1344M117.412 82.7328C115.837 82.7337 114.296 82.2696 112.983 81.3987C111.67 80.5278 110.643 79.2888 110.031 77.8369C109.419 76.385 109.249 74.7848 109.542 73.2367C109.836 71.6887 110.579 70.2617 111.68 69.1344M212.72 106.738C212.72 165.272 165.272 212.72 106.738 212.72C48.2048 212.72 0.757009 165.272 0.757009 106.738C0.757009 48.2048 48.2048 0.757009 106.738 0.757009C165.272 0.757009 212.72 48.2048 212.72 106.738Z" fill="#F0B27C" stroke="#F0B27C" stroke-width="1.51402"/>
</svg>
