<svg width="1503" height="2194" viewBox="0 0 1503 2194" fill="none" xmlns="http://www.w3.org/2000/svg">
<g clip-path="url(#clip0_177_3)">
<g clip-path="url(#clip1_177_3)">
<rect width="141" height="1020" transform="translate(681 1174)" fill="#DBC860"/>
<rect x="660.916" y="1139.25" width="1173.28" height="79.8234" transform="rotate(35.3403 660.916 1139.25)" fill="#3C3A3A"/>
<rect x="587.41" y="1242.92" width="1173.28" height="79.8234" transform="rotate(35.3403 587.41 1242.92)" fill="#3C3A3A"/>
<rect x="513.904" y="1346.58" width="1173.28" height="79.8234" transform="rotate(35.3403 513.904 1346.58)" fill="#3C3A3A"/>
<rect x="440.398" y="1450.24" width="1173.28" height="79.8234" transform="rotate(35.3403 440.398 1450.24)" fill="#3C3A3A"/>
<rect x="366.893" y="1553.9" width="1173.28" height="79.8234" transform="rotate(35.3403 366.893 1553.9)" fill="#3C3A3A"/>
<rect x="293.387" y="1657.56" width="1173.28" height="79.8234" transform="rotate(35.3403 293.387 1657.56)" fill="#3C3A3A"/>
<rect x="219.881" y="1761.22" width="1173.28" height="79.8234" transform="rotate(35.3403 219.881 1761.22)" fill="#3C3A3A"/>
</g>
<g filter="url(#filter0_d_177_3)">
<rect x="751.768" width="1063.16" height="1063.16" transform="rotate(45 751.768 0)" fill="#FFFAF7"/>
</g>
<path d="M1071 769.5C1071 945.403 928.179 1088 752 1088C575.821 1088 433 945.403 433 769.5C433 593.597 575.821 451 752 451C928.179 451 1071 593.597 1071 769.5ZM531.181 769.5C531.181 891.264 630.045 989.973 752 989.973C873.955 989.973 972.819 891.264 972.819 769.5C972.819 647.736 873.955 549.027 752 549.027C630.045 549.027 531.181 647.736 531.181 769.5Z" fill="#BE4747"/>
<rect x="268" y="667" width="953" height="204" rx="30" fill="#39287D"/>
</g>
<defs>
<filter id="filter0_d_177_3" x="-14.7324" y="0" width="1533" height="1533" filterUnits="userSpaceOnUse" color-interpolation-filters="sRGB">
<feFlood flood-opacity="0" result="BackgroundImageFix"/>
<feColorMatrix in="SourceAlpha" type="matrix" values="0 0 0 0 0 0 0 0 0 0 0 0 0 0 0 0 0 0 127 0" result="hardAlpha"/>
<feOffset dy="14.7324"/>
<feGaussianBlur stdDeviation="7.36619"/>
<feComposite in2="hardAlpha" operator="out"/>
<feColorMatrix type="matrix" values="0 0 0 0 0 0 0 0 0 0 0 0 0 0 0 0 0 0 0.25 0"/>
<feBlend mode="normal" in2="BackgroundImageFix" result="effect1_dropShadow_177_3"/>
<feBlend mode="normal" in="SourceGraphic" in2="effect1_dropShadow_177_3" result="shape"/>
</filter>
<clipPath id="clip0_177_3">
<rect width="1503" height="2194" fill="white"/>
</clipPath>
<clipPath id="clip1_177_3">
<rect width="141" height="1020" fill="white" transform="translate(681 1174)"/>
</clipPath>
</defs>
</svg>
