<svg width="3243" height="3243" viewBox="0 0 3243 3243" fill="none" xmlns="http://www.w3.org/2000/svg">
<g filter="url(#filter0_d_182_10)">
<rect x="1621.5" width="2271.93" height="2271.93" transform="rotate(45 1621.5 0)" fill="#FFFAF7"/>
</g>
<path d="M2303.69 1644.39C2303.69 2020.29 1998.48 2325.01 1622 2325.01C1245.51 2325.01 940.305 2020.29 940.305 1644.39C940.305 1268.49 1245.51 963.77 1622 963.77C1998.48 963.77 2303.69 1268.49 2303.69 1644.39ZM1150.11 1644.39C1150.11 1904.6 1361.38 2115.53 1622 2115.53C1882.61 2115.53 2093.88 1904.6 2093.88 1644.39C2093.88 1384.19 1882.61 1173.25 1622 1173.25C1361.38 1173.25 1150.11 1384.19 1150.11 1644.39Z" fill="#BE4747"/>
<rect x="714" y="1502" width="1817" height="284" rx="30" fill="#39287D"/>
<defs>
<filter id="filter0_d_182_10" x="0.26566" y="0" width="3242.46" height="3242.46" filterUnits="userSpaceOnUse" color-interpolation-filters="sRGB">
<feFlood flood-opacity="0" result="BackgroundImageFix"/>
<feColorMatrix in="SourceAlpha" type="matrix" values="0 0 0 0 0 0 0 0 0 0 0 0 0 0 0 0 0 0 127 0" result="hardAlpha"/>
<feOffset dy="14.7324"/>
<feGaussianBlur stdDeviation="7.36619"/>
<feComposite in2="hardAlpha" operator="out"/>
<feColorMatrix type="matrix" values="0 0 0 0 0 0 0 0 0 0 0 0 0 0 0 0 0 0 0.25 0"/>
<feBlend mode="normal" in2="BackgroundImageFix" result="effect1_dropShadow_182_10"/>
<feBlend mode="normal" in="SourceGraphic" in2="effect1_dropShadow_182_10" result="shape"/>
</filter>
</defs>
</svg>
