<svg width="3243" height="3243" viewBox="0 0 3243 3243" fill="none" xmlns="http://www.w3.org/2000/svg">
<g filter="url(#filter0_d_182_10)">
<rect x="1621.5" width="2271.93" height="2271.93" transform="rotate(45 1621.5 0)" fill="#FFFAF7"/>
</g>
<path d="M2443 1605.5C2443 2058.1 2075.43 2425 1622 2425C1168.57 2425 801 2058.1 801 1605.5C801 1152.9 1168.57 786 1622 786C2075.43 786 2443 1152.9 2443 1605.5ZM1053.68 1605.5C1053.68 1918.8 1308.13 2172.78 1622 2172.78C1935.87 2172.78 2190.32 1918.8 2190.32 1605.5C2190.32 1292.2 1935.87 1038.22 1622 1038.22C1308.13 1038.22 1053.68 1292.2 1053.68 1605.5Z" fill="#BE4747"/>
<path d="M714 1494C714 1477.43 727.431 1464 744 1464H2501C2517.57 1464 2531 1477.43 2531 1494V1718C2531 1734.57 2517.57 1748 2501 1748H744C727.431 1748 714 1734.57 714 1718V1494Z" fill="#39287D"/>
<defs>
<filter id="filter0_d_182_10" x="0.26566" y="0" width="3242.46" height="3242.46" filterUnits="userSpaceOnUse" color-interpolation-filters="sRGB">
<feFlood flood-opacity="0" result="BackgroundImageFix"/>
<feColorMatrix in="SourceAlpha" type="matrix" values="0 0 0 0 0 0 0 0 0 0 0 0 0 0 0 0 0 0 127 0" result="hardAlpha"/>
<feOffset dy="14.7324"/>
<feGaussianBlur stdDeviation="7.36619"/>
<feComposite in2="hardAlpha" operator="out"/>
<feColorMatrix type="matrix" values="0 0 0 0 0 0 0 0 0 0 0 0 0 0 0 0 0 0 0.25 0"/>
<feBlend mode="normal" in2="BackgroundImageFix" result="effect1_dropShadow_182_10"/>
<feBlend mode="normal" in="SourceGraphic" in2="effect1_dropShadow_182_10" result="shape"/>
</filter>
</defs>
</svg>
